<?xml version="1.0" standalone="no"?><!DOCTYPE svg PUBLIC "-//W3C//DTD SVG 1.1//EN" "http://www.w3.org/Graphics/SVG/1.1/DTD/svg11.dtd"><svg t="1543308960717" class="icon" style="" viewBox="0 0 1024 1024" version="1.1" xmlns="http://www.w3.org/2000/svg" p-id="6225" xmlns:xlink="http://www.w3.org/1999/xlink" width="200" height="200"><defs><style type="text/css"></style></defs><path d="M649.888975 420.953378l-279.771915 0c-10.416234 0-18.860557 8.443299-18.860557 18.860557s8.443299 18.860557 18.860557 18.860557l279.771915 0c10.416234 0 18.860557-8.443299 18.860557-18.860557S660.305209 420.953378 649.888975 420.953378z" p-id="6226"></path><path d="M649.888975 564.709479l-279.771915 0c-10.416234 0-18.860557 8.444323-18.860557 18.860557s8.443299 18.860557 18.860557 18.860557l279.771915 0c10.416234 0 18.860557-8.444323 18.860557-18.860557S660.305209 564.709479 649.888975 564.709479z" p-id="6227"></path><path d="M649.888975 705.95234l-279.771915 0c-10.416234 0-18.860557 8.444323-18.860557 18.860557s8.443299 18.860557 18.860557 18.860557l279.771915 0c10.416234 0 18.860557-8.444323 18.860557-18.860557S660.305209 705.95234 649.888975 705.95234z" p-id="6228"></path><path d="M755.92908 195.717544l-56.984852 0 0-9.43079c0-31.198559-25.38311-56.580646-56.58167-56.580646l-14.370289 0c-10.435677-47.479361-56.627718-83.367733-111.868857-83.367733-30.206976 0-58.265008 8.997931-79.008448 25.338085-19.014052 14.978133-30.845519 35.243689-34.139541 58.029648L384.59275 129.706107c-31.198559 0-56.579623 25.382087-56.579623 56.580646l0 9.43079-60.377112 0c-38.131459 0-69.15401 31.022551-69.15401 69.15401l0 578.783009c0 38.132482 31.021527 69.15401 69.15401 69.15401l488.293065 0c38.132482 0 69.155033-31.021527 69.155033-69.15401L825.084113 264.871553C825.084113 226.739071 794.061562 195.717544 755.92908 195.717544zM365.733217 186.286754c0-10.399861 8.460696-18.860557 18.859533-18.860557l35.830043 0c10.416234 0 18.860557-8.443299 18.860557-18.860557 0-0.422625-0.035816-0.836041-0.063445-1.252527 0.334621-1.406023 0.530073-2.864234 0.530073-4.371564 0-20.929682 11.260461-34.192753 20.706601-41.634236 14.120602-11.123338 33.890878-17.248849 55.666834-17.248849 42.10598 0 76.362178 29.612435 76.362178 66.011436 0 10.416234 8.444323 18.860557 18.860557 18.860557 2.62171 0 5.117554-0.537236 7.387247-1.50426l23.630187 0c10.399861 0 18.86158 8.460696 18.86158 18.860557l0 51.098795c0 10.398838-8.461719 18.859533-18.86158 18.859533L384.59275 256.245082c-10.398838 0-18.859533-8.460696-18.859533-18.859533L365.733217 186.286754zM787.364023 843.654562c0 17.33276-14.101159 31.43392-31.434943 31.43392L267.636015 875.088482c-17.33276 0-31.432896-14.101159-31.432896-31.43392L236.203118 264.871553c0-17.33276 14.101159-31.43392 31.432896-31.43392l60.377112 0 0 3.947915c0 31.198559 25.381064 56.580646 56.579623 56.580646l257.769808 0c31.198559 0 56.58167-25.382087 56.58167-56.580646l0-3.947915 56.984852 0c17.33276 0 31.434943 14.101159 31.434943 31.43392L787.364023 843.654562z" p-id="6229"></path></svg>