<?xml version="1.0" standalone="no"?><!DOCTYPE svg PUBLIC "-//W3C//DTD SVG 1.1//EN" "http://www.w3.org/Graphics/SVG/1.1/DTD/svg11.dtd"><svg t="1552912500063" class="icon" style="" viewBox="0 0 1024 1024" version="1.1" xmlns="http://www.w3.org/2000/svg" p-id="2436" xmlns:xlink="http://www.w3.org/1999/xlink" width="200" height="200"><defs><style type="text/css"></style></defs><path d="M643.114667 710.784h125.952a1300.138667 1300.138667 0 0 0-55.125334-40.704l-0.768-6.314667 11.392-13.226666 5.632-0.768c21.333333 14.208 43.178667 29.781333 65.536 46.592l0.682667 6.144-12.373333 14.762666-5.888 0.64a1912.32 1912.32 0 0 0-0.597334-0.469333v72.874667h16.597334l4.266666 4.266666v17.493334l-4.266666 4.266666H612.266667l-4.266667-4.266666v-17.493334l4.266667-4.266666h15.232v-68.949334l-5.461334-0.981333a263.381333 263.381333 0 0 0-11.946666-14.506667l1.066666-6.485333c22.016-13.226667 41.429333-29.482667 58.282667-48.896l5.76-0.597333 15.445333 11.52 0.512 6.4a417.621333 417.621333 0 0 1-48.042666 42.965333z m23.04-86.314667a484.864 484.864 0 0 0-24.149334-35.072l0.810667-5.973333 14.037333-10.538667 5.888 0.768c11.008 13.909333 20.48 26.624 28.202667 37.973334l-1.024 5.845333-10.112 7.253333 33.877333 0.725334c12.117333-17.749333 22.186667-34.688 30.250667-50.986667l5.802667-1.877333 18.261333 9.514666 1.621333 6.058667a851.2 851.2 0 0 1-23.637333 35.413333h42.154667l4.266666 4.266667v17.536l-4.266666 4.266667H625.493333l-4.266666-4.266667v-17.493333l4.266666-4.266667 40.746667 0.853333z m16.085333 318.464c-129.578667 0-235.050667-105.941333-235.050667-236.16 0-130.133333 105.514667-236.117333 235.093334-236.117333s235.050667 105.941333 235.050666 236.117333c0 130.218667-105.472 236.16-235.093333 236.16z m0-434.090666c-108.629333 0-196.992 88.789333-196.992 197.973333 0 109.141333 88.32 197.888 196.992 197.888s197.034667-88.746667 197.034667-197.930667c0-109.098667-88.405333-197.930667-197.034667-197.930666z m69.76 281.472V736.853333h-16.170667v53.461334h16.170667z m-41.301333 0V736.853333h-16.170667v53.461334h16.170667z m-41.386667 0V736.853333h-16.170667v53.461334h16.170667z m-100.864-199.552l11.434667-13.226667 5.973333-0.554667c13.653333 11.264 26.666667 22.826667 38.954667 34.688l0.213333 5.930667c-4.906667 5.546667-9.429333 10.538667-13.525333 15.061333l-6.272 0.042667a666.88 666.88 0 0 0-36.352-35.968l-0.426667-5.973333z m22.144 103.168a511.402667 511.402667 0 0 0-35.584-32.213334l-0.64-5.973333 10.922667-13.568 5.930666-0.682667c12.416 9.557333 24.874667 19.626667 37.973334 30.677334l0.469333 5.973333c-3.626667 4.352-14.208 17.066667-12.8 15.445333l-6.272 0.341334z m17.578667 31.061333c-11.52 51.114667-14.464 64.426667-21.333334 95.786667l-5.589333 3.114666-19.456-6.784-2.688-5.248c9.472-32.128 17.066667-64.085333 22.656-96.042666l6.016-3.114667c5.333333 2.474667 11.264 4.949333 17.706667 7.338667l2.688 4.949333z m140.586666-293.973333a23.381333 23.381333 0 0 1-23.552-23.210667V150.741333a15.018667 15.018667 0 0 0-15.146666-14.848l-558.976 0.426667a15.018667 15.018667 0 0 0-14.933334 15.018667L136.106667 844.544c0 8.832 6.784 15.914667 14.933333 15.914667H382.293333c12.885333 0 23.210667 10.88 23.210667 24.234666a23.722667 23.722667 0 0 1-23.210667 24.192H142.421333c-33.877333 0-61.354667-28.928-61.354666-64.341333V142.805333c0-34.048 27.605333-61.738667 61.525333-61.738666h567.552c34.304 0 62.250667 27.434667 62.250667 61.269333v265.514667a23.466667 23.466667 0 0 1-23.637334 23.168z m-253.013333 53.930666H200.96a23.296 23.296 0 0 1-23.253333-23.381333c0-12.928 10.368-23.381333 23.253333-23.381333h294.912a23.424 23.424 0 0 1-0.085333 46.762666zM200.96 249.557333a23.296 23.296 0 0 1-23.253333-23.381333c0-12.928 10.368-23.381333 23.253333-23.381333h442.325333a23.338667 23.338667 0 0 1 0 46.762666H200.96z m442.24 117.76H200.96a23.296 23.296 0 0 1-23.253333-23.424c0-12.928 10.368-23.338667 23.253333-23.338666h442.325333c12.885333 0 23.296 10.410667 23.296 23.381333a23.466667 23.466667 0 0 1-23.381333 23.338667z m-465.493333 211.968c0-12.928 10.368-23.381333 23.253333-23.381333H425.813333c12.885333 0 23.296 10.453333 23.296 23.381333a23.296 23.296 0 0 1-23.296 23.381334H200.96a23.338667 23.338667 0 0 1-23.253333-23.381334z" p-id="2437"></path></svg>