<?xml version="1.0" standalone="no"?><!DOCTYPE svg PUBLIC "-//W3C//DTD SVG 1.1//EN" "http://www.w3.org/Graphics/SVG/1.1/DTD/svg11.dtd"><svg t="1556173294920" class="icon" style="" viewBox="0 0 1024 1024" version="1.1" xmlns="http://www.w3.org/2000/svg" p-id="1626" xmlns:xlink="http://www.w3.org/1999/xlink" width="200" height="200"><defs><style type="text/css"></style></defs><path d="M519.080 150.885c107.917 183.934 242.918 444.236 242.918 535.757 0 129.386-108.964 234.653-242.918 234.653-133.934 0-242.898-105.267-242.898-234.653-0.022-91.464 134.98-351.785 242.898-535.757M595.794 767.712c49.343 0 89.489-40.747 89.489-90.844 0-23.655-15.215-61.945-45.22-113.823l-44.269-76.502-44.269 76.502c-30.024 51.878-45.239 90.168-45.239 113.823 0.022 50.098 40.167 90.844 89.51 90.844M519.080 51.543s-294.041 477.279-294.041 635.102c0 157.861 131.649 285.795 294.041 285.795 162.409 0 294.060-127.934 294.060-285.795 0-157.823-294.060-635.102-294.060-635.102zM595.794 716.59c-21.178 0-38.346-17.77-38.346-39.703 0-21.913 38.346-88.212 38.346-88.212s38.346 66.28 38.346 88.212c0 21.932-17.172 39.703-38.346 39.703z" p-id="1627"></path></svg>