<?xml version="1.0" standalone="no"?><!DOCTYPE svg PUBLIC "-//W3C//DTD SVG 1.1//EN" "http://www.w3.org/Graphics/SVG/1.1/DTD/svg11.dtd"><svg t="1552871869048" class="icon" style="" viewBox="0 0 1024 1024" version="1.1" xmlns="http://www.w3.org/2000/svg" p-id="4621" xmlns:xlink="http://www.w3.org/1999/xlink" width="200" height="200"><defs><style type="text/css"></style></defs><path d="M807.424 986.624H225.28c-30.208 0-53.76-23.552-53.76-53.76V363.008h51.2v569.856c0 1.536 1.024 2.56 2.56 2.56h582.144c1.536 0 2.56-1.024 2.56-2.56V363.008h51.2v569.856c0 30.208-23.552 53.76-53.76 53.76z" p-id="4622"></path><path d="M993.28 542.72c-6.656 0-13.312-2.56-17.92-7.68l-455.68-455.68-455.68 455.68c-10.24 10.24-26.112 10.24-36.352 0s-10.24-26.112 0-36.352L501.76 25.6c10.24-10.24 26.112-10.24 36.352 0l473.6 473.6c10.24 10.24 10.24 26.112 0 36.352-5.12 4.608-11.776 7.168-18.432 7.168z" p-id="4623"></path><path d="M517.12 720.896c-13.824 0-26.112-10.24-27.648-24.576l-39.424-276.992c-6.144-40.96 26.112-77.824 67.072-77.824 41.472 0 73.216 36.864 67.072 77.824l-39.424 276.992c-2.048 14.336-13.824 24.576-27.648 24.576z" p-id="4624"></path><path d="M517.12 788.48m-37.888 0a37.888 37.888 0 1 0 75.776 0 37.888 37.888 0 1 0-75.776 0Z" p-id="4625"></path></svg>