<?xml version="1.0" standalone="no"?><!DOCTYPE svg PUBLIC "-//W3C//DTD SVG 1.1//EN" "http://www.w3.org/Graphics/SVG/1.1/DTD/svg11.dtd"><svg t="1545875487441" class="icon" style="" viewBox="0 0 1025 1024" version="1.1" xmlns="http://www.w3.org/2000/svg" p-id="3055" xmlns:xlink="http://www.w3.org/1999/xlink" width="200.1953125" height="200"><defs><style type="text/css"></style></defs><path d="M948.75 601.25c-2.5 0-281.25-458.75-281.25-458.75 16.25-13.75 21.25-28.75 21.25-51.25 0-42.5-33.75-77.5-76.25-78.75-82.5-1.25-85 85-82.5 88.75l-312.5 116.25c-13.75-20-33.75-27.5-58.75-27.5-43.75 0-78.75 35-78.75 78.75 0 35 18.75 65 50 75l-71.25 300c-35 7.5-57.5 38.75-57.5 76.25 0 43.75 35 78.75 78.75 78.75 23.75 0 45-10 61.25-27.5l292.5 162.5 0 2.5c0 43.75 35 78.75 78.75 78.75 47.5 0 78.75-42.5 73.75-83.75l311.25-182.5c13.75 10 31.25 11.25 48.75 11.25 43.75 0 78.75-35 78.75-78.75C1023.75 641.25 987.5 600 948.75 601.25zM607.5 50c21.25 0 38.75 17.5 38.75 38.75s-17.5 38.75-38.75 38.75c-21.25 0-38.75-17.5-38.75-38.75C568.75 68.75 586.25 50 607.5 50zM546.25 457.5 403.75 375l182.5-210c2.5 0-3.75 0 0 0L546.25 457.5zM580 520l242.5 136.25-260 10L580 520zM537.5 498.75l-17.5 173.75-126.25 6.25-87.5-181.25 73.75-90L537.5 498.75zM545 137.5c2.5 3.75 6.25 6.25 7.5 10L372.5 356.25l-140-80c0-3.75 0-7.5 0-10 0-3.75 0-10-2.5-13.75L545 137.5zM221.25 310 350 382.5l-65 75-66.25-145L221.25 310zM116.25 266.25c0-21.25 17.5-38.75 38.75-38.75s38.75 17.5 38.75 38.75c0 21.25-17.5 38.75-38.75 38.75S116.25 288.75 116.25 266.25zM77.5 757.5c-21.25 0-38.75-17.5-38.75-38.75 0-21.25 17.5-38.75 38.75-38.75s38.75 17.5 38.75 38.75C116.25 740 98.75 757.5 77.5 757.5zM121.25 651.25c-6.25-3.75-11.25-6.25-20-10l71.25-300c6.25-2.5 10 0 16.25-2.5l71.25 151.25L121.25 651.25zM146.25 678.75 275 525l71.25 158.75L150 692.5C146.25 685 150 685 146.25 678.75zM441.25 890 161.25 735l203.75-11.25 75 161.25C438.75 888.75 442.5 885 441.25 890zM408.75 722.5l103.75-6.25-17.5 140c-7.5 2.5-13.75 3.75-20 6.25L408.75 722.5zM510 973.75c-21.25 0-38.75-17.5-38.75-38.75 0-21.25 17.5-38.75 38.75-38.75s38.75 17.5 38.75 38.75C548.75 956.25 531.25 973.75 510 973.75zM573.75 891.25c-10-13.75-23.75-25-41.25-31.25l20-143.75 312.5-16.25c2.5 6.25 3.75 11.25 6.25 17.5L573.75 891.25zM872.5 641.25 583.75 476.25 625 166.25c2.5 0 3.75 0 3.75-2.5l272.5 446.25C890 616.25 878.75 627.5 872.5 641.25zM941.25 718.75c-21.25 0-38.75-17.5-38.75-38.75 0-21.25 17.5-38.75 38.75-38.75 21.25 0 38.75 17.5 38.75 38.75C981.25 700 963.75 718.75 941.25 718.75z" p-id="3056"></path></svg>