<?xml version="1.0" standalone="no"?><!DOCTYPE svg PUBLIC "-//W3C//DTD SVG 1.1//EN" "http://www.w3.org/Graphics/SVG/1.1/DTD/svg11.dtd"><svg t="1554097640132" class="icon" style="" viewBox="0 0 1024 1024" version="1.1" xmlns="http://www.w3.org/2000/svg" p-id="2045" xmlns:xlink="http://www.w3.org/1999/xlink" width="200" height="200"><defs><style type="text/css"></style></defs><path d="M917.077476 81.720889a249.6 249.6 0 0 1-3.271112 356.920889v458.524444a110.364444 110.364444 0 0 1-110.051555 109.994667H138.524587a109.681778 109.681778 0 0 1-77.738667-32.284445A109.710222 109.710222 0 0 1 28.444587 897.137778V249.287111a110.364444 110.364444 0 0 1 110.051555-109.994667h129.706667c3.783111-12.259556 10.524444-23.267556 19.399111-32.142222l0.085333-0.085333c14.506667-14.563556 34.190222-22.755556 54.727111-22.784h24.064a109.312 109.312 0 0 1 31.146667-50.517333 108.259556 108.259556 0 0 1 146.944 0c11.946667 11.036444 21.333333 24.576 27.448889 39.651555a249.6 249.6 0 0 1 345.059556 8.305778z m-176.867556 382.663111c113.322667 0 205.795556-92.444444 205.795556-205.795556a205.169778 205.169778 0 0 0-60.416-145.408 205.084444 205.084444 0 0 0-290.787556 0 205.169778 205.169778 0 0 0-0.654222 290.133334l0.654222 0.654222a205.169778 205.169778 0 0 0 145.408 60.416z m-129.763556-171.036444V145.322667c-1.564444-16.554667 7.452444-24.462222 27.221334-23.694223h59.192889c11.064889-0.796444 16.583111 7.480889 16.583111 24.860445v149.191111c-0.824889 8.675556-4.750222 13.852444-11.832889 15.416889-7.111111-0.796444-10.638222-5.518222-10.638222-14.193778V154.794667c0-7.082667-3.185778-10.666667-9.500445-10.666667H647.111253c-9.443556 0.824889-14.193778 4.750222-14.193777 11.889778v136.163555c-0.739556 8.704-4.750222 13.767111-11.832889 15.416889-7.111111-0.853333-10.638222-5.575111-10.638223-14.250666z m61.553778-114.858667c0.768 11.832889 1.166222 31.175111 1.166222 57.969778-0.796444 41.102222-4.352 71.111111-10.666666 90.055111a132.352 132.352 0 0 1-37.888 58.026666c-7.054222 5.518222-13.368889 5.518222-18.915556 0-3.982222-5.546667-2.389333-11.463111 4.750222-17.777777 29.980444-28.444444 43.804444-72.248889 41.415112-131.441778V179.626667c-0.768-7.850667 1.991111-12.231111 8.305777-12.970667 7.111111 0.768 11.036444 4.693333 11.832889 11.832889z m197.290667 718.677333V472.888889a248.604444 248.604444 0 0 1-129.080889 36.010667 248.519111 248.519111 0 0 1-99.612444-20.764445H229.034809c-31.715556 0-31.772444-44.487111 0-44.487111h342.869333a250.424889 250.424889 0 0 1-76.657778-133.461333h-152.832a77.368889 77.368889 0 0 1-54.727111-22.755556h-0.085333a77.340444 77.340444 0 0 1-22.755556-54.812444V183.808H138.496142a65.706667 65.706667 0 0 0-65.507555 65.479111V897.137778c0 18.005333 7.395556 34.360889 19.256889 46.250666 11.889778 11.889778 28.273778 19.256889 46.250666 19.256889h665.287111a65.706667 65.706667 0 0 0 65.507556-65.479111z m-156.103111-133.404444c31.715556 0 31.772444 44.487111 0 44.487111H229.063253c-31.715556 0-31.800889-44.515556 0-44.515556h484.124445z m0-160.056889c31.715556 0 31.772444 44.515556 0 44.515555H229.063253c-31.715556 0-31.800889-44.515556 0-44.515555h484.124445zM309.333476 161.848889v70.769778c0 9.045333 3.726222 17.351111 9.728 23.324444h-0.085334c6.200889 6.229333 14.620444 9.728 23.409778 9.728h147.569778a248.974222 248.974222 0 0 1 45.511111-150.840889l-0.568889-6.542222a63.914667 63.914667 0 0 0-20.423111-41.841778 64 64 0 0 0-107.207111 41.813334l-1.649778 20.536888h-63.232c-9.102222 0-17.351111 3.697778-23.324444 9.642667l-0.085334 0.056889c-6.172444 6.200889-9.671111 14.592-9.642666 23.324444z m407.665777 190.663111l7.111111 7.111111c3.953778 6.314667 3.555556 11.832889-1.194666 16.583111-5.518222 4.750222-10.609778 4.352-15.36-1.137778a259.441778 259.441778 0 0 0-24.860445-26.112 23.381333 23.381333 0 0 1-5.973333-8.248888c-5.518222-5.518222-6.314667-11.093333-2.332444-16.583112 4.693333-4.750222 10.24-5.148444 16.583111-1.223111 7.879111 7.111111 16.554667 16.981333 26.026666 29.610667z m137.358223-214.328889c14.193778 0 21.731556 7.111111 22.471111 21.333333V248.32c0 17.379556-0.739556 32.739556-2.389334 46.193778-0.654222 13.084444-1.848889 26.083556-3.527111 39.054222-3.982222 43.463111-29.610667 61.155556-76.970666 53.304889-7.936-1.564444-11.861333-6.712889-11.861334-15.416889 1.621333-7.879111 6.314667-11.434667 14.250667-10.666667 31.601778 6.314667 48.554667-3.128889 50.887111-28.387555 3.982222-15.018667 6.314667-42.666667 7.111111-82.944V171.349333c0-7.082667-3.527111-10.666667-10.666667-10.666666h-76.942222c-7.509333 17.351111-15.815111 34.360889-24.888889 50.915555-6.314667 8.704-12.999111 11.889778-20.110222 9.528889-6.314667-4.750222-6.712889-11.463111-1.137778-20.195555 11.804444-17.322667 23.608889-45.368889 35.498667-84.053334 2.360889-7.879111 7.054222-11.008 14.193778-9.443555 6.314667 2.389333 8.675556 7.480889 7.111111 15.36-1.621333 7.111111-2.759111 12.288-3.584 15.416889h80.554667z m-33.137778 182.414222c-0.796444 0-1.991111-3.185778-3.584-9.500444-12.629333 0.796444-27.989333 1.991111-46.193778 3.527111h-29.582222c-9.472 0-15.36-1.991111-17.749334-5.916444-1.564444-4.750222 0-11.093333 4.750223-18.944 15.758222-24.462222 31.914667-59.221333 48.554666-104.192 3.128889-7.964444 8.277333-10.666667 15.36-8.277334 7.111111 3.953778 9.472 9.870222 7.111111 17.749334-18.147556 47.36-33.137778 80.128-45.027555 98.275555 7.139556 0 21.333333-0.768 42.666667-2.332444 6.286222 0 11.036444-0.398222 14.165333-1.223111-4.636444-12.259556-9.386667-24.490667-14.193778-36.693334-3.128889-7.111111-1.137778-12.259556 5.916445-15.416889 7.111111-2.360889 12.231111-0.398222 15.416888 5.916445 1.564444 4.750222 3.128889 9.841778 4.750223 15.416889 8.704 22.897778 15.018667 41.443556 18.944 55.637333 1.564444 8.675556-0.824889 14.222222-7.111111 16.554667-7.139556 0.824889-11.832889-2.702222-14.222223-10.581334z" p-id="2046"></path></svg>