<?xml version="1.0" standalone="no"?><!DOCTYPE svg PUBLIC "-//W3C//DTD SVG 1.1//EN" "http://www.w3.org/Graphics/SVG/1.1/DTD/svg11.dtd"><svg t="1554342064367" class="icon" style="" viewBox="0 0 1024 1024" version="1.1" xmlns="http://www.w3.org/2000/svg" p-id="2084" xmlns:xlink="http://www.w3.org/1999/xlink" width="200" height="200"><defs><style type="text/css"></style></defs><path d="M377.6 435.2 288 435.2c-6.4 0-12.8-6.4-12.8-12.8l0 0c0-6.4 6.4-12.8 12.8-12.8l89.6 0c6.4 0 12.8 6.4 12.8 12.8l0 0C390.4 435.2 384 435.2 377.6 435.2z" p-id="2085"></path><path d="M467.2 659.2 467.2 659.2c-6.4 0-12.8 0-19.2-6.4L371.2 428.8c0-6.4 0-12.8 6.4-19.2l0 0c6.4 0 12.8 0 19.2 6.4l83.2 224C480 652.8 473.6 659.2 467.2 659.2z" p-id="2086"></path><path d="M659.2 665.6l-192 0c-6.4 0-12.8-6.4-12.8-12.8l0 0c0-6.4 6.4-12.8 12.8-12.8l192 0c6.4 0 12.8 6.4 12.8 12.8l0 0C672 659.2 665.6 665.6 659.2 665.6z" p-id="2087"></path><path d="M678.4 595.2 448 595.2 396.8 435.2 729.6 435.2Z" p-id="2088"></path><path d="M486.4 697.6m-19.2 0a0.3 0.3 0 1 0 38.4 0 0.3 0.3 0 1 0-38.4 0Z" p-id="2089"></path><path d="M646.4 697.6m-19.2 0a0.3 0.3 0 1 0 38.4 0 0.3 0.3 0 1 0-38.4 0Z" p-id="2090"></path><path d="M768 192 256 192C217.6 192 192 217.6 192 256l0 576c0 38.4 25.6 64 64 64l512 0c38.4 0 64-25.6 64-64L832 256C832 217.6 806.4 192 768 192zM800 819.2c0 25.6-19.2 51.2-51.2 51.2L268.8 870.4c-25.6 0-51.2-19.2-51.2-51.2L217.6 268.8c0-25.6 19.2-51.2 51.2-51.2l480 0c25.6 0 51.2 19.2 51.2 51.2L800 819.2z" p-id="2091"></path><path d="M704 192 320 192l0 0c0-38.4 25.6-64 64-64l256 0C678.4 128 704 153.6 704 192L704 192z" p-id="2092"></path></svg>