<?xml version="1.0" standalone="no"?><!DOCTYPE svg PUBLIC "-//W3C//DTD SVG 1.1//EN" "http://www.w3.org/Graphics/SVG/1.1/DTD/svg11.dtd"><svg t="1554366058452" class="icon" style="" viewBox="0 0 1024 1024" version="1.1" xmlns="http://www.w3.org/2000/svg" p-id="2244" xmlns:xlink="http://www.w3.org/1999/xlink" width="200" height="200"><defs><style type="text/css"></style></defs><path d="M835.584 1016.32H50.176c-14.336 0-25.6-11.264-25.6-25.6V76.8c0-14.336 11.264-25.6 25.6-25.6h545.28c6.656 0 13.312 2.56 17.92 7.68l240.128 240.64c4.608 4.608 7.68 11.264 7.68 17.92v673.28c0 14.336-11.264 25.6-25.6 25.6z m-759.808-51.2h734.208V328.192l-225.28-225.792H75.776v862.72z" p-id="2245"></path><path d="M835.584 343.04h-240.128c-14.336 0-25.6-11.264-25.6-25.6V76.8c0-14.336 11.264-25.6 25.6-25.6s25.6 11.264 25.6 25.6v215.04h214.528c14.336 0 25.6 11.264 25.6 25.6s-11.264 25.6-25.6 25.6zM688.128 865.792c-6.656 0-13.312-2.56-17.92-7.68l-99.84-99.84c-4.608-4.608-7.68-11.264-7.68-17.92 0-6.656 2.56-13.312 7.68-17.92l99.84-99.328c10.24-9.728 26.112-9.728 36.352 0 9.728 10.24 9.728 26.112 0 36.352l-81.92 80.896 81.92 81.92c10.24 10.24 10.24 26.112 0 36.352-5.12 4.608-11.776 7.168-18.432 7.168zM574.464 428.544H247.808c-14.336 0-25.6-11.264-25.6-25.6s11.264-25.6 25.6-25.6h326.656c14.336 0 25.6 11.264 25.6 25.6s-11.264 25.6-25.6 25.6zM574.464 604.672H247.808c-14.336 0-25.6-11.264-25.6-25.6s11.264-25.6 25.6-25.6h326.656c14.336 0 25.6 11.264 25.6 25.6s-11.264 25.6-25.6 25.6z" p-id="2246"></path><path d="M984.064 769.024h-345.6c-14.336 0-25.6-11.264-25.6-25.6s11.264-25.6 25.6-25.6h345.6c14.336 0 25.6 11.264 25.6 25.6s-11.264 25.6-25.6 25.6zM376.32 770.56H247.808c-14.336 0-25.6-11.264-25.6-25.6s11.264-25.6 25.6-25.6h128.512c14.336 0 25.6 11.264 25.6 25.6s-11.264 25.6-25.6 25.6z" p-id="2247"></path></svg>