<?xml version="1.0" standalone="no"?><!DOCTYPE svg PUBLIC "-//W3C//DTD SVG 1.1//EN" "http://www.w3.org/Graphics/SVG/1.1/DTD/svg11.dtd"><svg t="1554380450174" class="icon" style="" viewBox="0 0 1024 1024" version="1.1" xmlns="http://www.w3.org/2000/svg" p-id="2653" xmlns:xlink="http://www.w3.org/1999/xlink" width="200" height="200"><defs><style type="text/css"></style></defs><path d="M810.363871 666.590968c-0.495484-44.428387-0.908387-90.260645-0.908387-135.514839v-25.517419c0-40.134194 0.495484-80.929032 0.908387-120.402581 0.495484-45.914839 1.073548-93.316129 0.908387-139.891613-0.165161-41.290323-20.48-61.522581-61.935484-61.770322h-40.051613c-20.397419 0-31.710968 0-36.418064-4.459355-4.707097-4.459355-5.12-15.607742-5.698065-35.674839v-0.825806c-0.495484-15.690323-5.863226-29.811613-15.194838-39.886452-9.661935-10.487742-22.792258-16.103226-37.987097-16.268387-32.867097-0.412903-66.312258-0.578065-99.179355-0.578065s-66.312258 0.165161-99.179355 0.578065c-29.976774 0.412903-50.209032 20.892903-51.530322 52.273548-0.495484 11.56129-0.908387 21.966452 0.08258 32.536774 0.495484 5.037419-0.082581 8.340645-1.734193 10.074839-1.569032 1.734194-4.707097 2.56-9.827097 2.56h-2.064516c-8.836129-0.330323-18.332903-0.495484-29.894194-0.495484-7.101935 0-14.369032 0.082581-21.388387 0.082581-5.698065 0-11.396129 0.082581-17.094193 0.082581-22.214194 0.082581-38.069677 5.285161-48.805162 15.772903-10.735484 10.570323-15.938065 26.590968-15.938064 48.72258-0.082581 186.219355-0.082581 374.99871 0 561.218065 0 45.336774 20.314839 65.486452 65.816774 65.486452h458.818064c28.407742 0 44.923871-4.707097 55.163871-15.607742 9.992258-10.570323 14.286452-27.664516 14.286452-56.898065-0.247742-45.171613-0.743226-91.169032-1.156129-135.597419zM425.207742 148.975484c1.073548-1.073548 3.303226-1.569032 7.267097-1.569032h1.32129c10.487742 0.165161 21.966452 0.330323 36.087742 0.330322 7.514839 0 15.029677 0 22.461935-0.08258 7.514839 0 15.029677-0.082581 22.461936-0.082581 7.68 0 15.607742 0 23.205161 0.082581 7.597419 0 15.525161 0.082581 23.205162 0.08258 13.625806 0 24.609032-0.082581 34.766451-0.330322h1.073549c3.716129 0 5.863226 0.495484 7.019354 1.734193 1.23871 1.23871 1.734194 3.79871 1.569033 7.927742-0.660645 25.6-0.660645 51.530323 0 76.965161 0.082581 3.88129-0.412903 6.44129-1.569033 7.59742-1.23871 1.32129-3.79871 1.816774-8.175484 1.816774h-0.412903c-28.820645-0.165161-55.329032-0.330323-81.094193-0.330323-27.994839 0-55.329032 0.082581-81.094194 0.412904h-0.330322c-3.963871 0-6.523871-0.578065-7.68-1.816775s-1.734194-3.79871-1.569033-8.092903c0.660645-31.132903 0.578065-54.833548-0.08258-76.965161 0-4.046452 0.495484-6.523871 1.569032-7.68z m327.514839 113.465806c-0.825806 66.477419-0.660645 134.110968-0.578065 199.514839 0 22.709677 0.082581 46.162581 0.082581 69.285161v66.064516c-0.082581 64.990968-0.082581 132.294194 0.412903 198.35871 0.082581 7.184516-0.412903 12.469677-3.138065 15.194839-2.229677 2.312258-6.606452 3.303226-13.708387 3.303226h-0.330322c-70.193548-0.412903-142.369032-0.578065-220.820645-0.578065-68.129032 0-140.304516 0.082581-220.820646 0.412903h-0.412903c-6.606452 0-10.322581-0.825806-12.221935-2.725161-1.899355-1.899355-2.807742-5.780645-2.807742-12.469677 0.495484-179.117419 0.495484-360.712258 0-539.664516 0-7.184516 0.825806-11.313548 2.807742-13.295484 0.908387-0.908387 2.56-2.064516 7.267097-2.064516 1.32129 0 2.807742 0.082581 4.459354 0.330322 4.376774 0.495484 9.331613 0.825806 14.781936 0.825807 4.707097 0 9.496774-0.165161 14.12129-0.330323 1.899355-0.082581 3.79871-0.082581 5.615484-0.165161 1.981935-0.082581 3.963871-0.165161 5.863226-0.330323 3.220645-0.165161 6.276129-0.330323 9.166451-0.330322 13.130323 0 24.030968 1.981935 25.187097 26.838709 1.23871 23.783226 25.930323 34.931613 48.227097 35.096774 39.473548 0.412903 71.597419 0.495484 101.16129 0.495484 35.179355 0 66.972903-0.165161 97.19742-0.660645 14.12129-0.165161 26.425806-4.872258 35.592258-13.460645 9.166452-8.588387 14.616774-20.562581 15.690322-34.683871 0.908387-11.974194 4.459355-13.212903 12.387097-13.212903 0.990968 0 2.064516 0 3.468387 0.08258 8.423226 0.412903 18.167742 0.825806 27.994839 0.825807 8.588387 0 16.433548-0.330323 23.618064-0.990968 1.816774-0.165161 3.468387-0.165161 5.03742-0.165161 5.202581 0 8.505806 0.908387 10.487742 2.972903 3.220645 2.394839 4.294194 7.267097 4.211613 15.525161z" p-id="2654"></path><path d="M432.887742 681.538065c-7.762581 0-12.965161-1.569032-16.433548-5.12-3.633548-3.716129-4.872258-9.083871-4.707097-18.002581 0.165161-5.285161 0.165161-9.661935 0.330322-13.460645 0.165161-18.993548 0.330323-24.691613 16.268387-24.691613 1.899355 0 3.963871 0.082581 6.441291 0.08258 4.294194 0.082581 9.331613 0.165161 15.607742 0.082581 8.505806-0.082581 17.424516-0.165161 28.16-0.165161 8.423226 0 16.929032 0 25.187096 0.08258 8.175484 0 16.763871 0.082581 25.104517 0.082581 10.735484 0 19.736774-0.082581 28.077419-0.165161 16.103226-0.165161 29.233548-5.12 37.904516-14.203871 7.184516-7.514839 10.818065-17.507097 10.487742-28.903226-0.495484-23.783226-20.727742-40.629677-48.970323-40.877419-9.496774-0.082581-19.736774-0.165161-32.04129-0.165162-8.505806 0-17.011613 0-25.6 0.082581-7.267097 0-14.699355 0-22.131613 0.082581 1.569032 5.037419 3.138065 9.827097 4.459355 14.369032 1.569032 5.037419 3.138065 9.827097 4.624516 14.616774 0.990968 3.138065 3.88129 12.469677-2.972903 19.489032-2.312258 2.312258-4.872258 3.468387-7.762581 3.468387-3.716129 0-6.936774-1.981935-9.579355-3.798709-0.660645-0.495484-1.403871-0.908387-1.981935-1.23871-5.532903-3.138065-11.065806-6.276129-16.68129-9.414193-21.883871-12.304516-44.593548-25.021935-66.064516-38.565162-10.735484-6.771613-16.516129-14.534194-17.424517-22.874838-0.908387-8.505806 3.220645-17.259355 12.221936-26.178065 18.498065-18.332903 41.125161-31.298065 63.009032-43.685161 9.166452-5.285161 18.828387-10.735484 27.829678-16.516129 2.807742-1.816774 5.367742-2.56 7.76258-2.56 2.725161 0 5.037419 1.073548 6.771613 3.138064 2.477419 2.890323 3.385806 7.597419 2.56 12.882581-1.403871 8.670968-3.385806 17.176774-5.532903 26.260645-0.660645 2.972903-1.403871 6.110968-2.064516 9.331613 9.083871 0 18.085161-0.082581 27.003871-0.165161 10.074839-0.082581 20.48-0.165161 30.637419-0.165162 14.781935 0 26.92129 0.165161 38.317419 0.495484 21.883871 0.660645 41.703226 7.267097 57.393549 19.241291 15.525161 11.809032 26.92129 28.738065 32.867097 48.887742 6.936774 22.874839 7.514839 45.997419 1.899354 66.890322-5.698065 21.140645-17.424516 38.482581-33.940645 50.539355-18.993548 13.708387-41.207742 20.810323-65.816774 20.892903-7.101935 0.082581-14.699355 0.082581-23.287742 0.082581-9.579355 0-19.323871 0-28.820645-0.082581-9.414194 0-19.24129-0.082581-28.738065-0.08258-19.406452 0-35.014194 0.082581-49.218064 0.495483-0.165161-0.495484-0.660645-0.495484-1.156129-0.495483z" p-id="2655"></path></svg>