<?xml version="1.0" standalone="no"?><!DOCTYPE svg PUBLIC "-//W3C//DTD SVG 1.1//EN" "http://www.w3.org/Graphics/SVG/1.1/DTD/svg11.dtd"><svg t="1554102812045" class="icon" style="" viewBox="0 0 1024 1024" version="1.1" xmlns="http://www.w3.org/2000/svg" p-id="2567" xmlns:xlink="http://www.w3.org/1999/xlink" width="200" height="200"><defs><style type="text/css"></style></defs><path d="M373.333333 789.333333a32 32 0 1 0 0 64 32 32 0 0 0 0-64M650.666667 789.333333a32 32 0 1 0 0 64 32 32 0 0 0 0-64" p-id="2568"></path><path d="M828.245333 513.237333a21.333333 21.333333 0 0 0-27.178666 13.056A169.258667 169.258667 0 0 1 641.92 640H290.474667l-26.282667-341.333333h377.642667a169.216 169.216 0 0 1 159.146666 113.664 21.418667 21.418667 0 0 0 27.178667 13.056 21.333333 21.333333 0 0 0 13.098667-27.178667A212.010667 212.010667 0 0 0 641.877333 256H260.949333L255.914667 190.378667C255.829333 189.44 255.36 188.672 255.146667 187.818667A21.376 21.376 0 0 0 253.568 182.613333C253.269333 182.058667 252.885333 181.589333 252.586667 181.034667a21.077333 21.077333 0 0 0-4.224-5.12C247.893333 175.616 247.466667 175.445333 247.04 175.104a21.205333 21.205333 0 0 0-5.290667-2.986667C240.341333 171.605333 238.933333 171.52 237.482667 171.264 236.544 171.093333 235.648 170.666667 234.666667 170.666667h-42.666667a21.333333 21.333333 0 0 0 0 42.666666h22.912l41.173333 534.997334c0.085333 1.28 0.64 2.346667 0.981334 3.584 0.298667 1.194667 0.426667 2.474667 0.938666 3.584 0.682667 1.493333 1.706667 2.688 2.688 3.968 0.64 0.853333 1.109333 1.792 1.877334 2.517333 1.322667 1.237333 2.858667 2.133333 4.437333 2.986667 0.768 0.426667 1.408 1.066667 2.218667 1.408A21.248 21.248 0 0 0 277.333333 768h469.333334a21.333333 21.333333 0 1 0 0-42.666667H297.045333l-3.242666-42.666666h348.074666a212.053333 212.053333 0 0 0 199.466667-142.250667 21.333333 21.333333 0 0 0-13.098667-27.178667" p-id="2569"></path><path d="M362.666667 448a21.333333 21.333333 0 0 0 0 42.666667h42.666666a21.333333 21.333333 0 0 0 0-42.666667h-42.666666zM492.458667 448a21.333333 21.333333 0 0 0 0 42.666667h42.666666a21.333333 21.333333 0 0 0 0-42.666667h-42.666666zM620.458667 448a21.333333 21.333333 0 0 0 0 42.666667h42.666666a21.333333 21.333333 0 0 0 0-42.666667h-42.666666z" p-id="2570"></path></svg>