<?xml version="1.0" standalone="no"?><!DOCTYPE svg PUBLIC "-//W3C//DTD SVG 1.1//EN" "http://www.w3.org/Graphics/SVG/1.1/DTD/svg11.dtd"><svg t="1554617989666" class="icon" style="" viewBox="0 0 1024 1024" version="1.1" xmlns="http://www.w3.org/2000/svg" p-id="729" xmlns:xlink="http://www.w3.org/1999/xlink" width="200" height="200"><defs><style type="text/css"></style></defs><path d="M656 760l-65.6-65.6c19.2-25.6 32-57.6 32-91.2 0-81.6-67.2-148.8-148.8-148.8-81.6 0-148.8 67.2-148.8 148.8 0 81.6 67.2 148.8 148.8 148.8 33.6 0 49.6-11.2 75.2-32l81.6 81.6c3.2 3.2 6.4 4.8 9.6 8 8 8 19.2 12.8 33.6-8 6.4-8 8-19.2 0-25.6L656 760zM376 604.8c0-54.4 43.2-97.6 97.6-97.6 54.4 0 97.6 43.2 97.6 97.6 0 54.4-43.2 97.6-97.6 97.6C419.2 700.8 376 657.6 376 604.8L376 604.8zM361.6 604.8" p-id="730"></path><path d="M748.8 969.6 252.8 969.6c-54.4 0-104-41.6-113.6-96L67.2 438.4c-4.8-27.2 1.6-54.4 19.2-75.2 17.6-20.8 43.2-32 70.4-32l686.4 0c27.2 0 54.4 11.2 70.4 32 17.6 20.8 24 48 19.2 75.2l-72 433.6C854.4 926.4 803.2 969.6 748.8 969.6L748.8 969.6 748.8 969.6zM156.8 400c-8 0-14.4 3.2-19.2 8-4.8 4.8-6.4 12.8-4.8 20.8l72 435.2c3.2 20.8 25.6 40 48 40l497.6 0c22.4 0 43.2-19.2 48-40l72-433.6c1.6-8 0-16-4.8-20.8-4.8-4.8-11.2-8-19.2-8L156.8 401.6 156.8 400 156.8 400zM736 299.2c-19.2 0-33.6-14.4-33.6-33.6 0-96-107.2-168-203.2-168-97.6 0-198.4 62.4-198.4 166.4 0 19.2-14.4 33.6-33.6 33.6-19.2 0-33.6-14.4-33.6-33.6C233.6 120 368 32 499.2 32c128 0 268.8 96 268.8 233.6C769.6 284.8 753.6 299.2 736 299.2L736 299.2 736 299.2zM736 299.2" p-id="731"></path></svg>