<?xml version="1.0" standalone="no"?><!DOCTYPE svg PUBLIC "-//W3C//DTD SVG 1.1//EN" "http://www.w3.org/Graphics/SVG/1.1/DTD/svg11.dtd"><svg t="1554260269551" class="icon" style="" viewBox="0 0 1024 1024" version="1.1" xmlns="http://www.w3.org/2000/svg" p-id="1365" xmlns:xlink="http://www.w3.org/1999/xlink" width="200" height="200"><defs><style type="text/css"></style></defs><path d="M771.437286 958.99959 195.939089 958.99959c-52.884464 0-95.91756-43.034119-95.91756-95.91756L100.021529 223.647663c0-52.884464 43.034119-95.918583 95.91756-95.918583l447.597201 0c17.688871 0 31.968086 14.32117 31.968086 31.968086 0 17.661242-14.279215 31.982412-31.968086 31.982412L195.939089 191.679577c-17.618263 0-31.981389 14.3488-31.981389 31.968086l0 639.434367c0 17.645892 14.363126 31.967062 31.981389 31.967062l575.498196 0c17.632589 0 31.967062-14.32117 31.967062-31.967062L803.404348 351.534332c0-17.646915 14.279215-31.968086 31.968086-31.968086s31.968086 14.322194 31.968086 31.968086l0 511.547699C867.341542 915.966495 824.307424 958.99959 771.437286 958.99959zM583.59613 447.452915c-8.188496 0-16.374946-3.130294-22.605857-9.375531-12.492522-12.491499-12.492522-32.708959 0-45.199435L878.729917 75.138304c12.504802-12.505825 32.707936-12.505825 45.199435 0 12.504802 12.504802 12.504802 32.708959 0 45.213761l-317.726342 317.726342C599.971076 444.351274 591.784626 447.452915 583.59613 447.452915zM451.71345 447.452915 259.889587 447.452915c-17.661242 0-31.982412-14.32117-31.982412-31.968086 0-17.661242 14.32117-31.982412 31.982412-31.982412l191.823863 0c17.646915 0 31.968086 14.32117 31.968086 31.982412C483.681536 433.131745 469.359342 447.452915 451.71345 447.452915zM643.53629 639.276778 259.889587 639.276778c-17.661242 0-31.982412-14.280238-31.982412-31.969109 0-17.673521 14.32117-31.967062 31.982412-31.967062l383.646704 0c17.688871 0 31.968086 14.293541 31.968086 31.967062C675.504376 624.99654 661.225161 639.276778 643.53629 639.276778z" p-id="1366"></path></svg>