<?xml version="1.0" standalone="no"?><!DOCTYPE svg PUBLIC "-//W3C//DTD SVG 1.1//EN" "http://www.w3.org/Graphics/SVG/1.1/DTD/svg11.dtd"><svg t="1551351514404" class="icon" style="" viewBox="0 0 1024 1024" version="1.1" xmlns="http://www.w3.org/2000/svg" p-id="1095" xmlns:xlink="http://www.w3.org/1999/xlink" width="200" height="200"><defs><style type="text/css"></style></defs><path d="M956.23871 571.45409 956.23871 571.45409l0-5.01113L756.523109 476.546533 756.523109 225.882564l0 0 0-33.94409 0 0 0-4.071735L526.933107 84.523045l-229.590002 103.343693 0 276.729625-3.324722-1.497097L64.427358 566.443983l0 265.107937 229.590002 103.343693 216.315674-97.368608 216.315674 97.368608 229.590002-103.343693L956.23871 605.39818l0 0L956.23871 571.45409zM726.648708 652.586922l-150.130276-67.577095 150.131299-67.577095 150.130276 67.577095L726.648708 652.586922zM346.887498 248.183476l155.274436 69.892837L502.161934 531.272949l-155.274436-69.891813L346.887498 248.183476zM706.977693 461.381136l-155.270343 69.89079L551.70735 318.075289l155.270343-69.89079L706.977693 461.381136zM676.020634 205.963908l-149.087527 67.107397L377.845581 205.963908l149.087527-67.107397L676.020634 205.963908zM450.072579 587.677587l-156.055219 70.243831L137.962142 587.677587l156.055219-70.243831L450.072579 587.677587zM113.972774 633.033587l155.269319 69.89079 0 166.486802-155.269319-69.89079L113.972774 633.033587zM318.78751 869.414249 318.78751 702.926424l155.275459-69.89386 0 166.486802L318.78751 869.414249zM546.603099 627.700115l155.286716 69.897953 0 171.820274L546.603099 799.520389 546.603099 627.700115zM906.693294 799.520389l-155.258063 69.88465L751.435231 697.584766l155.258063-69.885674L906.693294 799.520389z" p-id="1096"></path></svg>