<?xml version="1.0" standalone="no"?><!DOCTYPE svg PUBLIC "-//W3C//DTD SVG 1.1//EN" "http://www.w3.org/Graphics/SVG/1.1/DTD/svg11.dtd"><svg t="1552982194308" class="icon" style="" viewBox="0 0 1024 1024" version="1.1" xmlns="http://www.w3.org/2000/svg" p-id="5666" xmlns:xlink="http://www.w3.org/1999/xlink" width="200" height="200"><defs><style type="text/css"></style></defs><path d="M516.45844262 2.3553065c-279.87668263 0-506.69226516 226.81558253-506.69226517 506.69226292s226.81558253 506.69226516 506.69226517 506.69226516 506.69226516-226.81558253 506.69226291-506.69226516-226.81558253-506.69226516-506.69226291-506.69226292z m229.28993252 707.38968857s-4.67377561 9.3475513-12.92161407 17.59538969c-8.24783843 8.24783843-16.77060562 12.09683-17.59539195 12.09683224-0.82478405 0.82478405-5.49855971 2.74927872-10.17233304 2.74927874-4.67377561 0-9.3475513-1.92449689-12.92161635-5.49855969 0 0-72.03113137-57.1850204-118.21903016-103.3729192-42.61383599-42.61383599-72.03113137-80.55389862-73.13084197-81.37868267-0.82478405-0.82478405-4.67377561-0.82478405-6.32334378 0.82478404l-19.51988657 20.34467068c-0.82478405 0.82478405-1.92449689 1.92449689-1.92449692 3.57406506 0 0.82478405 0.82478405 2.74927872 1.92449692 3.57406279l8.24783841 8.24783842c3.57406277 3.57406277 5.49855971 8.24783843 5.49855969 13.74640036s-1.92449689 10.17233533-5.49855969 13.74639813l-38.76484441 38.76484441c-7.42305433 7.42305433-20.34467067 7.42305433-27.76772504 0l-128.39136774-127.56658142c-7.42305433-7.42305433-7.42305433-20.34467067 0-27.76772502l38.76484669-38.76484667c7.42305433-7.42305433 20.34467067-7.42305433 27.767725 0l8.24783841 8.24784066c1.92449689 1.92449689 5.49855971 1.92449689 7.42305661 0l108.04669486-108.0466948c1.92449689-1.92449689 1.92449689-5.49855971 0-7.42305663l-8.24783844-8.24783839c-7.42305433-7.42305433-7.42305433-20.34467067 0-27.7677273l38.76484444-38.76484441c7.42305433-7.42305433 20.34467067-7.42305433 27.767725 0l127.5665837 127.56658143c7.42305433 7.42305433 7.42305433 20.34467067 0 27.76772726l-38.7648467 38.76484443c-7.42305433 7.42305433-20.34467067 7.42305433-27.76772501 0l-8.24783843-8.24783844c-1.92449689-1.92449689-5.49855971-1.92449689-7.4230566 0l-25.84323038 25.84322813c-1.09971285 0.82478405-1.92449689 1.92449689-1.92449463 3.574065 0 0.82478405 0 2.74927872 0.82478406 3.57406284 5.49855971 4.67377561 50.0368926 36.84034975 83.30317732 70.10663448 44.26340412 44.26340412 106.39712673 114.64496734 106.39712669 115.46975143 9.07262249 9.89740655 3.57406277 21.16945473 0.82478408 26.66801442z" p-id="5667"></path></svg>