<?xml version="1.0" standalone="no"?><!DOCTYPE svg PUBLIC "-//W3C//DTD SVG 1.1//EN" "http://www.w3.org/Graphics/SVG/1.1/DTD/svg11.dtd"><svg t="1552736467045" class="icon" style="" viewBox="0 0 1025 1024" version="1.1" xmlns="http://www.w3.org/2000/svg" p-id="2372" xmlns:xlink="http://www.w3.org/1999/xlink" width="200.1953125" height="200"><defs><style type="text/css"></style></defs><path d="M870.55869 363.809641l0 169.719689 0 0 73.816075 0 0 0 0-117.352955 0 0 24.609372 17.666591c14.51516 10.094212 35.96106 5.050546 47.950947-11.988167 11.989887-17.035273 9.466334-39.119372-5.048826-49.211863L538.68825 39.50986c-3.784469-3.782749-7.570659-6.309743-11.988167-8.201977-13.878681-8.201977-32.807909-3.154871-44.168198 11.988167l0 0L14.384424 373.903853c-14.51516 10.095932-17.036993 32.178311-5.048826 49.211863 11.988167 17.033553 32.806189 22.084099 47.319629 11.988167l32.178311-22.713697 0 0 0 543.233054c0 20.188424 15.774356 38.484613 35.96106 39.115931 20.821462 0.631318 37.858455-16.403954 37.858455-37.228857L162.653053 360.023451l0 0L511.557045 113.329375l0 0L870.55869 363.809641 870.55869 363.809641z" p-id="2373"></path><path d="M548.151144 401.664656l-80.127538 0c-30.915674 0-37.225417 6.309743-37.225417 37.228857l0 81.388454c0 30.917394 6.309743 37.228857 37.225417 37.228857l80.127538 0c30.917394 0 37.227137-6.309743 37.227137-37.228857l0-81.388454C585.37656 407.974398 579.066818 401.664656 548.151144 401.664656z" p-id="2374"></path><path d="M548.151144 801.044868l-80.127538 0c-30.915674 0-37.225417 6.308022-37.225417 37.228857l0 81.388454c0 30.917394 6.309743 37.227137 37.225417 37.227137l80.127538 0c30.917394 0 37.227137-6.309743 37.227137-37.227137l0-81.388454C585.37656 807.352891 579.066818 801.044868 548.151144 801.044868z" p-id="2375"></path><path d="M548.151144 601.039103l-80.127538 0c-30.915674 0-37.225417 6.309743-37.225417 37.225417l0 82.024933c0 30.917394 6.309743 37.227137 37.225417 37.227137l80.127538 0c30.917394 0 37.227137-6.309743 37.227137-37.227137l0-82.024933C585.37656 607.348845 579.066818 601.039103 548.151144 601.039103z" p-id="2376"></path><path d="M969.613735 801.044868l-80.753695 0c-30.920835 0-37.230577 6.308022-37.230577 37.228857l0 81.388454c0 30.917394 6.309743 37.227137 37.230577 37.227137l80.753695 0c30.919115 0 37.228857-6.309743 37.228857-37.227137l0-81.388454C1006.842592 807.352891 999.898091 801.044868 969.613735 801.044868z" p-id="2377"></path><path d="M758.882439 801.044868l-80.127538 0c-30.917394 0-37.227137 6.308022-37.227137 37.228857l0 81.388454c0 30.917394 6.309743 37.227137 37.227137 37.227137l80.127538 0c30.920835 0 37.228857-6.309743 37.228857-37.227137l0-81.388454C796.111296 807.352891 789.168515 801.044868 758.882439 801.044868z" p-id="2378"></path><path d="M758.882439 601.039103l-80.127538 0c-30.917394 0-37.227137 6.309743-37.227137 37.225417l0 82.024933c0 30.917394 6.309743 37.227137 37.227137 37.227137l80.127538 0c30.920835 0 37.228857-6.309743 37.228857-37.227137l0-82.024933C796.111296 607.348845 789.168515 601.039103 758.882439 601.039103z" p-id="2379"></path></svg>