<?xml version="1.0" standalone="no"?><!DOCTYPE svg PUBLIC "-//W3C//DTD SVG 1.1//EN" "http://www.w3.org/Graphics/SVG/1.1/DTD/svg11.dtd"><svg t="1543308939432" class="icon" style="" viewBox="0 0 1024 1024" version="1.1" xmlns="http://www.w3.org/2000/svg" p-id="5802" xmlns:xlink="http://www.w3.org/1999/xlink" width="200" height="200"><defs><style type="text/css"></style></defs><path d="M824.8 1003.2H203.2c-12.8 0-25.6-2.4-37.6-7.2-11.2-4.8-21.6-12-30.4-20.8-8.8-8.8-16-19.2-20.8-30.4-4.8-12-7.2-24-7.2-37.6V260c0-12.8 2.4-25.6 7.2-37.6 4.8-11.2 12-21.6 20.8-30.4 8.8-8.8 19.2-16 30.4-20.8 12-4.8 24-7.2 37.6-7.2h94.4v48H203.2c-26.4 0-48 21.6-48 48v647.2c0 26.4 21.6 48 48 48h621.6c26.4 0 48-21.6 48-48V260c0-26.4-21.6-48-48-48H730.4v-48H824c12.8 0 25.6 2.4 37.6 7.2 11.2 4.8 21.6 12 30.4 20.8 8.8 8.8 16 19.2 20.8 30.4 4.8 12 7.2 24 7.2 37.6v647.2c0 12.8-2.4 25.6-7.2 37.6-4.8 11.2-12 21.6-20.8 30.4-8.8 8.8-19.2 16-30.4 20.8-11.2 4.8-24 7.2-36.8 7.2z" fill="" p-id="5803"></path><path d="M752.8 308H274.4V152.8c0-32.8 26.4-60 60-60h61.6c22.4-44 67.2-72.8 117.6-72.8 50.4 0 95.2 28.8 117.6 72.8h61.6c32.8 0 60 26.4 60 60v155.2m-430.4-48h382.4V152.8c0-6.4-5.6-12-12-12H598.4l-5.6-16c-12-33.6-43.2-56-79.2-56s-67.2 22.4-79.2 56l-5.6 16H334.4c-6.4 0-12 5.6-12 12v107.2zM432.8 792c-6.4 0-12-2.4-16.8-7.2L252.8 621.6c-4.8-4.8-7.2-10.4-7.2-16.8s2.4-12 7.2-16.8c4.8-4.8 10.4-7.2 16.8-7.2s12 2.4 16.8 7.2L418.4 720c4 4 8.8 5.6 13.6 5.6s10.4-1.6 13.6-5.6l295.2-295.2c4.8-4.8 10.4-7.2 16.8-7.2s12 2.4 16.8 7.2c9.6 9.6 9.6 24 0 33.6L449.6 784.8c-4.8 4-11.2 7.2-16.8 7.2z" fill="" p-id="5804"></path></svg>