<?xml version="1.0" standalone="no"?><!DOCTYPE svg PUBLIC "-//W3C//DTD SVG 1.1//EN" "http://www.w3.org/Graphics/SVG/1.1/DTD/svg11.dtd"><svg t="1557209329732" class="icon" style="" viewBox="0 0 1024 1024" version="1.1" xmlns="http://www.w3.org/2000/svg" p-id="2886" xmlns:xlink="http://www.w3.org/1999/xlink" width="200" height="200"><defs><style type="text/css"></style></defs><path d="M798.573714 845.970286c10.532571 10.532571 20.772571 20.626286 30.866286 30.866285 17.261714 17.261714 34.816 34.523429 51.931429 52.077715 17.554286 17.993143 9.801143 46.957714-14.189715 53.101714-12.288 3.072-22.820571-0.585143-31.597714-9.508571-27.794286-27.940571-55.734857-55.734857-83.382857-83.529143-1.609143-1.609143-2.633143-3.949714-3.218286-4.973715-159.158857 90.258286-316.123429 90.258286-473.965714 0.731429-1.170286 1.024-2.925714 2.633143-4.534857 4.388571-28.086857 28.086857-56.173714 56.466286-84.553143 84.406858-17.554286 17.261714-45.933714 10.386286-52.809143-12.580572-3.803429-12.726857-0.292571-23.698286 8.923429-32.914286 25.6-25.453714 51.053714-51.053714 76.653714-76.507428 1.755429-1.609143 3.949714-2.779429 5.997714-4.388572C118.491429 751.469714 64.365714 634.441143 68.754286 492.982857c3.949714-124.050286 53.394286-228.498286 144.676571-312.612571C389.412571 18.285714 665.892571 28.672 832.073143 202.898286c172.617143 180.809143 162.962286 474.843429-33.499429 643.072zM131.364571 508.196571c0.146286 209.188571 169.984 379.757714 378.294858 379.904 211.090286 0.146286 380.928-168.813714 381.220571-379.318857 0.292571-209.773714-170.130286-380.489143-379.757714-380.196571C301.348571 128.731429 131.364571 298.715429 131.364571 508.196571z m0 0M221.769143 32.914286c5.558857 1.024 11.264 1.316571 16.530286 3.364571 13.604571 5.12 21.796571 19.748571 19.456 33.499429-2.633143 15.506286-14.628571 26.770286-29.988572 27.062857-28.379429 0.585143-54.418286 8.192-76.946286 25.453714-33.353143 25.6-50.029714 59.684571-51.053714 101.668572-0.292571 13.019429-6.436571 22.528-18.139428 28.086857-11.264 5.412571-22.235429 4.096-32.182858-3.218286-8.923429-6.436571-13.165714-15.652571-12.873142-26.624 1.901714-66.998857 30.427429-119.661714 85.723428-157.403429 29.842286-20.187429 63.341714-29.842286 99.474286-31.890285z m0 0M985.819429 220.306286c0.438857 4.973714-0.292571 13.604571-5.705143 21.211428-8.045714 11.264-22.089143 16.384-35.254857 12.288-13.165714-3.949714-22.235429-15.798857-22.381715-30.573714-0.292571-23.698286-6.144-45.933714-18.870857-65.828571-24.868571-38.912-60.854857-58.806857-107.081143-60.416-22.820571-0.731429-37.741714-21.211429-30.427428-42.130286 4.534857-12.873143 16.384-21.357714 30.866285-21.065143 70.802286 1.901714 125.074286 33.060571 162.377143 93.184 16.822857 27.355429 25.014857 57.490286 26.477715 93.330286z m0 0" p-id="2887"></path><path d="M479.670857 413.110857c0-31.451429-0.146286-63.049143 0-94.500571 0.146286-14.189714 8.338286-25.746286 21.211429-30.134857 12.580571-4.242286 26.477714-0.292571 34.962285 10.093714 5.266286 6.582857 7.168 14.189714 7.168 22.674286 0 55.734857 0 111.469714-0.146285 167.350857 0 4.681143 1.316571 8.045714 4.681143 11.410285 37.302857 37.010286 74.313143 74.166857 111.323428 111.323429 14.189714 14.189714 13.897143 35.401143-0.438857 47.542857-12.434286 10.678857-30.281143 10.386286-42.422857-1.170286-8.777143-8.192-17.115429-16.969143-25.6-25.453714-32.621714-32.621714-65.097143-65.389714-98.011429-97.718857-9.069714-8.923429-13.165714-18.870857-13.019428-31.451429 0.585143-29.988571 0.292571-59.977143 0.292571-89.965714z m0 0" p-id="2888"></path></svg>