<?xml version="1.0" standalone="no"?><!DOCTYPE svg PUBLIC "-//W3C//DTD SVG 1.1//EN" "http://www.w3.org/Graphics/SVG/1.1/DTD/svg11.dtd"><svg t="1553475856108" class="icon" style="" viewBox="0 0 1024 1024" version="1.1" xmlns="http://www.w3.org/2000/svg" p-id="2570" xmlns:xlink="http://www.w3.org/1999/xlink" width="200" height="200"><defs><style type="text/css"></style></defs><path d="M511.23570461 589.6722963c-74.2795704 0-136.429835-53.46339499-150.72775132-124.27567408L77.03514076 465.39662222a46.60337778 46.60337778 0 0 1-43.31628622-63.7907035l123.29389625-310.68918518a46.60337778 46.60337778 0 0 1 43.31628621-29.40983828l618.74993985 0a46.61580534 46.61580534 0 0 1 43.09880377 28.86302531l127.88588242 310.68918519a46.61580534 46.61580534 0 0 1-43.09258998 64.34373024l-285.00761716 0c-14.30413008 70.80606529-76.45439468 124.26946029-150.72775129 124.2694603z m-365.56932286-217.48242963l259.57460044 0a46.60337778 46.60337778 0 0 1 46.14355778 53.1527058 64.39344052 64.39344052 0 0 0-0.75808161 8.98513123c0 34.26280333 27.19151749 62.13783703 60.60924625 62.13783705s60.60303246-27.8750337 60.60303246-62.13783705c0-2.52279618-0.23612379-5.35628155-0.75186784-8.93542096a46.60337778 46.60337778 0 0 1 46.137344-53.20862985l260.1649099 0-89.52198182-217.48242964L231.97583739 154.70122325 145.66638175 372.18986667z" p-id="2571"></path><path d="M946.96485925 962.49931853L77.03514075 962.49931853a46.60337778 46.60337778 0 0 1-46.60337778-46.60337778L30.43176297 418.79324445c0-25.74370589 20.85967189-46.60337778 46.60337779-46.60337778s46.60337778 20.85967189 46.60337776 46.60337778l0 450.49931852 776.72296296 0L900.36148148 418.79324445c0-25.74370589 20.85967189-46.60337778 46.60337776-46.60337778s46.60337778 20.85967189 46.60337779 46.60337778l0 497.1026963a46.60337778 46.60337778 0 0 1-46.60337778 46.60337778z" p-id="2572"></path></svg>