<?xml version="1.0" standalone="no"?><!DOCTYPE svg PUBLIC "-//W3C//DTD SVG 1.1//EN" "http://www.w3.org/Graphics/SVG/1.1/DTD/svg11.dtd"><svg t="1551163984486" class="icon" style="" viewBox="0 0 1024 1024" version="1.1" xmlns="http://www.w3.org/2000/svg" p-id="3633" xmlns:xlink="http://www.w3.org/1999/xlink" width="200" height="200"><defs><style type="text/css"></style></defs><path d="M516.394 102.699c10.469 0 19.289 3.592 26.453 10.744L728.91 299.506c7.164 7.164 10.744 15.98 10.744 26.452 0 10.668-3.537 19.532-10.6 26.6-7.072 7.076-15.938 10.608-26.598 10.608-10.475 0-19.299-3.584-26.459-10.748l-122.381-122.68v431.126c0 10.266-3.635 19.041-10.902 26.316-7.277 7.271-16.049 10.908-26.316 10.908-10.281 0-19.049-3.637-26.32-10.908-7.276-7.275-10.92-16.051-10.92-26.316V229.738l-122.364 122.68c-7.56 7.168-16.376 10.748-26.464 10.748-10.28 0-19.04-3.64-26.316-10.908-7.276-7.272-10.916-16.052-10.916-26.32 0-10.084 3.576-18.908 10.744-26.456l186.061-186.063c7.16-7.168 15.992-10.744 26.457-10.744l0.034 0.024z m367.71 520.935c10.264 0 19.045 3.639 26.309 10.912 7.268 7.275 10.912 16.051 10.912 26.328v148.818c0 31.018-10.748 57.277-32.264 78.793-21.896 21.889-48.064 32.84-78.492 32.84H214.303c-30.417 0-56.772-10.855-79.06-32.568-21.716-22.287-32.568-48.643-32.568-79.064V660.874c0-10.285 3.634-19.053 10.908-26.328 7.276-7.273 16.049-10.912 26.321-10.912 10.266 0 19.04 3.639 26.316 10.912 7.273 7.275 10.908 16.051 10.908 26.328v148.818c0 10.27 3.634 19.049 10.914 26.324 7.274 7.273 16.042 10.896 26.318 10.896h596.256c10.076 0 18.656-3.623 25.729-10.896 7.072-7.275 10.611-16.055 10.611-26.324V660.874c0-10.285 3.637-19.053 10.908-26.328 7.277-7.273 16.045-10.912 26.313-10.912h-0.073z" p-id="3634"></path></svg>