<?xml version="1.0" standalone="no"?><!DOCTYPE svg PUBLIC "-//W3C//DTD SVG 1.1//EN" "http://www.w3.org/Graphics/SVG/1.1/DTD/svg11.dtd"><svg t="1552912540418" class="icon" style="" viewBox="0 0 1024 1024" version="1.1" xmlns="http://www.w3.org/2000/svg" p-id="3172" xmlns:xlink="http://www.w3.org/1999/xlink" width="200" height="200"><defs><style type="text/css"></style></defs><path d="M511.104 5.13066667C234.57600001 5.13066667 10.23999999 229.35466667 10.23999999 505.99466667s224.224 500.864 500.86400001 500.86399999 500.976-224.112 500.976-500.86399999S787.856 5.13066667 511.104 5.13066667z m-0.56 940.352c-242.70400001 0-439.488-196.78399999-439.488-439.488S267.84000001 66.39466666 510.544 66.39466666s439.488 196.78399999 439.488 439.488-196.672 439.6-439.488 439.60000001z m0 0" p-id="3173"></path><path d="M576.4 268.44266667h163.52c12.768 0 23.184 10.416 23.184 23.184 0 12.768-10.416 23.184-23.184 23.184h-163.52c-12.768 0-23.184-10.416-23.184-23.184 0-12.768 10.416-23.184 23.184-23.184z m160.60799999 222.656h-55.32799999v256.816c0 12.992-10.528 23.52-23.52 23.52s-23.52-10.528-23.52-23.52V491.09866667h-55.552c-11.536 0-17.808-13.44-10.41600001-22.288l78.28800001-92.96000001c5.376-6.384 15.232-6.384 20.608-0.11199999l79.632 92.96c7.728 8.736 1.456 22.39999999-10.19200001 22.4z m-443.52 34.49600001h55.66400001V268.55466668c0-12.992 10.528-23.52 23.52000001-23.52000001s23.52 10.528 23.51999999 23.52000001V525.70666667H451.52c11.536 0 17.808 13.552 10.30399999 22.4L382.08 640.84266667c-5.488 6.384-15.232 6.27199999-20.608-0.112l-78.288-92.848c-7.504-8.84800001-1.23199999-22.288 10.30399999-22.28799999z m160.83200002 220.07999999h-163.52000001c-12.768 0-23.184-10.416-23.184-23.184 0-12.768 10.416-23.184 23.184-23.184h163.52000001c12.768 0 23.184 10.416 23.184 23.184 0 12.768-10.416 23.184-23.184 23.184z m23.184 0" p-id="3174"></path></svg>