<?xml version="1.0" standalone="no"?><!DOCTYPE svg PUBLIC "-//W3C//DTD SVG 1.1//EN" "http://www.w3.org/Graphics/SVG/1.1/DTD/svg11.dtd"><svg t="1555986212225" class="icon" style="" viewBox="0 0 1024 1024" version="1.1" xmlns="http://www.w3.org/2000/svg" p-id="531" xmlns:xlink="http://www.w3.org/1999/xlink" width="200" height="200"><defs><style type="text/css"></style></defs><path d="M561.288533 68.539733C617.403733 68.130133 673.655467 68.266667 729.9072 68.266667c-12.970667 26.2144-25.8048 52.565333-38.912 78.6432 142.9504 70.0416 237.704533 226.9184 226.5088 386.6624-7.918933 192.512-171.758933 358.263467-361.6768 379.016533 40.413867-84.104533 81.92-167.5264 123.2896-251.0848 27.4432-0.136533 54.8864 0 82.466133 0.136533 46.148267-78.506667 55.7056-178.039467 19.524267-262.280533-25.941333-65.536-78.916267-116.462933-139.264-150.869333-31.5392 61.576533-61.576533 124.1088-92.16 186.231466 54.8864 0.136533 109.7728 0 164.6592 0.273067-84.7872 172.714667-169.847467 345.2928-254.907733 518.007467H293.6832c13.1072-26.487467 26.077867-52.974933 39.048533-79.325867-81.5104-40.413867-150.3232-106.632533-189.508266-188.962133-55.022933-113.0496-54.613333-252.7232 7.236266-362.9056C211.626667 204.117333 333.960533 123.562667 465.032533 107.7248c-39.458133 81.646933-79.872 162.884267-120.0128 244.258133-27.0336 0-54.0672-0.136533-81.1008-0.273066-52.8384 83.1488-61.986133 192.9216-18.432 281.941333 27.716267 60.6208 78.779733 106.9056 135.9872 139.400533 31.812267-61.576533 61.8496-124.1088 92.296534-186.368-55.7056-0.273067-111.4112-0.136533-167.253334-0.273066C391.304533 413.696 476.637867 241.2544 561.288533 68.539733z" p-id="532"></path></svg>