<?xml version="1.0" standalone="no"?><!DOCTYPE svg PUBLIC "-//W3C//DTD SVG 1.1//EN" "http://www.w3.org/Graphics/SVG/1.1/DTD/svg11.dtd"><svg t="1561949712187" class="icon" viewBox="0 0 1024 1024" version="1.1" xmlns="http://www.w3.org/2000/svg" p-id="845" width="200" height="200" xmlns:xlink="http://www.w3.org/1999/xlink"><defs><style type="text/css"></style></defs><path d="M576 384H461.44l72.96-73.6-45.44-45.44L338.56 416l151.04 150.4 45.44-45.44L461.44 448H576a96 96 0 0 1 0 192H320v64h256a160 160 0 0 0 0-320z" fill="#ffffff" p-id="846"></path><path d="M512 32A480 480 0 1 0 992 512 480.64 480.64 0 0 0 512 32z m0 896A416 416 0 1 1 928 512 416.64 416.64 0 0 1 512 928z" fill="#ffffff" p-id="847"></path></svg>