<?xml version="1.0" standalone="no"?><!DOCTYPE svg PUBLIC "-//W3C//DTD SVG 1.1//EN" "http://www.w3.org/Graphics/SVG/1.1/DTD/svg11.dtd"><svg t="1554686009326" class="icon" style="" viewBox="0 0 1024 1024" version="1.1" xmlns="http://www.w3.org/2000/svg" p-id="2577" xmlns:xlink="http://www.w3.org/1999/xlink" width="200" height="200"><defs><style type="text/css"></style></defs><path d="M573.672618 467.900619l275.258111 0 0 41.811268L573.672618 509.711887 573.672618 467.900619 573.672618 467.900619 573.672618 467.900619M573.672618 467.900619 573.672618 467.900619z" p-id="2578"></path><path d="M573.672618 384.137891l275.258111 0 0 41.814338L573.672618 425.952228 573.672618 384.137891 573.672618 384.137891 573.672618 384.137891M573.672618 384.137891 573.672618 384.137891z" p-id="2579"></path><path d="M886.578164 827.701219 133.814682 827.701219c-39.289841 0-71.254857-31.965016-71.254857-71.254857L62.559824 307.637566c0-39.289841 31.965016-71.254857 71.254857-71.254857l752.763482 0c39.289841 0 74.324776 31.965016 74.324776 71.254857l0 448.809819C960.90294 795.737226 925.869029 827.701219 886.578164 827.701219L886.578164 827.701219zM133.814682 278.29733c-16.178471 0-29.340235 13.162788-29.340235 29.340235l0 448.809819c0 16.177448 13.161764 29.340235 29.340235 29.340235l752.763482 0c16.178471 0 32.410154-13.162788 32.410154-29.340235L918.988318 307.637566c0-16.177448-16.231683-29.340235-32.410154-29.340235L133.814682 278.29733 133.814682 278.29733z" p-id="2580"></path><path d="M172.298158 574.992683l313.946248 0 0 33.794687-130.758066 0 0 33.794687c0 10.526751-2.605338 18.580171-7.817036 24.162306-5.211698 5.578042-13.292748 8.6848-24.241101 9.31618-10.9504 0.63138-26.056446 0.947582-45.323255 0.947582-2.738367-13.896498-5.475711-25.689079-8.212032-35.373649 11.789511 0.63138 22.424732 0.947582 31.900547 0.947582 7.367805 0 11.054777-4.52813 11.054777-13.580297l0-20.214391-52.745295 0 20.213367 27.16264-86.856184 39.796378c-7.579629-13.05534-15.056927-24.635073-22.424732-34.742269 18.422581-5.369288 45.639456-16.107863 81.645508-32.215726L172.298158 608.788393 172.298158 574.992683zM191.564967 430.337095l78.012771 0 0-19.581987-89.067548 0 0-32.848129 297.207006 0 0 32.848129-88.435145 0 0 19.581987 78.32795 0 0 82.434477L191.564967 512.771573 191.564967 430.337095zM194.72289 527.931854l269.096784 0 0 31.268144L194.72289 559.199998 194.72289 527.931854zM232.307903 482.45101l37.268812 0 0-21.793352-37.268812 0L232.307903 482.45101zM310.636876 430.337095l37.585013 0 0-19.581987-37.585013 0L310.636876 430.337095zM310.636876 482.45101l37.585013 0 0-21.793352-37.585013 0L310.636876 482.45101zM393.702734 609.734952c26.530236 9.05626 56.323796 19.583011 89.38375 31.584346l-18.634406 33.163307c-25.267477-10.738575-54.746882-22.424732-88.435145-35.05847L393.702734 609.734952zM426.866041 482.45101l0-21.793352-37.585013 0 0 21.793352L426.866041 482.45101z" p-id="2581"></path><path d="M771.793908 753.282299c-60.889789 0-108.586091-28.818349-108.586091-65.608254s47.696302-65.609277 108.586091-65.609277 108.587114 28.819372 108.587114 65.609277S832.683696 753.282299 771.793908 753.282299zM771.793908 642.530892c-24.540929 0-47.456848 5.29254-64.526619 14.902408-15.214517 8.567119-23.594371 19.306718-23.594371 30.240745s8.378831 21.673625 23.594371 30.239721c17.069771 9.610892 39.984666 14.902408 64.526619 14.902408s47.456848-5.29254 64.526619-14.902408c15.21554-8.566096 23.595394-19.305695 23.595394-30.239721s-8.378831-21.673625-23.595394-30.240745C819.250756 647.823432 796.334837 642.530892 771.793908 642.530892z" p-id="2582"></path></svg>