<?xml version="1.0" standalone="no"?><!DOCTYPE svg PUBLIC "-//W3C//DTD SVG 1.1//EN" "http://www.w3.org/Graphics/SVG/1.1/DTD/svg11.dtd"><svg t="1557022301394" class="icon" style="" viewBox="0 0 1024 1024" version="1.1" xmlns="http://www.w3.org/2000/svg" p-id="1687" xmlns:xlink="http://www.w3.org/1999/xlink" width="200" height="200"><defs><style type="text/css"></style></defs><path d="M642.162502 694.107571l0-59.213613c0-6.913457 5.596462-12.507872 12.508895-12.507872l133.845381 0c6.91448 0 12.508895 5.594415 12.508895 12.507872l0 59.213613c0 6.912433-5.594415 12.507872-12.508895 12.507872L654.670373 706.615443C647.758963 706.615443 642.162502 701.021028 642.162502 694.107571zM917.801283 762.256694 917.801283 261.934664c0-33.230845-27.034726-60.265572-60.265572-60.265572L157.085688 201.669092c-33.229822 0-60.264549 27.034726-60.264549 60.265572l0 500.32203c0 33.229822 27.034726 60.264549 60.264549 60.264549l700.451046 0C890.766556 822.520219 917.801283 795.486516 917.801283 762.256694zM885.110743 399.008576l0 363.247094c0 15.204283-12.369725 27.574009-27.574009 27.574009L157.085688 789.829679c-15.20326 0-27.572986-12.369725-27.572986-27.574009L129.512702 399.008576 885.110743 399.008576zM117.287263 261.934664c0-21.944801 17.8526-39.799448 39.798425-39.799448l700.451046 0c21.944801 0 39.799448 17.853623 39.799448 39.799448l0 39.860846L117.287263 301.795511 117.287263 261.934664z" p-id="1688"></path></svg>