<?xml version="1.0" standalone="no"?><!DOCTYPE svg PUBLIC "-//W3C//DTD SVG 1.1//EN" "http://www.w3.org/Graphics/SVG/1.1/DTD/svg11.dtd"><svg t="1554630399322" class="icon" style="" viewBox="0 0 1024 1024" version="1.1" xmlns="http://www.w3.org/2000/svg" p-id="1220" xmlns:xlink="http://www.w3.org/1999/xlink" width="200" height="200"><defs><style type="text/css"></style></defs><path d="M768 192H256c-38.4 0-64 25.6-64 64v576c0 38.4 25.6 64 64 64h512c38.4 0 64-25.6 64-64V256c0-38.4-25.6-64-64-64z m32 627.2c0 25.6-19.2 51.2-51.2 51.2h-480c-25.6 0-51.2-19.2-51.2-51.2V268.8c0-25.6 19.2-51.2 51.2-51.2h480c25.6 0 51.2 19.2 51.2 51.2v550.4zM704 192H320c0-38.4 25.6-64 64-64h256c38.4 0 64 25.6 64 64zM473.6 665.6c6.4 6.4 19.2 12.8 32 12.8 6.4 0 12.8 0 12.8-6.4 6.4 0 6.4-6.4 6.4-6.4s0-6.4-6.4-6.4c0 0-12.8-6.4-19.2-12.8-19.2-6.4-25.6-19.2-25.6-32s6.4-19.2 12.8-25.6c6.4-6.4 19.2-12.8 32-12.8s19.2 0 25.6 6.4V608c-6.4-6.4-12.8-12.8-25.6-12.8-6.4 0-12.8 0-12.8 6.4-6.4 0-6.4 6.4-6.4 6.4s0 6.4 6.4 6.4c0 0 6.4 6.4 19.2 12.8 12.8 6.4 19.2 12.8 25.6 12.8 6.4 6.4 6.4 12.8 6.4 19.2 0 12.8-6.4 19.2-12.8 25.6-6.4 6.4-19.2 6.4-32 6.4s-25.6 0-32-6.4v-19.2z m25.6-115.2h25.6v32h-25.6v-32z m0 140.8h25.6v32h-25.6v-32zM512 492.8c-76.8 0-140.8 64-140.8 140.8s64 140.8 140.8 140.8 140.8-64 140.8-140.8-64-140.8-140.8-140.8z m0 275.2c-70.4 0-128-57.6-128-128s57.6-128 128-128 128 57.6 128 128-57.6 128-128 128z m-25.6-409.6h44.8V448h-44.8v-89.6z m76.8 0H460.8c-6.4 0-12.8-12.8-6.4-19.2l51.2-57.6c6.4-6.4 12.8-6.4 19.2 0l51.2 57.6c0 6.4-6.4 19.2-12.8 19.2z" p-id="1221"></path></svg>