<?xml version="1.0" standalone="no"?><!DOCTYPE svg PUBLIC "-//W3C//DTD SVG 1.1//EN" "http://www.w3.org/Graphics/SVG/1.1/DTD/svg11.dtd"><svg t="1557059663966" class="icon" style="" viewBox="0 0 1024 1024" version="1.1" xmlns="http://www.w3.org/2000/svg" p-id="1870" xmlns:xlink="http://www.w3.org/1999/xlink" width="200" height="200"><defs><style type="text/css"></style></defs><path d="M537.239437 25.239437c-180.28169 0-338.929577 97.352113-418.253522 245.183098l-118.985915-118.985915v331.71831h331.71831l-144.225352-144.225353c64.901408-129.802817 194.704225-216.338028 349.746479-216.338028 209.126761 0 382.197183 173.070423 382.197183 382.197183s-173.070423 385.802817-382.197183 385.802817c-169.464789 0-306.478873-108.169014-364.169014-256h-108.169015c57.690141 205.521127 245.183099 356.957746 472.338029 356.957747 270.422535 0 486.760563-219.943662 486.760563-486.760564s-219.943662-479.549296-486.760563-479.549295z m-75.71831 256v259.605633l241.577465 144.225353 39.661971-64.901409-205.521126-122.591549v-216.338028h-75.71831z" p-id="1871"></path></svg>