<?xml version="1.0" standalone="no"?><!DOCTYPE svg PUBLIC "-//W3C//DTD SVG 1.1//EN" "http://www.w3.org/Graphics/SVG/1.1/DTD/svg11.dtd"><svg t="1551701014708" class="icon" style="" viewBox="0 0 1024 1024" version="1.1" xmlns="http://www.w3.org/2000/svg" p-id="1788" xmlns:xlink="http://www.w3.org/1999/xlink" width="200" height="200"><defs><style type="text/css"></style></defs><path d="M991.121172 483.272725c0-266.484284-216.788441-483.272725-483.272725-483.272725S24.575722 216.788441 24.575722 483.272725c0 127.428228 49.938366 243.160065 130.811278 329.597717L155.387 1023.3809l109.73424 0.373507 115.0145-0.367367 0.007163-74.494645c40.755216 11.19804 83.442434 17.680684 127.705544 17.680684 43.615357 0 85.689614-6.333242 125.908618-17.216103l0.007163 74.031087 115.01143 0.367367 109.738333-0.373507L858.513992 814.847469C940.466492 728.20925 991.121172 611.660814 991.121172 483.272725zM324.643891 965.039143 209.16174 965.039143 209.16174 862.466c34.975583 27.610848 73.691349 50.609655 115.482151 67.802222L324.643891 965.039143zM81.307817 483.272725c0-235.18237 191.359282-426.540629 426.540629-426.540629s426.540629 191.359282 426.540629 426.540629c0 235.21-191.359282 426.568259-426.540629 426.568259S81.307817 718.482725 81.307817 483.272725zM689.251983 965.039143l0-34.110889c41.759079-16.983813 80.474846-39.74112 115.486244-67.119677l0 101.230566L689.251983 965.039143zM390.354476 210.737632c-18.653849-3.752464-41.697681-11.828396-62.308091-21.829168-4.935406 33.653471-20.547988 94.106308-36.089963 131.47745-22.438035 54.201459-69.590961 128.039141-99.460246 161.66089 17.436114 11.863189 35.933397 12.766768 44.652989 27.094078 20.543895-29.263487 35.477003-51.057863 54.806233-88.463798l0 204.364481c0 44.841278-3.108804 98.432847-6.892991 133.944642l56.091506 0L341.153914 315.387064c19.330254-39.23356 42.373063-78.497818 49.874921-85.964884C404.072919 216.34535 403.464051 213.236546 390.354476 210.737632zM551.131229 611.963713c-19.330254-6.248308-36.765345-14.32731-55.486732-23.683399-19.935028 39.870056-82.851986 114.006544-129.551588 142.661164 26.155706 6.861268 47.984874 20.579711 53.592592 32.407084 99.006921-110.901833 118.333082-129.587404 127.728056-133.948735C566.063313 621.293195 565.458539 616.326067 551.131229 611.963713zM663.856593 377.695155c36.761252 0.64059 66.701145 3.108804 91.639117 5.607718l0-54.842049c-25.546839 2.503007-54.876842 5.001921-91.639117 5.611811L663.856593 241.892189c0-20.579711 2.498914-32.404014 8.715499-36.156478 8.78713-4.967128 8.110725-9.969049-2.432399-9.969049-23.110347 0-37.437657-0.604774-56.091506-3.713578 1.89414 13.682627 2.498914 43.587728 2.498914 97.179296l0 44.841278-89.13918 0 0-91.571578c0-20.543895 2.503007-32.408107 8.78713-36.120662 8.719592-5.001921 8.04421-9.969049-2.498914-9.969049-23.046902 0.608867-38.050618-0.644683-56.700373-3.752464 1.823532 14.32731 2.498914 31.763424 2.498914 97.18339l0 44.231387c-29.939893-1.217734-55.482639-3.108804-81.638345-5.611811l0 54.842049c26.155706-2.498914 51.092655-4.358261 81.638345-4.967128l0 139.556453c-38.655392-0.64059-69.204152-2.498914-96.574522-5.607718l0 56.665581c46.090734-4.358261 110.901833-6.216585 196.256826-6.216585s150.771889 1.858324 196.862623 6.216585l0-56.665581c-32.438806 3.713578-65.416895 5.607718-112.183012 5.607718L663.856593 377.695155zM616.547101 517.89322l-89.13918 0L527.407921 377.695155l89.13918 0L616.547101 517.89322zM652.637064 592.028685l-42.306548 31.763424c36.089963 32.404014 84.070744 90.962711 111.5107 131.445728l49.804313-42.373063C730.557738 664.915715 698.794313 633.761158 652.637064 592.028685z" p-id="1789"></path></svg>