<?xml version="1.0" standalone="no"?><!DOCTYPE svg PUBLIC "-//W3C//DTD SVG 1.1//EN" "http://www.w3.org/Graphics/SVG/1.1/DTD/svg11.dtd"><svg t="1545357695713" class="icon" style="" viewBox="0 0 1024 1024" version="1.1" xmlns="http://www.w3.org/2000/svg" p-id="1648" xmlns:xlink="http://www.w3.org/1999/xlink" width="200" height="200"><defs><style type="text/css"></style></defs><path d="M631.615776 204.927616c-4.543991 23.551956-8.895983 45.759914-7.999985 67.967872a52.671901 52.671901 0 0 0 52.735901 51.135904l222.271583-1.919996a116.991781 116.991781 0 0 1 117.31178 127.743761l-44.287917 468.287121A116.479782 116.479782 0 0 1 855.295356 1023.99808H124.416727a116.927781 116.927781 0 0 1-116.799781-116.799781V512.19104c0-64.447879 52.415902-116.863781 116.799781-116.863781h39.615925c56.063895 0 116.671781-11.135979 137.279743-36.031933 37.18393-44.863916 66.175876-102.271808 86.271838-170.49568 5.11999-17.407967 8.895983-35.263934 12.671977-52.991901l5.439989-25.279952c4.287992-20.735961 9.215983-44.223917 23.359957-65.023878A108.543796 108.543796 0 0 1 500.032022 1.535997 114.943784 114.943784 0 0 1 565.759899 10.239981c32.25594 14.527973 55.935895 44.223917 66.751875 83.583843 4.223992 15.359971 6.591988 31.99994 6.847987 49.535907 0.447999 19.839963-3.071994 37.50393-6.399988 54.591898M124.416727 459.391139a52.927901 52.927901 0 0 0-52.799901 52.863901v394.943259c0 29.119945 23.679956 52.799901 52.799901 52.799901h730.878629a52.479902 52.479902 0 0 0 52.543902-47.80791l44.287917-468.287122a52.351902 52.351902 0 0 0-13.567975-40.575924 52.159902 52.159902 0 0 0-38.975927-17.279968l-222.271583 1.919997a116.735781 116.735781 0 0 1-117.695779-112.703789c-1.087998-29.439945 4.159992-56.447894 9.215982-82.559845l1.343998-7.103987c2.943994-14.975972 5.50399-27.967948 5.18399-41.023923a132.671751 132.671751 0 0 0-4.607991-33.791937c-3.263994-12.031977-11.711978-33.343937-31.359941-42.239921a50.559905 50.559905 0 0 0-28.735946-3.903992 45.183915 45.183915 0 0 0-28.671947 16.895968c-7.039987 10.239981-10.175981 25.663952-13.631974 41.983921l-5.50399 25.599952c-4.095992 19.327964-8.319984 38.719927-13.887974 57.663892-22.527958 76.607856-55.679896 141.695734-98.367815 193.343638-44.287917 53.5039-142.079734 59.263889-182.015659 59.263889h-44.159917z" p-id="1649"></path><path d="M208.960568 990.398143a31.99994 31.99994 0 0 1-31.99994-31.99994V460.991136a31.99994 31.99994 0 0 1 63.99988 0v497.407067a31.99994 31.99994 0 0 1-31.99994 31.99994z" p-id="1650"></path></svg>