<?xml version="1.0" standalone="no"?><!DOCTYPE svg PUBLIC "-//W3C//DTD SVG 1.1//EN" "http://www.w3.org/Graphics/SVG/1.1/DTD/svg11.dtd"><svg t="1558332240492" class="icon" style="" viewBox="0 0 1024 1024" version="1.1" xmlns="http://www.w3.org/2000/svg" p-id="775" xmlns:xlink="http://www.w3.org/1999/xlink" width="200" height="200"><defs><style type="text/css"></style></defs><path d="M553.890909 1024H123.345455C55.854545 1024 0 970.472727 0 905.309091V118.690909C0 53.527273 55.854545 0 123.345455 0h779.636363C970.472727 0 1024 53.527273 1024 118.690909v402.618182c0 9.309091-6.981818 18.618182-18.618182 18.618182s-18.618182-6.981818-18.618182-18.618182V118.690909c0-46.545455-39.563636-83.781818-88.436363-83.781818H123.345455c-48.872727 0-88.436364 37.236364-88.436364 83.781818v786.618182c0 46.545455 39.563636 83.781818 88.436364 83.781818h430.545454c9.309091 0 18.618182 6.981818 18.618182 18.618182s-9.309091 16.290909-18.618182 16.290909z" p-id="776"></path><path d="M819.2 216.436364H202.472727c-9.309091 0-16.290909-9.309091-16.290909-18.618182s6.981818-18.618182 18.618182-18.618182h616.727273c9.309091 0 18.618182 6.981818 18.618182 18.618182s-11.636364 18.618182-20.945455 18.618182zM819.2 404.945455H202.472727c-9.309091 0-16.290909-9.309091-16.290909-18.618182s6.981818-18.618182 18.618182-18.618182h616.727273c9.309091 0 18.618182 6.981818 18.618182 18.618182s-11.636364 18.618182-20.945455 18.618182zM902.981818 744.727273H630.690909c-9.309091 0-18.618182-6.981818-18.618182-18.618182s6.981818-18.618182 18.618182-18.618182h272.290909c9.309091 0 18.618182 6.981818 18.618182 18.618182s-9.309091 18.618182-18.618182 18.618182z" p-id="777"></path><path d="M902.981818 744.727273c-4.654545 0-9.309091-2.327273-11.636363-4.654546L814.545455 660.945455c-6.981818-6.981818-6.981818-18.618182 0-25.6s18.618182-6.981818 25.6 0l76.8 76.8c6.981818 6.981818 6.981818 18.618182 0 25.6-4.654545 4.654545-9.309091 6.981818-13.963637 6.981818zM902.981818 826.181818H630.690909c-9.309091 0-18.618182-6.981818-18.618182-18.618182s6.981818-18.618182 18.618182-18.618181h272.290909c9.309091 0 18.618182 6.981818 18.618182 18.618181s-9.309091 18.618182-18.618182 18.618182z" p-id="778"></path><path d="M709.818182 907.636364c-4.654545 0-9.309091-2.327273-11.636364-4.654546l-79.127273-79.127273c-6.981818-6.981818-6.981818-18.618182 0-25.6s18.618182-6.981818 25.6 0l79.127273 79.127273c6.981818 6.981818 6.981818 18.618182 0 25.6-4.654545 2.327273-9.309091 4.654545-13.963636 4.654546zM488.727273 593.454545H202.472727c-9.309091 0-18.618182-6.981818-18.618182-18.618181s9.309091-16.290909 18.618182-16.290909H488.727273c9.309091 0 18.618182 6.981818 18.618182 18.618181s-9.309091 16.290909-18.618182 16.290909zM409.6 784.290909H202.472727c-9.309091 0-18.618182-6.981818-18.618182-18.618182s6.981818-18.618182 18.618182-18.618182h207.127273c9.309091 0 18.618182 6.981818 18.618182 18.618182s-9.309091 18.618182-18.618182 18.618182z" p-id="779"></path><path d="M768 1024c-141.963636 0-256-116.363636-256-256s116.363636-256 256-256 256 116.363636 256 256-114.036364 256-256 256z m0-477.090909c-123.345455 0-221.090909 100.072727-221.090909 221.090909s100.072727 221.090909 221.090909 221.090909 221.090909-100.072727 221.090909-221.090909-97.745455-221.090909-221.090909-221.090909z" p-id="780"></path></svg>