<?xml version="1.0" standalone="no"?><!DOCTYPE svg PUBLIC "-//W3C//DTD SVG 1.1//EN" "http://www.w3.org/Graphics/SVG/1.1/DTD/svg11.dtd"><svg t="1554947538007" class="icon" style="" viewBox="0 0 1024 1024" version="1.1" xmlns="http://www.w3.org/2000/svg" p-id="2002" xmlns:xlink="http://www.w3.org/1999/xlink" width="200" height="200"><defs><style type="text/css"></style></defs><path d="M1022.937 591.727c-0.015-0.624-0.045-1.246-0.059-1.869a202.89 202.89 0 0 0-0.138-3.519c-0.034-0.771-0.083-1.535-0.122-2.295a205.457 205.457 0 0 0-0.618-8.152c-0.084-0.965-0.177-1.936-0.28-2.901-0.059-0.584-0.133-1.167-0.201-1.751-10.765-94.711-79.78-171.741-170.355-194.394C836.513 245.87 690.423 142.942 512 142.942c-178.419 0-324.513 102.928-339.164 233.905-90.57 22.652-159.586 99.678-170.35 194.394-0.064 0.578-0.138 1.167-0.202 1.751-0.103 0.965-0.196 1.931-0.279 2.896a200.95 200.95 0 0 0-0.427 5.143c-0.069 1-0.133 2.005-0.191 3.011-0.04 0.764-0.089 1.529-0.123 2.294a276.597 276.597 0 0 0-0.137 3.524c-0.015 0.617-0.045 1.241-0.059 1.864-0.043 1.812-0.068 3.63-0.068 5.443v113.556c0 31.358 25.417 56.78 56.775 56.78h59.644c13.157 64.79 70.412 113.555 139.085 113.555 0.322 0 0.651-0.01 0.98-0.01 0.265 0 0.525 0.01 0.794 0.01 68.666 0 125.947-48.765 139.098-113.555h231.047c13.151 64.79 70.407 113.555 139.08 113.555 0.328 0 0.651-0.005 0.98-0.01 0.265 0 0.53 0.01 0.794 0.01 68.673 0 125.947-48.765 139.103-113.555h57.844c31.359 0 56.775-25.417 56.775-56.775V597.172a201.08 201.08 0 0 0-0.062-5.445zM792.655 370.053H538.633V200.611c129.094 8.602 235.208 79.034 254.022 169.442zM481.853 200.87v169.182H231.354c18.638-89.584 122.997-159.545 250.499-169.182zM343.16 745.714a57.235 57.235 0 0 0-3.22 10.49c-7.946 39.128-42.54 67.603-82.472 68.054-46.589-0.435-84.359-38.456-84.359-85.147 0-46.956 38.207-85.162 85.169-85.162s85.167 38.206 85.167 85.162a83.88 83.88 0 0 1-0.285 6.603z m511.004 0a56.734 56.734 0 0 0-3.22 10.49c-7.946 39.128-42.544 67.603-82.472 68.054-46.589-0.435-84.358-38.456-84.358-85.147 0-46.956 38.206-85.162 85.162-85.162 46.961 0 85.167 38.206 85.167 85.162a83.408 83.408 0 0 1-0.279 6.603z m54.217-34.991c-13.152-64.795-70.431-113.556-139.103-113.556-68.688 0-125.972 48.785-139.11 113.595-0.583-0.015-1.161-0.039-1.749-0.039H397.376c-13.147-64.795-70.432-113.556-139.098-113.556-68.688 0-125.977 48.785-139.11 113.595-0.584-0.015-1.162-0.039-1.749-0.039H57.78V597.167c0-1.343 0.02-2.686 0.049-4.025 0.015-0.499 0.034-1.004 0.049-1.505 0.044-1.461 0.108-2.921 0.196-4.382l0.118-1.838c0.054-0.784 0.108-1.569 0.177-2.348 0.029-0.363 0.064-0.72 0.098-1.083 6.382-71.216 57.281-131.418 128.148-149.281a57.609 57.609 0 0 0 7.465-2.451 170.254 170.254 0 0 1 34.031-3.422h567.785c11.647 0 23.029 1.177 34.03 3.422a58.083 58.083 0 0 0 7.47 2.451c70.864 17.862 121.761 78.069 128.143 149.281l0.103 1.083c0.064 0.779 0.118 1.564 0.177 2.348 0.034 0.612 0.079 1.226 0.113 1.838 0.039 0.653 0.073 1.299 0.108 1.951 0.034 0.808 0.064 1.618 0.088 2.431 0.015 0.496 0.039 1 0.049 1.505 0.03 1.339 0.049 2.682 0.049 4.025v113.556h-57.845z m0 0" p-id="2003"></path></svg>