<?xml version="1.0" standalone="no"?><!DOCTYPE svg PUBLIC "-//W3C//DTD SVG 1.1//EN" "http://www.w3.org/Graphics/SVG/1.1/DTD/svg11.dtd"><svg t="1557193585236" class="icon" style="" viewBox="0 0 1067 1024" version="1.1" xmlns="http://www.w3.org/2000/svg" p-id="1463" xmlns:xlink="http://www.w3.org/1999/xlink" width="208.3984375" height="200"><defs><style type="text/css"></style></defs><path d="M1051.497156 390.520657a27.493789 27.493789 0 0 0-30.860376-21.321714 128.491381 128.491381 0 0 1-129.613577-62.842946 130.174675 130.174675 0 0 1 9.538662-144.202118 27.493789 27.493789 0 0 0-2.805489-37.593548A540.337119 540.337119 0 0 0 686.783628 1.118829a28.615984 28.615984 0 0 0-34.226962 16.271834A128.491381 128.491381 0 0 1 533.042848 99.87203 128.491381 128.491381 0 0 1 413.529031 18.512859 28.615984 28.615984 0 0 0 379.302069 1.118829 540.337119 540.337119 0 0 0 168.329321 124.560331a27.493789 27.493789 0 0 0 0 37.593548 130.174675 130.174675 0 0 1 9.538661 144.202118A127.369186 127.369186 0 0 1 46.010014 369.198943a27.493789 27.493789 0 0 0-31.421473 21.321714A547.070292 547.070292 0 0 0 0 512.839963a538.653826 538.653826 0 0 0 14.588541 121.758209 28.054887 28.054887 0 0 0 31.421473 21.321714A129.052479 129.052479 0 0 1 168.329321 862.96495 27.493789 27.493789 0 0 0 168.329321 898.875205a533.603946 533.603946 0 0 0 210.972748 122.319306 28.054887 28.054887 0 0 0 34.226962-16.271834 129.052479 129.052479 0 0 1 239.027635 0 28.054887 28.054887 0 0 0 25.810496 17.39403 21.882812 21.882812 0 0 0 8.416466 0A533.603946 533.603946 0 0 0 897.756376 898.875205a27.493789 27.493789 0 0 0 2.805489-37.593548 129.052479 129.052479 0 0 1 120.074915-207.045064 27.493789 27.493789 0 0 0 30.860376-21.321714A538.653826 538.653826 0 0 0 1066.085697 512.839963a547.070292 547.070292 0 0 0-14.588541-122.319306z m-49.937699 208.16726A185.162253 185.162253 0 0 0 841.646603 875.3091a471.322097 471.322097 0 0 1-148.6909 86.409051 185.162253 185.162253 0 0 0-319.825709 0A471.322097 471.322097 0 0 1 224.439094 875.3091a185.162253 185.162253 0 0 0-159.912854-276.621183A453.928068 453.928068 0 0 1 56.109774 512.839963a459.539045 459.539045 0 0 1 8.416466-86.409051A183.478959 183.478959 0 0 0 224.439094 334.410884a185.162253 185.162253 0 0 0 0-184.601155 482.544052 482.544052 0 0 1 148.6909-86.409052A184.601155 184.601155 0 0 0 533.042848 155.981804a184.601155 184.601155 0 0 0 159.912855-92.581127A482.544052 482.544052 0 0 1 841.646603 149.809729a185.162253 185.162253 0 0 0 0 184.601155 183.478959 183.478959 0 0 0 159.351756 92.020028A459.539045 459.539045 0 0 1 1009.975923 512.839963a453.928068 453.928068 0 0 1-8.416466 85.847954z" p-id="1464"></path><path d="M533.042848 327.677711a185.162253 185.162253 0 1 0 185.162253 185.162252 185.162253 185.162253 0 0 0-185.162253-185.162252z m0 314.214731a129.052479 129.052479 0 1 1 129.052479-129.052479 129.052479 129.052479 0 0 1-129.052479 129.052479z" p-id="1465"></path></svg>