<?xml version="1.0" standalone="no"?><!DOCTYPE svg PUBLIC "-//W3C//DTD SVG 1.1//EN" "http://www.w3.org/Graphics/SVG/1.1/DTD/svg11.dtd"><svg t="1553518603037" class="icon" style="" viewBox="0 0 1024 1024" version="1.1" xmlns="http://www.w3.org/2000/svg" p-id="2906" xmlns:xlink="http://www.w3.org/1999/xlink" width="200" height="200"><defs><style type="text/css"></style></defs><path d="M209.126761 923.042254a43.267606 43.267606 0 0 1-43.267606-43.267606V129.802817a43.267606 43.267606 0 0 1 43.267606-43.267606h605.746478a43.267606 43.267606 0 0 1 43.267606 43.267606v389.408451a43.267606 43.267606 0 1 0 86.535211 0V129.802817a129.802817 129.802817 0 0 0-129.802817-129.802817H209.126761a129.802817 129.802817 0 0 0-129.802817 129.802817v749.971831a129.802817 129.802817 0 0 0 129.802817 129.802817h245.183098a43.267606 43.267606 0 1 0 0-86.535211H209.126761z m302.873239-127.509634c0-120.860845 96.674254-218.789859 215.732282-218.631212 119.058028 0.17307 215.227493 98.217465 215.09769 219.294648-0.129803 120.572394-96.587718 218.05431-215.761127 218.025465C608.19831 1014.207099 512 916.379042 512 795.53262z m43.267606-1.08169c-0.216338 96.256 76.727887 174.974197 171.282028 175.262647 94.943549 0.259606 172.810817-77.780732 173.012732-173.503098C899.821972 699.146817 822.949859 620.414197 727.616901 620.169014 633.149296 619.952676 555.483944 698.440113 555.267606 794.45093z m151.624112-516.398874H317.353465c-48.690479 0-46.656901-65.910986 0-65.910986 127.812507-0.028845 339.823775-0.028845 389.538253 0 51.733634 0.043268 44.623324 65.910986 0 65.910986z m23.681803 487.395155c10.614986 11.595718 62.305352 66.603268 72.862648 78.227831 10.860169 11.927437 6.533408 31.037296-8.033352 35.969803-7.413183 2.509521-14.39369 1.096113-19.989634-4.716169-14.061972-14.653296-71.002141-73.309746-84.847775-88.222648-3.706592-3.98062-5.480563-9.014085-5.480563-14.682141 0-29.075831-0.072113-58.166085 0.05769-87.256338 0.086535-12.11493 8.999662-21.287662 20.19155-21.330929 11.32169-0.043268 22.58569 9.316958 22.715492 21.633803 0.086535 12.288-0.259606 61.786141 0 74.218366a10.557296 10.557296 0 0 0 2.523944 6.158422zM381.923155 519.240113c51.733634 0.028845 44.637746 65.910986 0 65.910986H317.007324c-48.690479 0-46.671324-65.910986 0-65.910986 127.812507-0.043268 15.215775-0.043268 64.901408 0z m165.613972-144.225352c51.733634 0.028845 44.637746 65.910986 0 65.910985H317.007324c-48.690479 0-46.671324-65.910986 0-65.910985 127.812507-0.043268 180.829746-0.043268 230.529803 0z" p-id="2907"></path></svg>