<?xml version="1.0" standalone="no"?><!DOCTYPE svg PUBLIC "-//W3C//DTD SVG 1.1//EN" "http://www.w3.org/Graphics/SVG/1.1/DTD/svg11.dtd"><svg t="1557389014057" class="icon" style="" viewBox="0 0 1024 1024" version="1.1" xmlns="http://www.w3.org/2000/svg" p-id="3547" xmlns:xlink="http://www.w3.org/1999/xlink" width="200" height="200"><defs><style type="text/css"></style></defs><path d="M995.2 796.8c-16 0-28.8-12.8-28.8-28.8v-227.2c0-16 12.8-28.8 28.8-28.8s28.8 12.8 28.8 28.8V768c0 16-12.8 28.8-28.8 28.8zM768 796.8c-16 0-28.8-12.8-28.8-28.8v-284.8c0-16 12.8-28.8 28.8-28.8s28.8 12.8 28.8 28.8V768c0 16-12.8 28.8-28.8 28.8zM883.2 796.8c-16 0-28.8-12.8-28.8-28.8V371.2c0-16 12.8-28.8 28.8-28.8s28.8 12.8 28.8 28.8V768c-3.2 16-16 28.8-28.8 28.8z" p-id="3548"></path><path d="M976 912c0 9.6-3.2 19.2-12.8 22.4 0 0-3.2 0-3.2 3.2l-6.4 6.4C841.6 1014.4 630.4 1024 512 1024 268.8 1024 3.2 960 0 819.2c0-118.4 147.2-172.8 265.6-217.6 44.8-16 112-41.6 121.6-57.6-16-28.8-32-54.4-44.8-80-44.8-70.4-73.6-121.6-73.6-208 0-140.8 105.6-256 236.8-256 131.2 0 236.8 108.8 236.8 243.2 0 99.2-54.4 201.6-92.8 268.8-6.4 16-16 28.8-19.2 38.4 3.2 6.4 25.6 16 38.4 22.4 3.2 3.2 9.6 3.2 12.8 6.4 9.6 3.2 19.2 16 19.2 25.6 0 16-12.8 28.8-28.8 28.8h-9.6-3.2c-3.2 0-6.4-3.2-9.6-3.2-32-12.8-64-22.4-73.6-51.2-3.2-9.6-6.4-28.8 3.2-48 6.4-12.8 12.8-25.6 22.4-41.6 32-60.8 83.2-156.8 83.2-240 0-102.4-80-185.6-179.2-185.6-99.2 0-179.2 89.6-179.2 198.4 0 70.4 22.4 112 64 179.2 12.8 25.6 28.8 51.2 48 83.2 6.4 12.8 9.6 28.8 3.2 44.8-16 38.4-73.6 60.8-153.6 89.6-102.4 38.4-227.2 86.4-227.2 163.2 3.2 70.4 176 147.2 454.4 147.2 188.8 0 339.2-25.6 409.6-73.6 3.2-3.2 6.4-3.2 6.4-6.4 3.2-3.2 9.6-3.2 16-3.2 16-3.2 28.8 9.6 28.8 25.6z" p-id="3549"></path></svg>