<?xml version="1.0" standalone="no"?><!DOCTYPE svg PUBLIC "-//W3C//DTD SVG 1.1//EN" "http://www.w3.org/Graphics/SVG/1.1/DTD/svg11.dtd"><svg t="1545113012798" class="icon" style="" viewBox="0 0 1024 1024" version="1.1" xmlns="http://www.w3.org/2000/svg" p-id="1559" xmlns:xlink="http://www.w3.org/1999/xlink" width="200" height="200"><defs><style type="text/css"></style></defs><path d="M512 464c88 0 160-72 160-160s-72-160-160-160-160 72-160 160 72 160 160 160z m-19.2 153.6c-8-6.4-12.8-14.4-12.8-25.6 0-17.6 14.4-32 32-32s32 14.4 32 32c0 11.2-4.8 19.2-12.8 25.6l43.2 152c3.2 11.2 0 22.4-8 30.4l-43.2 43.2c-6.4 6.4-16 6.4-22.4 0L457.6 800c-8-8-11.2-19.2-8-30.4l43.2-152zM372.8 480C321.6 438.4 288 376 288 304c0-123.2 100.8-224 224-224s224 100.8 224 224c0 70.4-33.6 134.4-84.8 176C811.2 526.4 928 673.6 928 848c0 52.8-43.2 96-96 96H192c-52.8 0-96-43.2-96-96 0-174.4 116.8-321.6 276.8-368zM832 880c17.6 0 32-14.4 32-32 0-176-144-320-320-320h-64c-176 0-320 144-320 320 0 17.6 14.4 32 32 32h640z" p-id="1560"></path></svg>