<?xml version="1.0" standalone="no"?><!DOCTYPE svg PUBLIC "-//W3C//DTD SVG 1.1//EN" "http://www.w3.org/Graphics/SVG/1.1/DTD/svg11.dtd"><svg t="1551424058371" class="icon" style="" viewBox="0 0 1039 1024" version="1.1" xmlns="http://www.w3.org/2000/svg" p-id="1431" xmlns:xlink="http://www.w3.org/1999/xlink" width="202.9296875" height="200"><defs><style type="text/css"></style></defs><path d="M1023.445368 861.659635c0-149.362796-89.360214-277.04685-215.687364-329.140299 61.193711-42.330084 101.504812-114.445542 101.504812-196.358133 0-111.830995-75.128071-205.427696-175.939081-229.785453-0.958838-0.231267-1.820462-0.099261-2.681062 0.231267-1.158383-0.099261-2.251274-0.364297-3.408633-0.364297-21.545712 0-39.020712 18.10331-39.020712 40.410362 0 20.156062 14.297634 36.703947 32.929993 39.748283 3.309372 1.423419 7.645121 2.482541 7.810896 2.548032 58.414411 20.519336 100.446713 77.677127 100.446713 145.093563 0 75.160817-52.29197 137.64594-121.263831 150.718677-0.099261 0-0.164752 0.198521-0.265036 0.231267-22.935362 1.52268-41.170678 21.049409-41.170678 45.176922 0 24.491811 18.765389 44.349067 42.197054 45.308929 0.165776 0.066515 0.297782 0.330528 0.463558 0.364297 138.672316 14.628162 236.999762 136.952138 236.999762 285.817608 0 22.042016 17.243733 39.914058 38.524408 39.914058 20.784372 0 37.564547-17.044188 38.391379-38.324864 0.032746-0.231267 0.165776-0.397043 0.165776-0.595564 0-0.065492-0.033769-0.132006-0.033769-0.231267l0 0c0-0.265036 0.033769-0.497327 0.033769-0.728594L1023.443321 861.659635 1023.445368 861.659635 1023.445368 861.659635 1023.445368 861.659635 1023.445368 861.659635 1023.445368 861.659635zM561.589418 539.171849c73.042573-50.702776 121.197316-136.918369 121.197316-234.816027 0-156.01531-122.157177-282.508235-272.810363-282.508235-150.686954 0-272.844132 126.492926-272.844132 282.508235 0 97.930403 48.154743 184.113251 121.197316 234.816027C107.313098 601.557712 0.511653 754.296395 0.511653 932.98203c0 10.061147 0.562818 19.956517 1.291412 29.819143l0.065492 0c0 21.744233 17.044188 39.35124 38.027082 39.35124 21.016663 0 38.028105-17.607006 38.028105-39.35124 0-1.223874-0.231267-2.38328-0.364297-3.607154-0.727571-8.671497-1.356904-17.34197-1.356904-26.211988 0-190.865026 149.428288-345.588923 333.741084-345.588923 184.344518 0 333.773829 154.723897 333.773829 345.588923 0 9.200546-0.629333 18.269086-1.423419 27.238364 0 0.463558-0.13303 0.893346-0.13303 1.356904 0 0.164752 0.032746 0.297782 0.032746 0.429789 0 0.265036 0 0.529049-0.032746 0.76134l0.13303 0c0.62831 21.181415 17.309224 38.192857 37.894052 38.192857 20.585851 0 37.266765-17.011442 37.895075-38.192857l0.099261 0c0.694825-9.829879 1.191128-19.757996 1.191128-29.786397C819.407322 754.296395 712.606901 601.557712 561.589418 539.171849L561.589418 539.171849 561.589418 539.171849 561.589418 539.171849zM409.976372 507.267209c-108.256586 0-195.994859-90.848101-195.994859-202.911386 0-112.063285 87.738273-202.912409 195.994859-202.912409 108.22384 0 195.962114 90.848101 195.962114 202.912409C605.938486 416.418085 518.200212 507.267209 409.976372 507.267209L409.976372 507.267209 409.976372 507.267209 409.976372 507.267209z" p-id="1432"></path></svg>