<?xml version="1.0" standalone="no"?><!DOCTYPE svg PUBLIC "-//W3C//DTD SVG 1.1//EN" "http://www.w3.org/Graphics/SVG/1.1/DTD/svg11.dtd"><svg t="1577171733779" class="icon" viewBox="0 0 1024 1024" version="1.1" xmlns="http://www.w3.org/2000/svg" p-id="1348" xmlns:xlink="http://www.w3.org/1999/xlink" width="48" height="48"><defs><style type="text/css"></style></defs><path d="M360.051613 938.116129V568.154839c0-33.032258 33.032258-66.064516 66.064516-66.064516h455.845161V85.883871c0-33.032258-33.032258-66.064516-66.064516-66.064516H115.612903c-33.032258 0-66.064516 33.032258-66.064516 66.064516V924.903226c0 33.032258 33.032258 66.064516 66.064516 66.064516h277.470968c-19.819355-6.606452-33.032258-26.425806-33.032258-52.851613zM175.070968 270.864516h396.387097v66.064516h-396.387097v-66.064516z m0 151.948387h251.045161v66.064516H175.070968v-66.064516z" p-id="1349"></path><path d="M967.845161 621.006452c0-46.245161-26.425806-79.277419-59.458064-79.27742H459.148387C426.116129 541.729032 399.690323 574.76129 399.690323 621.006452v297.290322c0 46.245161 26.425806 79.277419 59.458064 79.27742H908.387097c33.032258 0 59.458065-33.032258 59.458064-79.27742V845.625806H677.16129c-19.819355 0-33.032258-19.819355-33.032258-39.638709V726.709677c0-19.819355 13.212903-39.63871 33.032258-39.638709h290.683871v-66.064516z" p-id="1350"></path><path d="M736.619355 766.348387m-33.032258 0a33.032258 33.032258 0 1 0 66.064516 0 33.032258 33.032258 0 1 0-66.064516 0Z" p-id="1351"></path></svg>