<?xml version="1.0" standalone="no"?><!DOCTYPE svg PUBLIC "-//W3C//DTD SVG 1.1//EN" "http://www.w3.org/Graphics/SVG/1.1/DTD/svg11.dtd"><svg t="1545037823348" class="icon" style="" viewBox="0 0 1024 1024" version="1.1" xmlns="http://www.w3.org/2000/svg" p-id="1557" xmlns:xlink="http://www.w3.org/1999/xlink" width="200" height="200"><defs><style type="text/css"></style></defs><path d="M506.026667 218.88a311.893333 311.893333 0 0 0-306.773334 316.586667v328.533333h625.493334v-316.586667a323.413333 323.413333 0 0 0-318.72-328.533333zM768 805.546667h-341.333333V512H369.92v293.546667H256v-270.08a256 256 0 0 1 250.026667-258.133334A266.24 266.24 0 0 1 768 547.413333z m170.666667 117.333333V981.333333H85.333333v-58.453333zM540.586667 160h-57.173334V42.666667h57.173334zM245.76 266.24L177.066667 178.346667l42.666666-36.693334L290.133333 229.546667z m527.36 0l-42.666667-37.973333 72.96-87.466667 42.666667 38.4z" p-id="1558"></path></svg>