<?xml version="1.0" standalone="no"?><!DOCTYPE svg PUBLIC "-//W3C//DTD SVG 1.1//EN" "http://www.w3.org/Graphics/SVG/1.1/DTD/svg11.dtd"><svg t="1566461676357" class="icon" viewBox="0 0 1024 1024" version="1.1" xmlns="http://www.w3.org/2000/svg" p-id="2394" xmlns:xlink="http://www.w3.org/1999/xlink" width="200" height="200"><defs><style type="text/css"></style></defs><path d="M960 576 64 576c-35.2 0-64-28.8-64-64 0-35.2 28.8-64 64-64l896 0c35.2 0 64 28.8 64 64C1024 547.2 995.2 576 960 576zM960 200 64 200c-35.2 0-64-28.8-64-64 0-35.2 28.8-64 64-64l896 0c35.2 0 64 28.8 64 64C1024 171.2 995.2 200 960 200zM64 824l896 0c35.2 0 64 28.8 64 64 0 35.2-28.8 64-64 64L64 952c-35.2 0-64-28.8-64-64C0 852.8 28.8 824 64 824z" p-id="2395" fill="#707070"></path></svg>