<?xml version="1.0" standalone="no"?><!DOCTYPE svg PUBLIC "-//W3C//DTD SVG 1.1//EN" "http://www.w3.org/Graphics/SVG/1.1/DTD/svg11.dtd"><svg t="1554947516981" class="icon" style="" viewBox="0 0 1056 1024" version="1.1" xmlns="http://www.w3.org/2000/svg" p-id="1476" xmlns:xlink="http://www.w3.org/1999/xlink" width="206.25" height="200"><defs><style type="text/css"></style></defs><path d="M190.2875 449.6625h329.25v64h-329.25zM190.2875 577.6625h138.1v64H190.2875z" p-id="1477"></path><path d="M64 64h768v409.6h64V64A64 64 0 0 0 831.9875 0H64A64 64 0 0 0 0 64V960a64 64 0 0 0 64 64l299.4-0.325v-64L64 960z" p-id="1478"></path><path d="M192 193.05h512v64H192zM190.2875 321.675h512v64h-512z" p-id="1479"></path><path d="M572.4 922.025v55.1125c0 10-5.15 15-15.525 15h-65.4125c-10.625 0-15.9-5-15.9-15v-89.5375c-2.3375-13.5-3.8625-25-4.725-34.675s-1.35-18.4125-1.35-26.45a158.375 158.375 0 0 1 1.9625-26.7c1.25-7.5 2.6375-13.8625 4.1125-19.15a97.075 97.075 0 0 1 4.3-13.125 35.575 35.575 0 0 0 2.575-9.0125h-34a12.375 12.375 0 0 1-6.875-1.9625 18.625 18.625 0 0 1-5-4.5375 22.35 22.35 0 0 1-3-5.1625 10.9375 10.9375 0 0 1-1.1-3.8625l10.3625-36.15c0-1.725 1.0375-3.25 3.1875-4.55a23.1125 23.1125 0 0 1 7.125-2.75 59.25 59.25 0 0 1 7.125-1.25c2.1375-0.3125 3.375-0.4875 3.625-0.4875h54.675A53.475 53.475 0 0 1 523.75 688.75a88.05 88.05 0 0 0 6.0125-9.45q2.2125-2.575 6.25-7.725c2.7625-3.4375 5.5875-7 8.6-10.55s5.825-7.0625 8.4-10.375a48.75 48.75 0 0 0 5.1625-7.5 182.5 182.5 0 0 0 15.1-17.675 90 90 0 0 1 13.1375-14.425 55.6375 55.6375 0 0 1 17.425-10.125q10.3125-3.8625 27.9875-5.15 18.05-1.25 35.725-1.9c11.7875-0.425 22.65-0.7875 32.7125-1.0875s19.2125-0.4875 27.5-0.625 15-0.25 20.25-0.25h9.0125c12.3375 0 27.25 0.3125 44.7375 0.8625s35.5875 1.5875 54.25 3c12.3375 0.8625 21.9 2.825 28.6 5.8375a81.6625 81.6625 0 0 1 15.3125 8.3875c0.85 0.85 2.7 2.7 5.4 5.5875s5.6375 6.075 8.8375 9.7 6.1375 7 9.025 10.3 5 5.8375 6.4375 7.5l2.15 2.5875q5.6125 6.9 11.4 14.175c3.875 4.9125 7.6125 9.7 11.25 14.425s6.625 9.15 9.275 13.1375a69 69 0 0 1 5.5875 10.3h55.5375c6.8625 0 12.0875 1.35 15.7125 3.925s5.3375 4.2875 5.3375 5.15l10.375 36.15a11.075 11.075 0 0 1-1.1125 3.8625 24.9 24.9 0 0 1-3.0125 5.1625 18.525 18.525 0 0 1-5 4.5375 12.5 12.5 0 0 1-6.875 1.9625H1006.25a39.25 39.25 0 0 0 2.3375 9.0125c1.35 3.4375 2.7625 7.7375 4.3625 12.8875a136.75 136.75 0 0 1 4.05 18.9625 178.9375 178.9375 0 0 1 1.75 27.1625c0 8.025-0.25 16.9875-0.8625 26.875a195 195 0 0 1-5.5875 34.2375v89.55c0 10-5.275 15-15.8875 15h-64.6375c-10 0-15-5-15-15v-55.125z m331.0125-224.6625q-8.65-19.425-23.925-30.375a109.425 109.425 0 0 0-34.8625-16.3875 217.5 217.5 0 0 0-42.4-6.875q-22.825-1.475-46.4625-1.475H716.125q-21.075 0-40.8625 1.725A162.8375 162.8375 0 0 0 638.25 651.25a96.55 96.55 0 0 0-30.75 16.5875q-13.5375 10.95-22.1625 29.5125zM521.5875 871.6375h445.1v-52.1h-95.125v-49.4625h79.6l-14.6-25H552.15l-15.4625 25h80.45v49.4625h-95.55v52.1z" p-id="1480"></path></svg>