<?xml version="1.0" standalone="no"?><!DOCTYPE svg PUBLIC "-//W3C//DTD SVG 1.1//EN" "http://www.w3.org/Graphics/SVG/1.1/DTD/svg11.dtd"><svg t="1552302496964" class="icon" style="" viewBox="0 0 1030 1024" version="1.1" xmlns="http://www.w3.org/2000/svg" p-id="2359" xmlns:xlink="http://www.w3.org/1999/xlink" width="201.171875" height="200"><defs><style type="text/css"></style></defs><path d="M493.056 1003.52H72.192c-14.336 0-25.6-11.264-25.6-25.6V236.544c0-14.336 11.264-25.6 25.6-25.6h843.776c14.336 0 25.6 11.264 25.6 25.6v256c0 14.336-11.264 25.6-25.6 25.6s-25.6-11.264-25.6-25.6v-230.4H97.792V952.32h395.264c14.336 0 25.6 11.264 25.6 25.6s-11.264 25.6-25.6 25.6z" p-id="2360"></path><path d="M915.968 262.144H72.192c-9.728 0-18.432-5.12-22.528-13.824-4.608-8.192-3.584-18.432 1.536-26.624L179.2 36.864c4.608-7.168 12.8-11.264 20.992-11.264H778.24c8.192 0 15.872 3.584 20.48 10.24l137.728 185.344c5.632 7.68 6.656 17.92 2.56 26.624-4.608 8.704-13.312 14.336-23.04 14.336z m-795.136-51.2H865.28L765.44 76.8H213.504L120.832 210.944zM740.864 903.168c-97.792 0-177.152-79.36-177.152-177.152s79.36-177.152 177.152-177.152 177.152 79.36 177.152 177.152-79.36 177.152-177.152 177.152z m0-303.104c-69.632 0-125.952 56.32-125.952 125.952s56.32 125.952 125.952 125.952 125.952-56.32 125.952-125.952-56.32-125.952-125.952-125.952z" p-id="2361"></path><path d="M970.752 995.84c-7.168 0-14.336-3.072-18.944-8.704L829.44 849.408c-9.216-10.752-8.192-26.624 2.048-36.352 10.752-9.216 26.624-8.192 36.352 2.048l122.368 137.728c9.216 10.752 8.192 26.624-2.048 36.352-5.12 4.608-11.264 6.656-17.408 6.656zM655.36 472.064H333.312c-14.336 0-25.6-11.264-25.6-25.6s11.264-25.6 25.6-25.6H655.36c14.336 0 25.6 11.264 25.6 25.6s-11.264 25.6-25.6 25.6z" p-id="2362"></path></svg>