<?xml version="1.0" standalone="no"?><!DOCTYPE svg PUBLIC "-//W3C//DTD SVG 1.1//EN" "http://www.w3.org/Graphics/SVG/1.1/DTD/svg11.dtd"><svg t="1558078035680" class="icon" style="" viewBox="0 0 1024 1024" version="1.1" xmlns="http://www.w3.org/2000/svg" p-id="1187" xmlns:xlink="http://www.w3.org/1999/xlink" width="200" height="200"><defs><style type="text/css"></style></defs><path d="M164.63968 997.12c-59.84 0-99.584-30.912-99.584-104.768V99.84C65.05568 47.68 112.41568 0.32 164.63968 0.32h666.496c49.152 0 99.584 47.36 99.584 99.584v473.856c0 12.288-17.536 24.512-29.824 24.512s-29.824-12.224-29.824-24.512V99.84c0-18.432-18.432-36.864-36.864-36.864H164.63968c-18.432 0-36.864 18.432-36.864 36.864v798.592c0 21.12 19.008 36.864 36.864 36.864h283.264c12.224 0 24.512 18.816 24.512 31.104 0 15.36-12.288 30.336-24.512 30.336l6.08 0.384H164.63968z m258.048-288.448H250.33568c-7.552 0-15.104-17.536-15.104-29.824s7.552-29.824 15.104-29.824h172.352c7.488 0 15.36 13.056 15.04 32.448-0.064 15.36-7.552 27.2-15.04 27.2z m310.144-215.552H253.66368c-12.288 0-24.576-17.536-24.576-29.824s12.288-29.824 24.576-29.824H735.96768c12.288 0 24.576 17.536 24.576 29.824s-15.36 29.824-27.648 29.824z m6.144-215.552H259.80768c-12.288 0-24.576-17.536-24.576-29.824s12.288-29.824 24.576-29.824h482.24c12.288 0 24.576 17.536 24.576 29.824s-12.288 29.824-27.648 29.824z" p-id="1188"></path><path d="M532.70368 640h274.304c40 0 72.576 33.92 72.576 75.52v42.752l70.848 47.36a21.76 21.76 0 0 1 9.536 18.176v107.52c0 7.744-3.968 14.912-10.368 18.752-6.4 3.84-14.336 3.84-20.736 0a21.824 21.824 0 0 1-10.368-18.688v-95.808l-70.848-47.36a21.76 21.76 0 0 1-9.6-18.176v-54.528a32.832 32.832 0 0 0-9.088-22.848 30.72 30.72 0 0 0-21.952-9.536H553.43968v226.688h16.576c12.928-25.984 38.464-42.24 66.368-42.304 26.816 0 51.584 14.848 65.152 39.104l0.64 1.344h50.24c13.248-24.96 38.272-40.384 65.472-40.448 26.752 0 51.584 14.848 65.088 39.104 13.44 24.192 13.44 54.08 0 78.272A74.88 74.88 0 0 1 817.88768 1024c-37.312 0-68.864-28.8-74.112-67.456h-32.96c-1.28 9.984-4.48 19.584-9.28 28.352A74.88 74.88 0 0 1 636.38368 1024c-38.528 0-70.784-30.72-74.432-71.04h-29.248A21.184 21.184 0 0 1 511.96768 931.392v-269.824c0-11.904 9.28-21.568 20.736-21.568z m75.2 305.792c0 16.32 12.8 29.632 28.48 29.632a29.12 29.12 0 0 0 28.544-29.632c0-16.384-12.8-29.696-28.544-29.696a29.184 29.184 0 0 0-28.48 29.696z m181.44 0c0 16.32 12.8 29.632 28.544 29.632a29.12 29.12 0 0 0 28.48-29.632c0-16.384-12.8-29.696-28.48-29.696a29.184 29.184 0 0 0-28.544 29.696z" p-id="1189"></path></svg>