<?xml version="1.0" standalone="no"?><!DOCTYPE svg PUBLIC "-//W3C//DTD SVG 1.1//EN" "http://www.w3.org/Graphics/SVG/1.1/DTD/svg11.dtd"><svg t="1543308640288" class="icon" style="" viewBox="0 0 1024 1024" version="1.1" xmlns="http://www.w3.org/2000/svg" p-id="2591" xmlns:xlink="http://www.w3.org/1999/xlink" width="200" height="200"><defs><style type="text/css"></style></defs><path d="M384.3 1024H151.9C68.1 1024 0 955.8 0 872V152C0 68.2 68.1 0 151.9 0H778c83.8 0 151.9 68.2 151.9 152v168c0 17.7-14.3 32-32 32s-32-14.3-32-32V152c0-48.5-39.4-88-87.9-88H151.9C103.4 64 64 103.5 64 152v720c0 48.5 39.4 88 87.9 88h232.4c17.7 0 32 14.3 32 32s-14.4 32-32 32z" fill="" p-id="2592"></path><path d="M701.8 320.2H258.1c-17.6 0-32-14.4-32-32s14.4-32 32-32h443.6c17.6 0 32 14.4 32 32 0.1 17.6-14.3 32-31.9 32zM448.1 543.2h-190c-17.6 0-32-14.4-32-32s14.4-32 32-32h190c17.6 0 32 14.4 32 32s-14.4 32-32 32zM352.6 767.8h-94.5c-17.6 0-32-14.4-32-32s14.4-32 32-32h94.5c17.6 0 32 14.4 32 32s-14.4 32-32 32zM752.2 544c55.5 0 107.7 21.6 146.9 60.9C938.4 644.2 960 696.4 960 752s-21.6 107.7-60.9 147c-39.2 39.3-91.4 60.9-146.9 60.9S644.5 938.3 605.3 899c-39.3-39.3-60.9-91.5-60.9-147.1s21.6-107.8 60.9-147.1c39.2-39.2 91.4-60.8 146.9-60.8m0-64c-150.1 0-271.8 121.8-271.8 272s121.7 272 271.8 272S1024 902.2 1024 752 902.3 480 752.2 480z" fill="" p-id="2593"></path><path d="M863.8 734.6H736c-17.6 0-32 14.4-32 32s14.4 32 32 32h127.9c17.6 0 32-14.4 32-32s-14.5-32-32.1-32z" fill="" p-id="2594"></path><path d="M736 606.6c-17.6 0-32 14.4-32 32v128c0 17.6 14.4 32 32 32s32-14.4 32-32v-128c0-17.6-14.4-32-32-32z" fill="" p-id="2595"></path></svg>