<?xml version="1.0" standalone="no"?><!DOCTYPE svg PUBLIC "-//W3C//DTD SVG 1.1//EN" "http://www.w3.org/Graphics/SVG/1.1/DTD/svg11.dtd"><svg t="1574838133475" class="icon" viewBox="0 0 1024 1024" version="1.1" xmlns="http://www.w3.org/2000/svg" p-id="1740" xmlns:xlink="http://www.w3.org/1999/xlink" width="48" height="48"><defs><style type="text/css"></style></defs><path d="M657.77476813 650.62073844H260.09710625a12.86429906 12.86429906 0 0 0-13.10336062 12.86336156c0 7.19995781 5.85559031 12.81555 13.10336062 12.81555h397.67766188c7.19995781 0 13.05648563-5.61559219 13.05648562-12.81555s-5.85652781-12.86336156-13.05648563-12.86336156z m-1e-8-134.87920688H260.09710625a12.86429906 12.86429906 0 0 0-13.10336062 12.86336157c0 7.19995781 5.85559031 12.81555 13.10336062 12.81555h397.67766188c7.19995781 0 13.05648563-5.61559219 13.05648562-12.81555s-5.85652781-12.86336156-13.05648563-12.86336157z m0-134.83139531H260.09710625c-7.24683281 0-13.10336062 6.14340094-13.10336062 13.39210875s5.85559031 13.39117125 13.10336062 13.39117125h397.67766188c7.19995781 0 13.05648563-6.14340094 13.05648562-13.39117125s-5.85652781-13.39210875-13.05648563-13.39210875z" p-id="1741"></path><path d="M940.39748187 153.00710094C940.39748187 86.28749375 884.62218406 32 816.07821219 32h-609.21204375l-0.86436938 0.0478125L204.89743062 32a121.34366156 121.34366156 0 0 0-121.2461625 121.00710094v707.27584218c0 8.92776 3.83904 17.42427281 10.27119 23.56861125l98.97504282 95.32725188a32.83105687 32.83105687 0 0 0 45.45629531 0L339.24789031 881.93062812l104.639385 100.89597a32.73543281 32.73543281 0 0 0 45.45629531 0L593.98389312 881.93062812l104.639385 100.89597a32.78418188 32.78418188 0 0 0 45.40754532 0l94.75163062-91.34383875a32.87980687 32.87980687 0 0 0 10.03119094-23.56767375V269.64641563c52.46406656-14.063355 91.58383688-61.00745344 91.58383687-116.63931469zM721.47095563 925.65912125L616.73500906 824.71533969a32.73543281 32.73543281 0 0 0-45.45535781 0L466.64026625 925.65912125 361.95306969 824.71533969a32.63980781 32.63980781 0 0 0-45.40754532 0L215.88955344 921.96258031l-77.71173094-75.55174312V153.00710094c0-30.6720075 24.71985469-64.17524812 55.39186219-64.17524719l12.43211437-0.14437406h0.91218188c32.39980969 0 58.7518425 20.3520675 58.7518425 64.22399718 0 30.6720075-26.39984438 55.63092281-58.84840406 55.63092282a32.63980781 32.63980781 0 1 0 0 65.32836562h588.47654062V853.99516719l-73.82300438 71.66395406zM815.64509 220.35108031h-521.99693156c8.8799475-17.13646219 25.67984906-47.42409656 25.67984906-67.43960343s-5.03997-50.30407969-13.9199175-67.43960344h510.66918469c32.44762219 0 70.41521063 36.76759594 70.41521156 67.43960344s-37.63102875 67.43960344-70.84645875 67.43960343z" p-id="1742"></path></svg>