<?xml version="1.0" standalone="no"?><!DOCTYPE svg PUBLIC "-//W3C//DTD SVG 1.1//EN" "http://www.w3.org/Graphics/SVG/1.1/DTD/svg11.dtd"><svg t="1557451461201" class="icon" style="" viewBox="0 0 1102 1024" version="1.1" xmlns="http://www.w3.org/2000/svg" p-id="6995" xmlns:xlink="http://www.w3.org/1999/xlink" width="215.234375" height="200"><defs><style type="text/css"></style></defs><path d="M511.921243 472.542686a196.892786 196.892786 0 1 0 0-393.785572 196.892786 196.892786 0 0 0 0 393.785572z m0 78.757114a275.6499 275.6499 0 1 1 0-551.2998 275.6499 275.6499 0 0 1 0 551.2998zM693.062606 708.814029h346.531303a63.005691 63.005691 0 0 1 63.005691 63.005691v189.017074a63.005691 63.005691 0 0 1-63.005691 63.005692H693.062606a63.005691 63.005691 0 0 1-63.005692-63.005692V771.81972a63.005691 63.005691 0 0 1 63.005692-63.005691z m15.751423 78.757114v157.514228h315.028457v-157.514228H708.814029z m118.135671 39.378557h78.757114a39.378557 39.378557 0 0 1 0 78.757114h-78.757114a39.378557 39.378557 0 0 1 0-78.757114z" p-id="6996"></path><path d="M866.328257 551.2998a157.514229 157.514229 0 0 1 157.514229 157.514229v78.757114H708.814029V708.814029a157.514229 157.514229 0 0 1 157.514228-157.514229z m-78.757114 157.514229h157.514228a78.757114 78.757114 0 1 0-157.514228 0zM551.2998 945.242886a39.378557 39.378557 0 1 1 0 78.757114L39.378557 1023.842486a39.378557 39.378557 0 0 1-39.378557-39.378557A511.921243 511.921243 0 0 1 511.921243 472.542686H551.2998a39.378557 39.378557 0 0 1 0 78.757114h-39.378557a433.242886 433.242886 0 0 0-431.431472 393.785571L551.2998 945.242886z" p-id="6997"></path></svg>