<?xml version="1.0" standalone="no"?><!DOCTYPE svg PUBLIC "-//W3C//DTD SVG 1.1//EN" "http://www.w3.org/Graphics/SVG/1.1/DTD/svg11.dtd"><svg t="1553649738145" class="icon" style="" viewBox="0 0 1024 1024" version="1.1" xmlns="http://www.w3.org/2000/svg" p-id="1416" xmlns:xlink="http://www.w3.org/1999/xlink" width="200" height="200"><defs><style type="text/css"></style></defs><path d="M448 543.6H320c-17.7 0-32-14.3-32-32s14.3-32 32-32h128c17.7 0 32 14.3 32 32 0 17.6-14.4 32-32 32z" p-id="1417"></path><path d="M863.2 126.7l0.1 0.1v767.5l-0.1 0.1H161.4l-0.1-0.1V126.8l0.1-0.1h701.8m0.1-64h-702c-35.2 0-64 28.8-64 64v767.7c0 35.2 28.8 64 64 64h702c35.2 0 64-28.8 64-64V126.7c0-35.2-28.8-64-64-64z" p-id="1418"></path><path d="M702.6 287.1H319.3c-17.7 0-32-14.3-32-32s14.3-32 32-32h383.3c17.7 0 32 14.3 32 32s-14.4 32-32 32zM702.6 415H319.3c-17.7 0-32-14.3-32-32s14.3-32 32-32h383.3c17.7 0 32 14.3 32 32s-14.4 32-32 32zM545.1 861.7c-8.2 0-16.4-3.1-22.6-9.3L417.4 747.5c-12.5-12.5-12.5-32.7-0.1-45.3 12.5-12.5 32.7-12.5 45.3-0.1L567.7 807c12.5 12.5 12.5 32.7 0.1 45.3-6.3 6.3-14.5 9.4-22.7 9.4z" p-id="1419"></path><path d="M545.1 861.7c-8.2 0-16.4-3.1-22.6-9.3-12.5-12.5-12.5-32.7 0-45.3l225.2-225.7c12.5-12.5 32.7-12.5 45.3 0s12.5 32.7 0 45.3L567.7 852.3c-6.2 6.3-14.4 9.4-22.6 9.4z" p-id="1420"></path></svg>