<?xml version="1.0" standalone="no"?><!DOCTYPE svg PUBLIC "-//W3C//DTD SVG 1.1//EN" "http://www.w3.org/Graphics/SVG/1.1/DTD/svg11.dtd"><svg t="1542784892958" class="icon" style="" viewBox="0 0 1026 1024" version="1.1" xmlns="http://www.w3.org/2000/svg" p-id="2149" xmlns:xlink="http://www.w3.org/1999/xlink" width="200.390625" height="200"><defs><style type="text/css"></style></defs><path d="M279.760756 461.986909c-17.873455 0-35.746909-6.795636-49.361455-20.386909l-194.513455-194.513455c-9.099636-9.099636-9.099636-23.808 0-32.907636s23.808-9.099636 32.907636 0l194.513455 194.513455c9.146182 9.099636 23.877818 9.076364 32.930909 0l109.405091-109.428364c4.375273-4.375273 6.772364-10.193455 6.772364-16.453818s-2.420364-12.101818-6.772364-16.477091L211.408756 72.098909c-9.099636-9.099636-9.099636-23.808 0-32.907636s23.808-9.099636 32.907636 0l194.234182 194.234182c13.149091 13.149091 20.410182 30.696727 20.410182 49.384727s-7.261091 36.212364-20.410182 49.384727l-109.405091 109.428364C315.530938 455.191273 297.657484 461.986909 279.760756 461.986909z" p-id="2150"></path><path d="M891.228393 1015.552c-34.373818 0-68.701091-13.079273-94.859636-39.237818L512.83712 692.782545c-9.099636-9.099636-9.099636-23.808 0-32.907636s23.808-9.099636 32.907636 0l283.554909 283.554909c34.187636 34.164364 89.716364 34.164364 123.904 0 34.117818-34.141091 34.117818-89.716364 0-123.904L669.625484 535.994182c-9.099636-9.076364-9.099636-23.808 0-32.907636s23.808-9.099636 32.907636 0L986.111302 786.618182c52.270545 52.317091 52.270545 137.425455 0 189.696C959.952756 1002.472727 925.602211 1015.552 891.228393 1015.552z" p-id="2151"></path><path d="M366.91712 738.816c-94.976 0-188.485818-37.12-259.630545-108.288C0.488029 523.752727-30.13888 359.237818 31.04512 221.184 36.234938 209.454545 49.919302 204.078545 61.76512 209.338182 73.517847 214.551273 78.800756 228.305455 73.610938 240.034909c-53.457455 120.599273-26.693818 264.285091 66.583273 357.562182 100.677818 100.654545 252.602182 123.438545 378.158545 56.552727 11.310545-6.050909 25.460364-1.722182 31.488 9.611636 6.050909 11.357091 1.745455 25.437091-9.611636 31.488C485.235665 724.526545 425.773847 738.816 366.91712 738.816z" p-id="2152"></path><path d="M705.418938 460.893091c-1.489455 0-3.025455-0.139636-4.538182-0.442182-12.613818-2.490182-20.805818-14.731636-18.315636-27.345455 20.875636-105.541818-11.985455-213.922909-87.947636-289.908364-93.323636-93.300364-237.056-120.017455-357.608727-66.56C225.139665 81.850182 211.455302 76.520727 206.288756 64.791273 201.075665 53.038545 206.381847 39.284364 218.134575 34.094545c137.960727-61.207273 302.568727-30.626909 409.390545 76.194909 86.970182 86.970182 124.602182 211.037091 100.724364 331.869091C726.038575 453.236364 716.310575 460.893091 705.418938 460.893091z" p-id="2153"></path></svg>