<?xml version="1.0" standalone="no"?><!DOCTYPE svg PUBLIC "-//W3C//DTD SVG 1.1//EN" "http://www.w3.org/Graphics/SVG/1.1/DTD/svg11.dtd"><svg t="1552048683510" class="icon" style="" viewBox="0 0 1024 1024" version="1.1" xmlns="http://www.w3.org/2000/svg" p-id="1569" xmlns:xlink="http://www.w3.org/1999/xlink" width="200" height="200"><defs><style type="text/css"></style></defs><path d="M927.1 480.9c-7.3 0-14.7-2.5-20.7-7.6L511.2 138.1 116 473.3c-13.5 11.4-33.7 9.8-45.1-3.7-11.4-13.5-9.8-33.7 3.7-45.1L490.5 71.7c11.9-10.1 29.5-10.1 41.4 0l415.9 352.8c13.5 11.4 15.1 31.6 3.7 45.1-6.4 7.5-15.4 11.3-24.4 11.3z" p-id="1570"></path><path d="M159.1 959.6c-17.7 0-32-14.3-32-32V410.2c0-17.7 14.3-32 32-32s32 14.3 32 32v517.4c0 17.7-14.3 32-32 32zM863.4 639.9c-17.7 0-32-14.3-32-32V410.2c0-17.7 14.3-32 32-32s32 14.3 32 32V608c0 17.6-14.4 31.9-32 31.9zM595.2 959.3h-72c-6.6 0-12-5.4-12-12v-72c0-6.6 5.4-12 12-12h72c6.6 0 12 5.4 12 12v72c0 6.6-5.4 12-12 12zM739.2 959.3h-72c-6.6 0-12-5.4-12-12v-72c0-6.6 5.4-12 12-12h72c6.6 0 12 5.4 12 12v72c0 6.6-5.4 12-12 12zM595.9 832.2h-72c-6.6 0-12-5.4-12-12v-72c0-6.6 5.4-12 12-12h72c6.6 0 12 5.4 12 12v72c0 6.6-5.4 12-12 12zM595.9 704.7h-72c-6.6 0-12-5.4-12-12v-72c0-6.6 5.4-12 12-12h72c6.6 0 12 5.4 12 12v72c0 6.6-5.4 12-12 12zM739.2 831.5h-72c-6.6 0-12-5.4-12-12v-72c0-6.6 5.4-12 12-12h72c6.6 0 12 5.4 12 12v72c0 6.6-5.4 12-12 12zM883.2 959.3h-72c-6.6 0-12-5.4-12-12v-72c0-6.6 5.4-12 12-12h72c6.6 0 12 5.4 12 12v72c0 6.6-5.4 12-12 12zM447.1 808.8H255c-13.8 0-25-11.2-25-25s11.2-25 25-25h192c13.8 0 25 11.2 25 25s-11.1 25-24.9 25z" p-id="1571"></path><path d="M255 808.8c-6.4 0-12.8-2.4-17.7-7.3-9.8-9.8-9.7-25.6 0-35.4l64.1-63.9c9.8-9.8 25.6-9.7 35.4 0 9.8 9.8 9.7 25.6 0 35.4l-64.1 63.9c-4.9 4.9-11.3 7.3-17.7 7.3z" p-id="1572"></path><path d="M319.1 872.5c-6.4 0-12.8-2.4-17.6-7.3l-64-63.7c-9.8-9.7-9.8-25.6-0.1-35.4 9.7-9.8 25.6-9.8 35.4-0.1l64 63.7c9.8 9.7 9.8 25.6 0.1 35.4-5 4.9-11.4 7.4-17.8 7.4z" p-id="1573"></path></svg>