<?xml version="1.0" standalone="no"?><!DOCTYPE svg PUBLIC "-//W3C//DTD SVG 1.1//EN" "http://www.w3.org/Graphics/SVG/1.1/DTD/svg11.dtd"><svg t="1551159216365" class="icon" style="" viewBox="0 0 1024 1024" version="1.1" xmlns="http://www.w3.org/2000/svg" p-id="2904" xmlns:xlink="http://www.w3.org/1999/xlink" width="200" height="200"><defs><style type="text/css"></style></defs><path d="M923.554822 155.335834c0-34.089399-27.615964-61.703317-61.712527-61.703317L162.532235 93.632517c-34.095539 0-61.71662 27.613918-61.71662 61.703317 0 17.639752 7.487531 33.42732 19.396769 44.682665l-0.282433 0.258896c0 0 111.408369 115.462708 186.377828 188.641381 17.829064 17.402345 33.598212 32.41527 45.316092 42.914392 4.323469 3.877307 11.961426 11.496845 14.046924 17.189498 1.607614 4.396123 2.703575 15.251356 2.537799 20.445658-1.896186 61.60508-0.703011 180.159196-0.197498 221.821061l41.342594 0L409.35369 470.058772c0 0 0.975211-31.850405-1.175779-38.184671-3.606131-10.602476-24.636097-26.951839-30.463826-32.400944-16.905018-15.797801-42.909276-41.294498-71.406307-69.628824-70.926376-70.52217-157.298536-158.63395-157.298536-158.63395l0.072655-0.223081c-4.450359-3.804652-7.453762-9.326413-7.453762-15.655562 0-11.531638 9.364275-20.898982 20.904099-20.898982l699.305967 0c11.538801 0 20.88568 9.367345 20.88568 20.898982 0 6.347568-2.983961 11.851932-7.439436 15.655562l0.094144 0.223081c0 0-174.835957 180.234921-232.642524 232.564753-7.233752 6.550183-24.181749 18.823718-26.988678 28.203342-2.406816 8.051373-0.708128 12.383028-0.699941 34.534538 0.027629 83.359546 0.096191 288.778032 0.096191 440.591647 0 0.318248 0.004093 0.681522 0.013303 1.081635l42.459021 0c0.039909-0.683569 0.033769-1.081635 0.033769-1.081635s-1.471514-323.488579-1.471514-434.338223c0-6.062066-0.285502-18.057261 2.034333-23.654746 2.216481-5.358031 10.263761-12.886495 14.364149-16.986883C730.546993 374.165772 904.452765 200.274326 904.452765 200.274326l-0.294712-0.255827C916.065244 188.758038 923.554822 172.975587 923.554822 155.335834z" p-id="2905"></path></svg>