<?xml version="1.0" standalone="no"?><!DOCTYPE svg PUBLIC "-//W3C//DTD SVG 1.1//EN" "http://www.w3.org/Graphics/SVG/1.1/DTD/svg11.dtd"><svg t="1552480234926" class="icon" style="" viewBox="0 0 1024 1024" version="1.1" xmlns="http://www.w3.org/2000/svg" p-id="5523" xmlns:xlink="http://www.w3.org/1999/xlink" width="200" height="200"><defs><style type="text/css"></style></defs><path d="M354.8 66.6H179.3c-64.5 0-117 52.5-117 117v175.5c0 64.5 52.5 117 117 117h253.5c21.5 0 39-17.5 39-39V183.6c0-64.5-52.5-117-117-117z m39 331.5H179.3c-21.5 0-39-17.5-39-39V183.6c0-21.5 17.5-39 39-39h175.5c21.5 0 39 17.5 39 39v214.5z m0 0M842.3 66.6H666.8c-64.5 0-117 52.5-117 117v253.5c0 21.5 17.5 39 39 39h253.5c64.5 0 117-52.5 117-117V183.6c0-64.5-52.5-117-117-117z m0 0M432.8 553.8H179.3c-64.5 0-117 52.5-117 117v175.5c0 64.5 52.5 117 117 117h175.5c64.5 0 117-52.5 117-117V592.8c0-21.5-17.4-39-39-39z m-39 292.5c0 21.5-17.5 39-39 39H179.3c-21.5 0-39-17.5-39-39V670.8c0-21.5 17.5-39 39-39h214.5v214.5z m0 0M842.3 553.8H588.8c-21.5 0-39 17.5-39 39v253.5c0 64.5 52.5 117 117 117h175.5c64.5 0 117-52.5 117-117V670.8c0-64.5-52.5-117-117-117z m39 292.5c0 21.5-17.5 39-39 39H666.8c-21.5 0-39-17.5-39-39V631.8h214.5c21.5 0 39 17.5 39 39v175.5z m0 0" p-id="5524"></path></svg>