<?xml version="1.0" standalone="no"?><!DOCTYPE svg PUBLIC "-//W3C//DTD SVG 1.1//EN" "http://www.w3.org/Graphics/SVG/1.1/DTD/svg11.dtd"><svg t="1556940761409" class="icon" style="" viewBox="0 0 1024 1024" version="1.1" xmlns="http://www.w3.org/2000/svg" p-id="1793" xmlns:xlink="http://www.w3.org/1999/xlink" width="200" height="200"><defs><style type="text/css"></style></defs><path d="M961.1 389.3c3.3-12.2-0.9-25.2-10.9-33.2l-354.6-285c-5.2-4.2-11.5-6.5-17.9-7V64H162.2c-52.9 0-96 43.1-96 96v704c0 52.9 43.1 96 96 96h704c52.9 0 96-43.1 96-96.1l-1.1-474.6zM607.5 162.8L839.3 349H607.5V162.8zM866.2 896h-704c-17.6 0-32-14.4-32-32V160c0-17.6 14.4-32 32-32h381.4v253c0 17.7 14.3 32 32 32h321.6l1 451c0 17.6-14.4 32-32 32z" p-id="1794"></path><path d="M752.8 483.6H392.4c-17.7 0-32 14.3-32 32s14.3 32 32 32h360.5c17.7 0 32-14.3 32-32-0.1-17.7-14.4-32-32.1-32zM752.8 704.6H392.4c-17.7 0-32 14.3-32 32s14.3 32 32 32h360.5c17.7 0 32-14.3 32-32s-14.4-32-32.1-32z" p-id="1795"></path><path d="M236.7 517.2m-38.8 0a38.8 38.8 0 1 0 77.6 0 38.8 38.8 0 1 0-77.6 0Z" p-id="1796"></path><path d="M392.4 326.5h69.9c17.7 0 32-14.3 32-32s-14.3-32-32-32h-69.9c-17.7 0-32 14.3-32 32s14.3 32 32 32z" p-id="1797"></path><path d="M236.7 297.7m-38.8 0a38.8 38.8 0 1 0 77.6 0 38.8 38.8 0 1 0-77.6 0Z" p-id="1798"></path><path d="M236.7 736.6m-38.8 0a38.8 38.8 0 1 0 77.6 0 38.8 38.8 0 1 0-77.6 0Z" p-id="1799"></path></svg>