<?xml version="1.0" standalone="no"?><!DOCTYPE svg PUBLIC "-//W3C//DTD SVG 1.1//EN" "http://www.w3.org/Graphics/SVG/1.1/DTD/svg11.dtd"><svg t="1553847565287" class="icon" style="" viewBox="0 0 1024 1024" version="1.1" xmlns="http://www.w3.org/2000/svg" p-id="1825" xmlns:xlink="http://www.w3.org/1999/xlink" width="200" height="200"><defs><style type="text/css"></style></defs><path d="M800 640h-192a32 32 0 0 0 0 64h192a32 32 0 0 0 0-64z m0-128h-192a32 32 0 0 0 0 64h192a32 32 0 0 0 0-64z m32-384H192a128 128 0 0 0-128 128v512a128 128 0 0 0 128 128h640a128 128 0 0 0 128-128V256a128 128 0 0 0-128-128z m64 640a64 64 0 0 1-64 64H192a64 64 0 0 1-64-64V256a64 64 0 0 1 64-64h640a64 64 0 0 1 64 64v512z m-96-384h-192a32 32 0 0 0 0 64h192a32 32 0 0 0 0-64z m-344.256 263.744a29.12 29.12 0 0 0-42.816 0 37.44 37.44 0 0 0-6.464 10.56 32.768 32.768 0 0 0-2.496 12.736 34.368 34.368 0 0 0 8.96 23.296 30.784 30.784 0 0 0 9.6 7.04 27.136 27.136 0 0 0 23.488 0 29.888 29.888 0 0 0 9.728-7.04 34.56 34.56 0 0 0 6.464-36.032 34.432 34.432 0 0 0-6.464-10.56z m-135.04-0.704a29.696 29.696 0 0 0-21.376-9.408 27.84 27.84 0 0 0-11.84 2.496 31.36 31.36 0 0 0-16.064 17.472 36.928 36.928 0 0 0 0 25.536 31.104 31.104 0 0 0 27.904 20.288 26.624 26.624 0 0 0 11.712-2.688 32.128 32.128 0 0 0 16.192-17.6 35.648 35.648 0 0 0-6.528-36.096z m182.016-208.192a30.4 30.4 0 0 0-14.08-2.688H266.944l-1.92-13.568-1.344-10.496a86.4 86.4 0 0 0-1.28-7.936l-1.6-6.08c-0.768-2.304-1.792-4.608-3.328-6.72s-3.52-3.968-6.08-5.376a21.12 21.12 0 0 0-10.368-2.112h-32.768a15.36 15.36 0 0 0-11.84 4.608 16.192 16.192 0 0 0-4.352 11.712 39.68 39.68 0 0 0 0.832 7.872 24.96 24.96 0 0 0 8.256 14.464 12.032 12.032 0 0 0 8.064 2.688h24.32l13.888 80 5.248 30.528c1.792 9.984 3.328 19.2 4.672 27.392s2.624 14.976 3.584 20.416l1.792 10.368c0.64 3.52 1.536 7.232 2.752 11.328s2.752 7.808 4.736 11.264c1.92 3.456 4.288 6.208 7.232 8.32a17.92 17.92 0 0 0 10.816 3.2h169.856c6.08 0 10.112-1.728 12.16-5.184s3.072-7.552 3.072-12.288c0-9.664-5.184-14.592-15.552-14.592H294.528l-4.928-32h170.24c6.272 0 11.52-1.792 15.872-5.504 4.288-3.712 7.936-10.304 10.752-19.776 1.28-4.544 3.136-10.688 5.632-18.56 2.432-7.808 5.056-15.616 7.616-23.616l6.976-21.888 3.968-13.184a34.816 34.816 0 0 0 1.152-7.68 15.808 15.808 0 0 0-1.92-8.32 17.216 17.216 0 0 0-7.168-6.592z" p-id="1826"></path></svg>