<?xml version="1.0" standalone="no"?><!DOCTYPE svg PUBLIC "-//W3C//DTD SVG 1.1//EN" "http://www.w3.org/Graphics/SVG/1.1/DTD/svg11.dtd"><svg t="1558317733951" class="icon" style="" viewBox="0 0 1024 1024" version="1.1" xmlns="http://www.w3.org/2000/svg" p-id="597" xmlns:xlink="http://www.w3.org/1999/xlink" width="200" height="200"><defs><style type="text/css"></style></defs><path d="M897.706667 440.32h-13.653334c3.413333-8.533333 3.413333-17.066667 1.706667-25.6l-52.906667-228.693333c-5.12-22.186667-27.306667-37.546667-52.906666-37.546667h-512c-25.6 0-49.493333 17.066667-52.906667 37.546667L162.133333 416.426667c-1.706667 8.533333-1.706667 17.066667 1.706667 25.6h-13.653333c-39.253333 0-71.68 32.426667-71.68 71.68v192.853333c0 39.253333 32.426667 71.68 71.68 71.68h136.533333v81.92c0 10.24 6.826667 17.066667 17.066667 17.066667s17.066667-6.826667 17.066666-17.066667v-81.92h406.186667v81.92c0 10.24 6.826667 17.066667 17.066667 17.066667s17.066667-6.826667 17.066666-17.066667v-81.92h136.533334c39.253333 0 71.68-32.426667 71.68-71.68V512c0-39.253333-32.426667-71.68-71.68-71.68z m-701.44-17.066667l52.906666-228.693333c1.706667-5.12 10.24-11.946667 20.48-11.946667h510.293334c10.24 0 18.773333 6.826667 20.48 11.946667L853.333333 423.253333c0 3.413333 0 6.826667-1.706666 10.24-3.413333 3.413333-6.826667 5.12-13.653334 5.12H209.92c-5.12 0-10.24-1.706667-13.653333-5.12 0-3.413333-1.706667-6.826667 0-10.24z m738.986666 281.6c0 20.48-17.066667 37.546667-37.546666 37.546667H150.186667c-20.48 0-37.546667-17.066667-37.546667-37.546667V512c0-20.48 17.066667-37.546667 37.546667-37.546667h747.52c20.48 0 37.546667 17.066667 37.546666 37.546667v192.853333z" p-id="598"></path><path d="M327.68 542.72c-35.84 0-64.853333 29.013333-64.853333 64.853333s29.013333 64.853333 64.853333 64.853334 64.853333-29.013333 64.853333-64.853334-29.013333-64.853333-64.853333-64.853333z m0 97.28c-17.066667 0-30.72-13.653333-30.72-30.72s13.653333-30.72 30.72-30.72 30.72 13.653333 30.72 30.72-13.653333 30.72-30.72 30.72zM720.213333 542.72c-35.84 0-64.853333 29.013333-64.853333 64.853333s29.013333 64.853333 64.853333 64.853334 64.853333-29.013333 64.853334-64.853334-29.013333-64.853333-64.853334-64.853333z m0 97.28c-17.066667 0-30.72-13.653333-30.72-30.72s13.653333-30.72 30.72-30.72 30.72 13.653333 30.72 30.72-13.653333 30.72-30.72 30.72zM523.946667 423.253333c63.146667 0 112.64-51.2 112.64-112.64 0-63.146667-51.2-112.64-112.64-112.64s-112.64 51.2-112.64 112.64c0 61.44 49.493333 112.64 112.64 112.64z m0-196.266666c46.08 0 83.626667 37.546667 83.626666 83.626666s-37.546667 83.626667-83.626666 83.626667-83.626667-37.546667-83.626667-83.626667 37.546667-83.626667 83.626667-83.626666z" p-id="599"></path><path d="M523.946667 327.68h40.96c6.826667 0 11.946667-5.12 11.946666-11.946667s-5.12-11.946667-11.946666-11.946666h-29.013334v-40.96c0-6.826667-5.12-11.946667-11.946666-11.946667s-11.946667 5.12-11.946667 11.946667v52.906666c0 6.826667 5.12 11.946667 11.946667 11.946667z" p-id="600"></path></svg>