<?xml version="1.0" standalone="no"?><!DOCTYPE svg PUBLIC "-//W3C//DTD SVG 1.1//EN" "http://www.w3.org/Graphics/SVG/1.1/DTD/svg11.dtd"><svg t="1557280161582" class="icon" style="" viewBox="0 0 1024 1024" version="1.1" xmlns="http://www.w3.org/2000/svg" p-id="3381" xmlns:xlink="http://www.w3.org/1999/xlink" width="200" height="200"><defs><style type="text/css"></style></defs><path d="M122.052167 64.44348c46.963189-22.611906 128.713926-13.335227 184.953795-13.335227 91.027416 0 561.239101-6.95751 582.691421 5.797925 33.627963 19.712944 20.292736 240.034078 20.292736 303.811248 0 45.803604-7.537302 311.348551 6.95751 331.061495 14.494811 20.292736 33.04817 0.579792 37.106717-17.393774l0.579793-585.590384C944.777667-20.206219 817.223326 1.825894 718.078815 1.825894H222.936055C35.663091 1.825894 72.769808 37.193234 72.769808 346.802407v327.58274c0 323.524192-37.68651 349.035061 143.208737 349.035061l335.120042 0.579792c19.133151-0.579792 59.718623-2.31917 43.484434-30.729-11.595849-20.872529-49.282359-12.755434-71.894264-12.755434-109.000982 1.159585-218.581757-0.579792-327.58274 0.579792-101.46368 1.159585-77.112397-13.915019-77.112397-258.007644 0-96.825341-6.377717-608.20229 4.058547-658.644234z" p-id="3382"></path><path d="M678.652928 692.938506c-16.234189-16.234189-12.175642-13.915019-30.729-17.973567-32.468378 37.68651 44.064227 76.532605 59.138831 117.118077l-83.490115 4.058547c-9.276679 49.282359 6.377717 37.106717 108.42119 37.106718v22.032113l-109.580774 2.31917c-4.63834 49.282359 7.537302 36.526925 109.580774 36.526925 0 48.122774-12.175642 79.431567 28.989623 85.809284 13.915019-25.510868 4.63834-51.601529 10.436265-84.649699 51.601529-3.478755 110.160567 17.393774 112.479737-33.04817-32.468378-17.393774-88.708246 4.058547-114.798907-13.915019 6.377717-20.872529-4.058547-13.915019 31.308793-16.234189 7.537302 0 117.118077 11.016057 77.112397-31.308793-11.595849-12.175642-67.835718-8.117094-83.490114-8.696887 27.250246-49.862152 81.170944-73.05385 73.633642-114.219114-53.340906-8.696887-66.676133 63.777171-116.538284 98.564718l-72.474058-83.490114zM509.35353 363.616389c-58.559038 0-205.826323-16.234189-177.416493 34.787547 24.931076 26.670453 133.352266 14.494811 173.937738 14.494812 9.856472 43.484434-0.579792 114.798907 3.478755 143.208737 4.058547 30.149208 2.898962 22.032113 20.292736 27.830038 5.797925-8.117094 3.478755-1.159585 6.95751-15.654396 2.898962-9.856472 2.31917-8.117094 3.478754-18.553359 2.898962-35.36734-4.058547-90.447624 1.739378-135.091643 53.340906-6.377717 134.511851 12.755434 175.677115-11.016057 8.117094-47.542982-15.074604-40.585472-62.037793-40.005679-38.266302 0.579792-77.112397 0-115.3787 0l-0.579792-147.267285c-5.218132-36.526925 2.898962-18.553359-16.813981-26.670453-29.569415 31.888585-13.335227 126.394756-13.335227 173.937738z" p-id="3383"></path></svg>