<?xml version="1.0" standalone="no"?><!DOCTYPE svg PUBLIC "-//W3C//DTD SVG 1.1//EN" "http://www.w3.org/Graphics/SVG/1.1/DTD/svg11.dtd"><svg t="1555914695939" class="icon" style="" viewBox="0 0 1024 1024" version="1.1" xmlns="http://www.w3.org/2000/svg" p-id="1787" xmlns:xlink="http://www.w3.org/1999/xlink" width="200" height="200"><defs><style type="text/css"></style></defs><path d="M695.143943 268.373792H378.374877c-16.498389 0-29.6971-13.198711-29.6971-29.6971v-15.398497c0-16.498389 13.198711-29.6971 29.6971-29.697099h316.769066c16.498389 0 29.6971 13.198711 29.6971 29.697099v15.398497c1.099893 16.498389-13.198711 29.6971-29.6971 29.6971zM380.574662 388.262084h293.671322c19.798067 0-13.198711 18.698174-36.296456 37.396348-13.198711 10.998926-16.498389 37.396348-36.296455 37.396348h-219.978518c-20.897959 0-37.396348-16.498389-37.396348-37.396348s15.398496-37.396348 36.296455-37.396348zM244.187981 268.373792h-53.894736c-16.498389 0-29.6971-13.198711-29.6971-29.6971v-15.398497c0-16.498389 13.198711-29.6971 29.6971-29.697099h53.894736c16.498389 0 29.6971 13.198711 29.6971 29.697099v15.398497c0 16.498389-13.198711 29.6971-29.6971 29.6971z m-3.299677 193.581095h-50.595059c-16.498389 0-29.6971-13.198711-29.6971-29.6971V416.859291c0-16.498389 13.198711-29.6971 29.6971-29.6971h50.595059a30.049066 30.049066 0 0 1 29.6971 29.6971v15.398496c0 16.498389-13.198711 29.6971-29.6971 29.6971z m-50.595059 134.186896H241.988196c16.498389 0 29.6971 13.198711 29.6971 29.6971v15.398496c0 16.498389-13.198711 29.6971-29.6971 29.6971h-51.694951a30.049066 30.049066 0 0 1-29.6971-29.6971v-15.398496c0-16.498389 13.198711-29.6971 29.6971-29.6971z m170.483351 0H472.96564c46.195489 0 16.498389 35.196563-3.299678 74.792696h-107.789474c-7.699248 0-15.398496-16.498389-15.398496-37.396348s6.599356-37.396348 14.298604-37.396348z" p-id="1788"></path><path d="M799.633739 461.954887v-356.365198a30.049066 30.049066 0 0 0-29.6971-29.6971H115.500549c-16.498389 0-29.6971 13.198711-29.6971 29.6971V760.025779c0 16.498389 13.198711 29.6971 29.6971 29.6971h342.066595v73.692803H85.803449c-40.696026 0-74.792696-32.996778-74.792696-74.792696v-713.83029c0-40.696026 32.996778-74.792696 74.792696-74.792696h713.83029c40.696026 0 74.792696 32.996778 74.792696 74.792696V461.954887h-74.792696z" p-id="1789"></path><path d="M755.638035 1015.200859c-140.786251 0-256.274973-114.388829-256.274973-256.274973 0-140.786251 114.388829-256.274973 256.274973-256.274973S1011.913008 617.039742 1011.913008 758.925886c-1.099893 141.886144-115.488722 256.274973-256.274973 256.274973z m0-445.456498c-104.489796 0-190.281418 84.691729-190.281418 190.281418 0 104.489796 84.691729 190.281418 190.281418 190.281418S945.919453 865.615467 945.919453 760.025779c-1.099893-105.589689-85.791622-190.281418-190.281418-190.281418z" p-id="1790"></path><path d="M828.230946 769.924812c-15.398496-13.198711-34.09667-23.097744-53.894737-28.597207v-63.79377c18.698174 1.099893 37.396348 6.599356 53.894737 16.498388v-41.795918c-16.498389-7.699248-35.196563-10.998926-53.894737-10.998926v-29.6971h-24.197637v29.6971c-18.698174 1.099893-36.296455 7.699248-49.495166 20.897959-12.098818 10.998926-19.798067 26.397422-19.798067 42.895811 0 15.398496 5.499463 30.796992 16.498389 41.795919 15.398496 13.198711 32.996778 23.097744 52.794844 28.597207V837.01826c-12.098818-1.099893-23.097744-3.299678-35.196563-7.699248-10.998926-3.299678-20.897959-7.699248-29.697099-14.298604v43.995704c19.798067 9.899033 42.895811 15.398496 64.893662 15.398496v34.09667h24.197637v-35.196563c18.698174-1.099893 36.296455-7.699248 51.694952-19.798066 12.098818-10.998926 18.698174-26.397422 18.698174-42.895811 0-15.398496-5.499463-30.796992-16.498389-40.696026z m-78.092374-38.496241c-16.498389-7.699248-25.29753-17.598281-25.297529-29.697099 0-6.599356 2.199785-13.198711 7.699248-17.598282 4.39957-4.39957 10.998926-7.699248 17.598281-7.699248v54.994629z m24.197637 104.489796v-51.694951c17.598281 7.699248 25.29753 16.498389 25.29753 27.497314 0 14.298604-7.699248 21.997852-25.29753 24.197637z" p-id="1791"></path></svg>