<?xml version="1.0" standalone="no"?><!DOCTYPE svg PUBLIC "-//W3C//DTD SVG 1.1//EN" "http://www.w3.org/Graphics/SVG/1.1/DTD/svg11.dtd"><svg t="1543817115526" class="icon" style="" viewBox="0 0 1024 1024" version="1.1" xmlns="http://www.w3.org/2000/svg" p-id="4200" xmlns:xlink="http://www.w3.org/1999/xlink" width="200" height="200"><defs><style type="text/css"></style></defs><path d="M832 981.333333H597.333333V597.333333a21.333333 21.333333 0 0 0-21.333333-21.333333h-128a21.333333 21.333333 0 0 0-21.333333 21.333333v384H192a64 64 0 0 1-64-64V576H51.413333A42.666667 42.666667 0 0 1 21.333333 503.253333L466.773333 57.813333a64 64 0 0 1 90.453334 0L1002.666667 503.253333A42.666667 42.666667 0 0 1 972.586667 576H896v341.333333a64 64 0 0 1-64 64z m-192-42.666666h192a21.333333 21.333333 0 0 0 21.333333-21.333334V533.333333h119.253334L527.146667 87.893333a21.333333 21.333333 0 0 0-30.08 0L51.413333 533.333333H170.666667v384a21.333333 21.333333 0 0 0 21.333333 21.333334h192V597.333333a64 64 0 0 1 64-64h128a64 64 0 0 1 64 64z" p-id="4201"></path></svg>