<?xml version="1.0" standalone="no"?><!DOCTYPE svg PUBLIC "-//W3C//DTD SVG 1.1//EN" "http://www.w3.org/Graphics/SVG/1.1/DTD/svg11.dtd"><svg t="1553845383957" class="icon" style="" viewBox="0 0 1024 1024" version="1.1" xmlns="http://www.w3.org/2000/svg" p-id="1390" xmlns:xlink="http://www.w3.org/1999/xlink" width="200" height="200"><defs><style type="text/css"></style></defs><path d="M142.276 896c-17.722667 0-34.333333-6.850667-46.784-19.284l-6.534667-6.546667c-26.336-26.334667-26.141333-67.798667 0.442667-94.392L353.196 511.986667 89.536 248.317333c-12.601333-12.602667-19.694667-29.22-19.962667-46.793333-0.284-18 6.602667-34.954667 19.384-47.736l6.529334-6.529333C107.9 134.84 124.496 128 142.206667 128c18.042667 0 35.022667 7.045333 47.813333 19.837333l316.626667 316.629334c12.606667 12.592 19.693333 29.213333 19.968 46.794666 0.28 18.010667-6.609333 34.96-19.389334 47.74l-6.525333 6.524c-0.636 0.637333-1.278667 1.258667-1.930667 1.857334l-308.885333 308.88C177.161333 888.990667 160.254667 896 142.276 896m428.589333 0c-17.728 0-34.338667-6.850667-46.777333-19.294667l-6.536-6.530666c-26.34-26.334667-26.146667-67.798667 0.437333-94.397334L781.796 511.986667 518.130667 248.317333c-12.606667-12.597333-19.694667-29.22-19.968-46.793333-0.28-18.006667 6.608-34.96 19.389333-47.741333l6.525333-6.52C536.493333 134.84 553.090667 128 570.797333 128c18.042667 0 35.021333 7.045333 47.813334 19.837333L935.236 464.466667c12.601333 12.597333 19.694667 29.213333 19.968 46.794666 0.28 18.010667-6.608 34.96-19.389333 47.74l-6.534667 6.529334c-0.564 0.573333-1.232 1.216-1.932 1.857333L618.48 876.262667C605.750667 888.990667 588.844 896 570.866667 896" p-id="1391"></path></svg>