<?xml version="1.0" standalone="no"?><!DOCTYPE svg PUBLIC "-//W3C//DTD SVG 1.1//EN" "http://www.w3.org/Graphics/SVG/1.1/DTD/svg11.dtd"><svg t="1552876148504" class="icon" style="" viewBox="0 0 1024 1024" version="1.1" xmlns="http://www.w3.org/2000/svg" p-id="4758" xmlns:xlink="http://www.w3.org/1999/xlink" width="200" height="200"><defs><style type="text/css"></style></defs><path d="M256 590.769231h236.307692a19.692308 19.692308 0 1 1 0 39.384615h-236.307692a19.692308 19.692308 0 1 1 0-39.384615z m0-196.923077h236.307692a19.692308 19.692308 0 0 1 0 39.384615h-236.307692a19.692308 19.692308 0 0 1 0-39.384615z m0-157.538462h236.307692a19.692308 19.692308 0 0 1 0 39.384616h-236.307692a19.692308 19.692308 0 0 1 0-39.384616z m0 512h236.307692a19.692308 19.692308 0 1 1 0 39.384616h-236.307692a19.692308 19.692308 0 1 1 0-39.384616zM708.923077 755.869538V572.258462c0-11.539692-8.822154-20.873846-19.692308-20.873847s-19.692308 9.334154-19.692307 20.873847v180.814769l-76.406154-76.366769a19.692308 19.692308 0 0 0-27.805539 27.844923l111.379693 111.419077a19.613538 19.613538 0 0 0 27.844923 0l111.419077-111.419077a19.692308 19.692308 0 1 0-27.884308-27.844923L708.923077 755.869538zM708.923077 269.508923v182.114462a19.652923 19.652923 0 0 1-19.692308 19.574153 19.652923 19.652923 0 0 1-19.692307-19.574153V272.305231l-76.406154 76.406154a19.692308 19.692308 0 1 1-27.805539-27.884308l111.379693-111.379692a19.613538 19.613538 0 0 1 27.844923 0l111.419077 111.379692a19.692308 19.692308 0 1 1-27.884308 27.884308L708.923077 269.548308z" p-id="4759"></path></svg>