<?xml version="1.0" standalone="no"?><!DOCTYPE svg PUBLIC "-//W3C//DTD SVG 1.1//EN" "http://www.w3.org/Graphics/SVG/1.1/DTD/svg11.dtd"><svg t="1552912465437" class="icon" style="" viewBox="0 0 1024 1024" version="1.1" xmlns="http://www.w3.org/2000/svg" p-id="2281" xmlns:xlink="http://www.w3.org/1999/xlink" width="200" height="200"><defs><style type="text/css"></style></defs><path d="M52.6 157l0.4-0.5 61.7-61.6v162.7c0 13.5 10.9 24.4 24.4 24.4s24.4-10.9 24.4-24.4v-161l59.9 59.9 0.5 0.4c9.5 9.5 25 9.5 34.6 0 9.5-9.5 9.5-25 0-34.5 0 0-101.9-102.3-102.8-103.1-4.7-4.7-10.9-7.1-17-7.1h-0.7c-6.2 0.1-12.3 2.4-17 7.1-0.8 0.8-102.8 103.1-102.8 103.1-9.5 9.5-9.5 25 0 34.5 9.4 9.6 24.9 9.7 34.4 0.1zM228.1 865l-0.4 0.5-59.9 59.9V764.3c0-13.5-11-24.4-24.4-24.4S119 750.8 119 764.3V927l-61.7-61.7-0.4-0.4c-9.5-9.5-25-9.5-34.6 0-9.5 9.5-9.5 25 0 34.5 0 0 101.9 102.3 102.8 103.1 4.7 4.7 10.9 7.1 17 7.1h0.7c6.2-0.1 12.3-2.4 17-7.1 0.8-0.8 102.8-103.1 102.8-103.1 9.5-9.5 9.5-25 0-34.5-9.5-9.4-25-9.4-34.5 0.1zM250.7 455.8c0-13.3-10.8-24.1-24.1-24.1h-16.8l15.1-26.2 0.3-0.5c6.6-11.5 2.7-26.2-8.8-32.9-11.5-6.6-26.2-2.7-32.9 8.8l-29.3 50.8H127l-29.4-50.8c-6.6-11.5-21.4-15.4-32.9-8.8s-15.5 21.4-8.8 32.9l0.3 0.5 15.1 26.2H54.5c-13.3 0-24.1 10.8-24.1 24.1s10.8 24.1 24.1 24.1h62v47.8h-62c-13.3 0-24.1 10.8-24.1 24.1s10.8 24.1 24.1 24.1h62v53.3c0 13.3 10.8 24.1 24.1 24.1s24.1-10.8 24.1-24.1V575.9h62c13.3 0 24.1-10.8 24.1-24.1s-10.8-24.1-24.1-24.1h-62v-47.8h62c13.3 0 24-10.8 24-24.1zM782.5 574l130.3-75.2c12.4-7.2 15-10.5 15-22.9v-31.1l-168 97v22.7c0 12.4 10.3 16.7 22.7 9.5z" p-id="2282"></path><path d="M1010.3 318.2v-1.1l-337-195.7-0.3 0.2-336.6 195.5 0.6 0.4-0.6-0.3v389.1l337 194.5 337-194.5V319.2l0.8-0.5-0.9-0.5z m-337-176.3L976.5 318l-135 77.5L539 219.9l134.3-78z m-302 175.5l149.9-87.1 302.3 175.5-150.8 86.6-301.4-175z m620.9 378.5L673.3 880.1V533.2l319-185.1-0.1 347.8z" p-id="2283"></path></svg>