<?xml version="1.0" standalone="no"?><!DOCTYPE svg PUBLIC "-//W3C//DTD SVG 1.1//EN" "http://www.w3.org/Graphics/SVG/1.1/DTD/svg11.dtd"><svg t="1551164211702" class="icon" style="" viewBox="0 0 1024 1024" version="1.1" xmlns="http://www.w3.org/2000/svg" p-id="3867" xmlns:xlink="http://www.w3.org/1999/xlink" width="200" height="200"><defs><style type="text/css"></style></defs><path d="M512 1023.218917C229.661486 1023.218917 0.781083 794.338514 0.781083 512 0.781083 229.661486 229.661486 0.781083 512 0.781083 794.338514 0.781083 1023.218917 229.661486 1023.218917 512 1023.218917 794.338514 794.338514 1023.218917 512 1023.218917ZM511.804729 62.877193C264.084601 62.877193 63.267735 263.869022 63.267735 511.804729 63.267735 622.536153 103.326755 723.901217 169.727024 802.182151L801.047628 168.677638C722.956107 102.667521 622.023371 62.877193 511.804729 62.877193ZM845.861492 212.231225 213.353641 846.926889C292.639829 917.710206 397.201086 960.732265 511.804729 960.732265 759.524857 960.732265 960.341724 759.740436 960.341724 511.804729 960.341724 396.6844 917.041989 291.690032 845.861492 212.231225Z" p-id="3868"></path></svg>