<?xml version="1.0" standalone="no"?><!DOCTYPE svg PUBLIC "-//W3C//DTD SVG 1.1//EN" "http://www.w3.org/Graphics/SVG/1.1/DTD/svg11.dtd"><svg t="1555406465797" class="icon" style="" viewBox="0 0 1130 1024" version="1.1" xmlns="http://www.w3.org/2000/svg" p-id="731" xmlns:xlink="http://www.w3.org/1999/xlink" width="220.703125" height="200"><defs><style type="text/css"></style></defs><path d="M1124.458667 384v512c0 18.773333-5.525333 36.096-14.357334 51.2h-64.896a153.813333 153.813333 0 0 0 2.581334-25.6c0-54.869333-29.226667-105.6-76.650667-133.034667a153.109333 153.109333 0 0 0-153.344 0A153.642667 153.642667 0 0 0 741.12 921.6c0 8.746667 1.173333 17.237333 2.56 25.6h-64.853333a100.864 100.864 0 0 1-14.378667-51.2V281.6c0-56.554667 45.76-102.4 102.229333-102.4h174.08c3.712 0 9.642667 0.448 14.293334 2.133333 4.650667 1.706667 6.741333 3.690667 9.514666 6.528 89.301333 92.096 137.813333 142.826667 145.536 152.192 7.936 9.685333 12.736 24.32 14.357334 43.946667z m-189.482667-153.6h-168.32a51.157333 51.157333 0 0 0-51.093333 51.2v540.928a204.266667 204.266667 0 0 1 178.901333-105.792c74.410667 0 142.933333 40.533333 178.88 105.792V384c0-4.330667-0.341333-11.2-1.344-14.954667L934.976 230.4z m-137.770667 145.066667l225.024 48v114.133333h-255.573333v-139.178667c0.533333-10.154667 2.986667-16.917333 7.466667-20.266666 4.437333-3.328 12.16-4.245333 23.082666-2.709334z m46.293334 122.24c0.554667 0.576 1.898667 0.96 4.053333 1.130666h93.034667c1.173333 0.298667 2.24-0.064 3.2-1.130666a3.690667 3.690667 0 0 0 0.981333-3.456v-39.018667c-0.298667-3.349333-1.109333-5.504-2.410667-6.506667-1.28-1.002667-3.797333-1.365333-7.466666-1.066666h-88.682667a3.285333 3.285333 0 0 0-2.688 1.066666c-0.832 0.810667-1.152 1.664-0.981333 2.56v42.154667c0.128 2.282667 0.426667 3.712 0.981333 4.266667zM536.704 951.210667L482.986667 947.2a153.813333 153.813333 0 0 0 2.56-25.6c0-54.869333-29.205333-105.6-76.650667-133.034667a153.109333 153.109333 0 0 0-153.344 0A153.642667 153.642667 0 0 0 178.901333 921.6c0 8.746667 1.173333 17.237333 2.56 25.6l-104.789333 3.925333C31.018667 924.714667 0 875.882667 0 819.2V153.6C0 68.778667 68.650667 0 153.344 0h306.666667c84.693333 0 153.322667 68.778667 153.322666 153.6v665.6c0 56.661333-31.061333 105.429333-76.650666 132.010667zM562.218667 153.6c0-56.554667-45.76-102.4-102.208-102.4H153.344a102.314667 102.314667 0 0 0-102.229333 102.4v665.6a102.165333 102.165333 0 0 0 76.842666 98.837333c1.92-111.466667 92.565333-201.237333 204.266667-201.237333 102.016 0 186.325333 74.922667 201.706667 172.8a101.930667 101.930667 0 0 0 28.288-70.4V153.6zM259.456 433.877333h196.266667a25.813333 25.813333 0 0 0 25.984-25.6c0-14.122667-11.626667-25.6-25.984-25.6h-196.266667V298.666667L149.333333 400.96l110.122667 102.293333v-69.376zM332.224 819.2a102.314667 102.314667 0 0 1 102.229333 102.4c0 56.554667-45.781333 102.4-102.229333 102.4a102.314667 102.314667 0 0 1-102.229333-102.4c0-56.554667 45.781333-102.4 102.229333-102.4z m0 153.6c18.261333 0 35.136-9.749333 44.266667-25.6a51.285333 51.285333 0 0 0 0-51.2 51.093333 51.093333 0 0 0-95.36 25.6c0 28.266667 22.869333 51.2 51.093333 51.2z m562.24-153.6a102.314667 102.314667 0 0 1 102.208 102.4c0 56.554667-45.76 102.4-102.208 102.4a102.314667 102.314667 0 0 1-102.229333-102.4c0-56.554667 45.76-102.4 102.229333-102.4z m0 153.6c18.261333 0 35.136-9.770667 44.266667-25.6a51.285333 51.285333 0 0 0-0.021334-51.221333A51.114667 51.114667 0 0 0 843.306667 921.6c0 28.288 22.912 51.2 51.157333 51.2z" p-id="732"></path></svg>