<?xml version="1.0" standalone="no"?><!DOCTYPE svg PUBLIC "-//W3C//DTD SVG 1.1//EN" "http://www.w3.org/Graphics/SVG/1.1/DTD/svg11.dtd"><svg t="1542784540725" class="icon" style="" viewBox="0 0 1322 1024" version="1.1" xmlns="http://www.w3.org/2000/svg" p-id="1479" xmlns:xlink="http://www.w3.org/1999/xlink" width="258.203125" height="200"><defs><style type="text/css"></style></defs><path d="M330.326304 602.847391l0 421.150389 198.190899 0L528.517203 602.847391l-99.100999-82.587125L330.326304 602.847391 330.326304 602.847391 330.326304 602.847391zM0 1023.99778l198.190899 0L198.190899 701.935072 0 858.839068 0 1023.99778 0 1023.99778 0 1023.99778zM990.965594 503.744173l0 520.253607 198.197558 0L1189.163152 338.58768 990.965594 503.744173 990.965594 503.744173 990.965594 503.744173zM660.648168 710.192009l0 313.805771 198.190899 0L858.839068 611.097669l-156.903996 132.133185L660.648168 710.192009 660.648168 710.192009 660.648168 710.192009zM1321.287459 0 941.419534 0l156.903996 148.6404L693.673696 478.968923 429.413985 255.998335 0 594.579356l0 148.647059 429.418424-338.58768 272.516648 222.970588 487.22808-396.386238 132.126526 123.86515L1321.287459 0 1321.287459 0 1321.287459 0z" p-id="1480"></path></svg>