<?xml version="1.0" standalone="no"?><!DOCTYPE svg PUBLIC "-//W3C//DTD SVG 1.1//EN" "http://www.w3.org/Graphics/SVG/1.1/DTD/svg11.dtd"><svg t="1553762662577" class="icon" style="" viewBox="0 0 1126 1024" version="1.1" xmlns="http://www.w3.org/2000/svg" p-id="1994" xmlns:xlink="http://www.w3.org/1999/xlink" width="219.921875" height="200"><defs><style type="text/css"></style></defs><path d="M910.573757 958.016089h-662.002716c-65.160055 0-118.214959-59.296554-118.214958-132.122239v-634.187277c0-72.825686 53.054904-132.12224 118.214958-132.12224h662.002716c65.160055 0 118.214959 59.296554 118.214959 132.12224v634.187277c0 72.825686-53.007525 132.12224-118.214959 132.122239zM248.571041 112.432176c-39.105509 0-70.9288 35.567053-70.928799 79.273519v634.187277c0 43.706466 31.823291 79.273519 70.928799 79.273519h662.002716c39.105509 0 70.9288-35.567053 70.9288-79.273519v-634.187277c0-43.706466-31.823291-79.273519-70.9288-79.273519h-662.002716z" p-id="1995"></path><path d="M213.626048 520.550464c38.207076-58.77627 66.105866-120.484729 83.743748-185.171879l29.412263 8.842191c-5.91088 18.630194-12.247286 37.261265-19.1031 55.844959h95.517252v23.548761c-13.713381 118.545729-67.099055 204.747884-160.1579 258.606464-5.91088-7.84988-11.774381-16.171787-17.637882-24.966601 88.188533-49.981457 137.649706-126.868514 148.430897-230.707673h-76.414152c-6.904069 16.692071-14.705693 32.343575-23.548761 47.049267 11.774381 7.84988 27.946168 20.096289 48.515362 36.740982 6.85669 4.91769 11.774381 8.842191 14.705692 11.77438l-19.103099 23.501384c-22.555572-21.562383-41.139265-37.686792-55.844958-48.467984-0.993189 2.931312-2.931312 6.85669-5.863501 11.774381-10.82857 18.630194-19.623383 32.343575-26.480074 41.139265-5.863501-11.870015-11.254097-21.658017-16.171787-29.507897z m224.84505-182.193189h27.89879v345.328902h-27.89879v-345.328902zM466.417266 469.150291L485.520365 448.581097c37.213887 28.419074 66.105866 50.927268 86.67506 67.57196L553.092326 542.633131C534.461255 525.988438 507.03537 502.95996 470.814672 473.595076a507.936435 507.936435 0 0 0-4.397406-4.444785zM682.419247 333.91249l29.411385 8.842192c-1.986378 3.924501-4.444785 9.835381-7.376974 17.637882-3.924501 7.84988-6.85669 13.713381-8.842191 17.637882h204.275855c-0.993189 53.905958-2.931312 110.223822-5.863501 169.000092 0 44.070577-21.089478 65.160055-63.221932 63.173676-13.712504 0.993189-29.364885 1.466095-47.002767 1.466095 0-7.84988-1.986378-17.637882-5.863501-29.412263h14.70657c16.644693 0.993189 29.364885 1.466095 38.207076 1.466095 23.500506 0.993189 35.275764-10.260908 35.275764-33.80967 2.931312-46.056078 4.444785-94.997845 4.444785-146.964803H682.419247a719.186549 719.186549 0 0 1-27.946168 45.583173h148.477398v105.77816H673.623556v64.687149c-0.993189 18.630194 9.788002 27.425884 32.343575 26.432695h161.670496c24.494573 0.993189 38.207076-5.343218 41.138388-19.103099 1.939-7.84988 4.397407-21.562383 7.329596-41.139265 0.993189-5.91088 1.466095-10.308286 1.466094-13.239598 16.644693 6.85669 25.95979 10.260908 27.946169 10.260907-2.931312 20.616572-5.91088 38.207076-8.842192 52.912769-6.903191 25.486884-27.946168 37.686792-63.221932 36.740982H700.057129c-37.261265 0.993189-55.372053-16.171787-54.378864-51.446674V461.726816a1510.453015 1510.453015 0 0 1-36.740981 44.117955c-3.924501-6.85669-9.788002-14.705693-17.637882-23.548761 41.185766-46.954511 71.495584-96.415684 91.119845-148.38352zM673.623556 472.08248v57.310176h101.428131v-57.310176H673.623556z" p-id="1996"></path></svg>