<?xml version="1.0" standalone="no"?><!DOCTYPE svg PUBLIC "-//W3C//DTD SVG 1.1//EN" "http://www.w3.org/Graphics/SVG/1.1/DTD/svg11.dtd"><svg t="1553821975033" class="icon" style="" viewBox="0 0 1024 1024" version="1.1" xmlns="http://www.w3.org/2000/svg" p-id="2105" xmlns:xlink="http://www.w3.org/1999/xlink" width="200" height="200"><defs><style type="text/css"></style></defs><path d="M596.7 375.4l165.5-171.7 28.6 27.6L625.3 403l-28.6-27.6z m256.5 282.2L644.9 541.9l19.2-34.8 208.4 115.7-19.3 34.8zM339 814.6l119.1-206.7 34.4 19.9-119.1 206.6-34.4-19.8zM394.9 190l100.7 216.4-36 16.8-100.7-216.4 36-16.8zM160.3 488.4h238.2v39.8H160.3v-39.8z" p-id="2106"></path><path d="M868.4 190c0 43.9-35.6 79.6-79.4 79.6-43.9 0-79.4-35.6-79.4-79.6s35.6-79.6 79.4-79.6c43.9 0.1 79.4 35.7 79.4 79.6z m92.7 470.9c0 33-26.7 59.7-59.6 59.7-32.9 0-59.6-26.7-59.6-59.7s26.7-59.7 59.6-59.7c32.9 0 59.6 26.7 59.6 59.7z m-541-490.8c0 33-26.7 59.7-59.6 59.7S301 203.1 301 170.1s26.7-59.7 59.6-59.7 59.5 26.8 59.5 59.7zM180.2 513.3c0 33-26.7 59.7-59.6 59.7S61 546.3 61 513.3s26.7-59.7 59.6-59.7 59.6 26.7 59.6 59.7z m230 351.5c0 33-26.7 59.7-59.6 59.7S291 897.7 291 864.8s26.7-59.7 59.6-59.7 59.6 26.7 59.6 59.7zM597.1 488.4c0-44-35.6-79.6-79.4-79.6-43.8 0-79.4 35.6-79.4 79.6 0 43.9 35.6 79.6 79.4 79.6 43.9 0 79.4-35.6 79.4-79.6z m79.4 0c0 87.9-71.1 159.2-158.8 159.2-87.7 0-158.8-71.3-158.8-159.2 0-87.9 71.1-159.2 158.8-159.2 87.7 0.1 158.8 71.3 158.8 159.2z" p-id="2107"></path></svg>