<?xml version="1.0" standalone="no"?><!DOCTYPE svg PUBLIC "-//W3C//DTD SVG 1.1//EN" "http://www.w3.org/Graphics/SVG/1.1/DTD/svg11.dtd"><svg t="1553256034513" class="icon" style="" viewBox="0 0 1024 1024" version="1.1" xmlns="http://www.w3.org/2000/svg" p-id="2548" xmlns:xlink="http://www.w3.org/1999/xlink" width="200" height="200"><defs><style type="text/css"></style></defs><path d="M896.341333 682.794667V167.68a85.333333 85.333333 0 0 0-85.333333-85.333333H210.688a85.333333 85.333333 0 0 0-85.333333 85.333333v686.805333a85.333333 85.333333 0 0 0 85.205333 85.333334l473.984 0.981333L682.624 774.357333c0-48.384 36.224-86.613333 79.701333-89.173333l133.973334-2.389333z m-140.629333 222.506666l115.712-145.664-109.098667 2.005334c-4.821333 0-9.685333 5.12-9.685333 10.197333l3.072 133.461333z m225.408-179.712a25.685333 25.685333 0 0 1-8.192 17.066667l-211.370667 268.373333c-9.984 9.856-22.741333 12.458667-32.085333 12.885334V1024H213.290667a170.666667 170.666667 0 0 1-170.666667-170.666667L42.666667 170.965333A170.666667 170.666667 0 0 1 213.290667 0.298667L810.624 0a170.666667 170.666667 0 0 1 170.752 170.666667L981.290667 725.589333h-0.170667z m-384.256-256H299.349333a42.709333 42.709333 0 1 1 0-85.461333h297.514667a42.709333 42.709333 0 1 1 0 85.461333z m85.717333-170.666666H299.349333a42.709333 42.709333 0 0 1 0-85.461334H682.624a42.709333 42.709333 0 0 1 0 85.461334zM256.128 579.84c0-23.552 18.901333-42.666667 42.624-42.666667h42.752c23.552 0 42.624 18.944 42.624 42.666667v42.752a42.496 42.496 0 0 1-42.666667 42.624H298.794667a42.496 42.496 0 0 1-42.666667-42.624v-42.752z m0 170.666667c0-23.552 18.901333-42.666667 42.624-42.666667h42.752c23.552 0 42.624 18.944 42.624 42.666667v42.752a42.496 42.496 0 0 1-42.666667 42.624H298.794667a42.496 42.496 0 0 1-42.666667-42.624v-42.752z m173.482667 0c0-23.552 18.858667-42.666667 42.624-42.666667h42.752c23.552 0 42.624 18.944 42.624 42.666667v42.752a42.496 42.496 0 0 1-42.666667 42.624H472.277333a42.496 42.496 0 0 1-42.666666-42.624v-42.752z m0-170.666667c0-23.552 18.858667-42.666667 42.624-42.666667h42.752c23.552 0 42.624 18.944 42.624 42.666667v42.752a42.496 42.496 0 0 1-42.666667 42.624H472.277333a42.496 42.496 0 0 1-42.666666-42.624v-42.752z" p-id="2549"></path></svg>