<?xml version="1.0" standalone="no"?><!DOCTYPE svg PUBLIC "-//W3C//DTD SVG 1.1//EN" "http://www.w3.org/Graphics/SVG/1.1/DTD/svg11.dtd"><svg t="1555912536819" class="icon" style="" viewBox="0 0 1024 1024" version="1.1" xmlns="http://www.w3.org/2000/svg" p-id="1030" xmlns:xlink="http://www.w3.org/1999/xlink" width="200" height="200"><defs><style type="text/css"></style></defs><path d="M613.5 113.8H409.1c-13.8 0-25-11.2-25-25s11.2-25 25-25h204.4c13.8 0 25 11.2 25 25s-11.2 25-25 25z" p-id="1031"></path><path d="M884.9 959.9H138.8c-41.4 0-75-33.6-75-75V138.8c0-41.4 33.6-75 75-75h92.3c13.8 0 25 11.2 25 25s-11.2 25-25 25h-92.3c-13.8 0-25 11.2-25 25v746.1c0 13.8 11.2 25 25 25h746.1c13.8 0 25-11.2 25-25V138.8c0-13.8-11.2-25-25-25h-93.7c-13.8 0-25-11.2-25-25s11.2-25 25-25h93.7c41.4 0 75 33.6 75 75v746.1c0 41.4-33.6 75-75 75z" p-id="1032"></path><path d="M741.2 281H281c-13.8 0-25-11.2-25-25s11.2-25 25-25h460.2c13.8 0 25 11.2 25 25 0 13.9-11.1 25-25 25zM551.1 409.1H281c-13.8 0-25-11.2-25-25s11.2-25 25-25h270.1c13.8 0 25 11.2 25 25s-11.2 25-25 25zM423.1 538.8H281c-13.8 0-25-11.2-25-25s11.2-25 25-25h142c13.8 0 25 11.2 25 25 0.1 13.8-11.1 25-24.9 25zM555.3 830.2c-9.4 0-18.8-3-26.8-8.8-14.1-10.3-21.1-27.4-18.1-44.6l12.8-74.4-54.1-52.7c-12.5-12.2-16.9-30.1-11.5-46.7 5.4-16.6 19.5-28.5 36.8-31l74.7-10.9 33.4-67.7c7.7-15.7 23.4-25.4 40.9-25.4s33.2 9.7 40.9 25.4l33.4 67.7 74.7 10.9c17.3 2.5 31.4 14.4 36.8 31 5.4 16.6 1 34.5-11.5 46.7l-54.1 52.7 12.8 74.4c3 17.2-4 34.3-18.1 44.6s-32.5 11.6-48 3.5l-66.9-35.1-66.9 35.1c-6.7 3.6-14 5.3-21.2 5.3z m-45-210.1l49.4 48.1c10.8 10.5 15.7 25.6 13.1 40.4l-11.7 67.9 61-32.1c13.3-7 29.2-7 42.4 0l61 32.1-11.5-67.9c-2.5-14.8 2.4-29.9 13.1-40.4l49.4-48.1-68.2-9.9c-14.9-2.2-27.7-11.5-34.3-24.9l-30.5-61.8-30.5 61.8c-6.6 13.5-19.5 22.8-34.3 24.9l-68.4 9.9z" p-id="1033"></path></svg>