<?xml version="1.0" standalone="no"?><!DOCTYPE svg PUBLIC "-//W3C//DTD SVG 1.1//EN" "http://www.w3.org/Graphics/SVG/1.1/DTD/svg11.dtd"><svg t="1554867634175" class="icon" style="" viewBox="0 0 1024 1024" version="1.1" xmlns="http://www.w3.org/2000/svg" p-id="1180" xmlns:xlink="http://www.w3.org/1999/xlink" width="200" height="200"><defs><style type="text/css"></style></defs><path d="M70.536817 537.539192V171.477435C70.536817 119.182898 104.589074 77.833729 156.88361 69.320665c17.026128-2.432304 35.268409-2.432304 52.294537 0 17.026128 1.216152 29.187648 17.026128 27.971497 34.052257-1.216152 17.026128-14.593824 31.619952-31.619953 31.619952H172.693587c-21.890736 0-35.268409 14.593824-35.268409 36.484561v732.123515c0 21.890736 14.593824 36.484561 36.484561 36.484561h665.235154c23.106888 0 36.484561-14.593824 36.484561-37.700713V173.909739c1.216152-8.513064-2.432304-18.24228-7.296912-25.539193-6.08076-8.513064-15.809976-13.377672-26.755345-13.377672h-32.836104c-18.24228 0-34.052257-14.593824-34.052257-32.836104s14.593824-32.836105 32.836105-34.052257h1.216152c19.458432 0 38.916865-1.216152 57.159145 3.648456 43.781473 8.513064 75.401425 48.646081 76.617577 93.643706v735.771971c0 43.781473-19.458432 76.617577-59.591449 96.07601-13.377672 6.08076-26.755344 9.729216-41.349169 8.513064h-668.88361C116.750594 1005.75772 71.752969 961.976247 71.752969 906.033254V537.539192H70.536817z" p-id="1181"></path><path d="M502.270784 200.665083H372.142518c-42.565321 0-70.536817-27.971496-70.536817-70.536817v-60.807601c0-40.133017 27.971496-69.320665 69.320665-69.320665h262.688836c40.133017 0 68.104513 29.187648 68.104513 68.104513v64.456057c1.216152 36.484561-27.971496 66.888361-64.456057 66.888361h-1.216152c-44.997625 2.432304-88.779097 1.216152-133.776722 1.216152z m141.073634-145.938242H369.710214v83.914489h273.634204V54.726841zM632.39905 384.304038c-13.377672-12.16152-34.052257-12.16152-47.429929 0l-77.833729 77.833729-77.833729-77.833729c-13.377672-12.16152-34.052257-12.16152-47.429929 0-13.377672 13.377672-13.377672 34.052257 0 47.429929l68.104513 68.104513h-38.916865c-17.026128 0-30.4038 13.377672-30.4038 30.4038s13.377672 30.4038 30.4038 30.403801h64.456057v38.916864h-65.672209c-17.026128 0-30.4038 14.593824-30.4038 30.403801 0 17.026128 13.377672 30.4038 30.4038 30.4038h64.456057v58.375297c0 17.026128 13.377672 30.4038 30.403801 30.403801h3.648456c17.026128 0 30.4038-13.377672 30.4038-30.403801V659.154394h65.672209c17.026128 0 30.4038-13.377672 30.403801-30.4038S621.453682 598.346793 604.427553 598.346793h-65.672209v-38.916864h65.672209c17.026128 0 30.4038-14.593824 30.403801-30.403801 0-17.026128-13.377672-30.4038-30.403801-30.4038h-40.133016l68.104513-68.104513c12.16152-13.377672 12.16152-34.052257 0-46.213777z" p-id="1182"></path></svg>