<?xml version="1.0" standalone="no"?><!DOCTYPE svg PUBLIC "-//W3C//DTD SVG 1.1//EN" "http://www.w3.org/Graphics/SVG/1.1/DTD/svg11.dtd"><svg t="1555480747809" class="icon" style="" viewBox="0 0 1024 1024" version="1.1" xmlns="http://www.w3.org/2000/svg" p-id="740" xmlns:xlink="http://www.w3.org/1999/xlink" width="200" height="200"><defs><style type="text/css"></style></defs><path d="M427.670588 903.529412H234.917647C189.741176 903.529412 150.588235 864.376471 150.588235 819.2V204.8C150.588235 159.623529 189.741176 120.470588 234.917647 120.470588h551.152941C834.258824 120.470588 873.411765 159.623529 873.411765 204.8v249.976471c0 18.070588-12.047059 30.117647-30.117647 30.117647s-30.117647-12.047059-30.117647-30.117647V204.8c0-12.047059-12.047059-24.094118-24.094118-24.094118H234.917647c-12.047059 0-24.094118 12.047059-24.094118 24.094118v611.388235c0 15.058824 12.047059 27.105882 24.094118 27.105883h192.752941c18.070588 0 30.117647 12.047059 30.117647 30.117647s-12.047059 30.117647-30.117647 30.117647z" p-id="741"></path><path d="M632.470588 499.952941h-90.352941v51.2c-24.094118 21.082353-45.176471 39.152941-60.235294 69.270588h-90.352941c-18.070588 0-30.117647-12.047059-30.117647-30.117647s12.047059-30.117647 30.117647-30.117647h90.352941v-60.235294h-90.352941c-18.070588 0-30.117647-15.058824-30.117647-30.117647s12.047059-30.117647 30.117647-30.117647h63.247059l-57.22353-57.223529c-12.047059-12.047059-12.047059-30.117647 0-42.164706 12.047059-12.047059 30.117647-12.047059 42.164706 0l63.247059 63.247059 6.023529 6.023529c3.011765-3.011765 6.023529-3.011765 6.02353-6.023529l63.247059-63.247059c12.047059-12.047059 30.117647-12.047059 42.164705 0 12.047059 12.047059 12.047059 30.117647 0 42.164706l-57.223529 57.223529H632.470588c15.058824 0 30.117647 12.047059 30.117647 30.117647 0 15.058824-15.058824 30.117647-30.117647 30.117647zM722.823529 963.764706c-117.458824 0-210.823529-93.364706-210.823529-210.82353s93.364706-210.823529 210.823529-210.823529 210.823529 93.364706 210.82353 210.823529-93.364706 210.823529-210.82353 210.82353z m0-361.411765c-84.329412 0-150.588235 66.258824-150.588235 150.588235s66.258824 150.588235 150.588235 150.588236 150.588235-66.258824 150.588236-150.588236-66.258824-150.588235-150.588236-150.588235z" p-id="742"></path><path d="M768 834.258824c-9.035294 0-15.058824-3.011765-21.082353-9.035295L704.752941 783.058824l9.035294-12.047059-9.035294 12.047059c-3.011765-3.011765-6.023529-6.023529-9.035294-12.047059 0-3.011765-3.011765-9.035294-3.011765-12.047059V692.705882c0-18.070588 12.047059-30.117647 30.117647-30.117647s30.117647 12.047059 30.117647 30.117647v54.211765l36.141177 36.141177c12.047059 12.047059 12.047059 30.117647 0 42.164705-6.023529 6.023529-12.047059 9.035294-21.082353 9.035295zM722.823529 758.964706z m0-6.02353l-15.058823 3.011765h15.058823V752.941176z" p-id="743"></path></svg>