<?xml version="1.0" standalone="no"?><!DOCTYPE svg PUBLIC "-//W3C//DTD SVG 1.1//EN" "http://www.w3.org/Graphics/SVG/1.1/DTD/svg11.dtd"><svg t="1555579844639" class="icon" style="" viewBox="0 0 1024 1024" version="1.1" xmlns="http://www.w3.org/2000/svg" p-id="828" xmlns:xlink="http://www.w3.org/1999/xlink" width="200" height="200"><defs><style type="text/css"></style></defs><path d="M794.305764 503.530827c-16.938346 0-30.796992 13.858647-30.796992 30.796993 0 166.303759-135.250125 301.553885-301.553885 301.553884-166.047118 0-301.553885-135.506767-301.553884-301.553884S295.907769 232.773935 461.954887 232.773935c40.292732 0 79.045614 7.699248 116.002005 23.097744 15.655138 6.672682 33.62005-0.769925 40.292732-16.681704 6.41604-15.655138-0.769925-33.62005-16.681704-40.292732-44.398997-18.478195-91.364411-27.717293-139.613033-27.717293-200.180451 0-363.14787 162.967419-363.147869 363.14787s162.967419 363.14787 363.147869 363.147869S825.102757 734.508271 825.102757 534.32782c0-17.194987-13.602005-30.796992-30.796993-30.796993z" p-id="829"></path><path d="M461.954887 378.546366c20.78797 0 40.806015 4.106266 59.797494 11.805514 15.655138 6.672682 33.62005-0.769925 40.292732-16.681705 6.41604-15.655138-0.769925-33.62005-16.681704-40.292731-26.434085-11.035589-54.664662-16.681704-83.665163-16.681705-119.851629 0-217.375439 97.52381-217.375439 217.375439s97.52381 217.375439 217.375439 217.375439 217.375439-97.52381 217.375438-217.375439c0-16.938346-13.858647-30.796992-30.796992-30.796993s-30.796992 13.858647-30.796993 30.796993c0 85.974937-69.806516 155.781454-155.781453 155.781454s-155.781454-69.806516-155.781454-155.781454c0.256642-85.718296 70.319799-155.524812 156.038095-155.524812z" p-id="830"></path><path d="M982.680702 315.669173c-1.283208-11.035589-8.725815-20.78797-18.991479-24.894236l-54.151378-21.814536 5.902757-4.106266c13.858647-9.752381 17.451629-29.000501 7.699248-42.859148-9.752381-13.858647-29.000501-17.451629-42.859148-7.699248l-20.78797 14.37193-12.062156-63.133834c-2.053133-10.265664-8.982456-18.734837-18.478195-22.841103-9.495739-3.849624-20.531328-2.823058-29.257143 3.079699l-179.649123 123.18797c-6.672682 4.619549-11.292231 11.548872-12.83208 19.761404l-25.407519 132.94035-131.400501 91.10777c-13.858647 9.752381-17.451629 29.000501-7.699248 42.859148 5.902757 8.725815 15.655138 13.345363 25.407519 13.345363 6.159398 0 12.318797-1.796491 17.451629-5.389474l132.170426-91.877694 135.250125 17.451629c1.283208 0.256642 2.566416 0.256642 3.849624 0.256642 6.41604 0 12.575439-2.053133 17.964913-5.646115l195.047619-139.356391c9.239098-6.672682 14.115288-17.708271 12.83208-28.74386z m-316.952381-3.336341l130.373935-89.311278 8.212531 43.885714-149.878697 104.196491 11.292231-58.770927z m83.408521 113.948872l-55.691228-7.185965 156.038095-108.302757 39.266166 15.91178-139.613033 99.576942z" p-id="831"></path></svg>