<?xml version="1.0" standalone="no"?><!DOCTYPE svg PUBLIC "-//W3C//DTD SVG 1.1//EN" "http://www.w3.org/Graphics/SVG/1.1/DTD/svg11.dtd"><svg t="1545620905359" class="icon" style="" viewBox="0 0 1024 1024" version="1.1" xmlns="http://www.w3.org/2000/svg" p-id="955" xmlns:xlink="http://www.w3.org/1999/xlink" width="200" height="200"><defs><style type="text/css"></style></defs><path d="M815.36 454.4l-0.128 0-60.8-13.44-1.408-4.736c-3.968-12.672-9.216-25.344-16-38.784l-2.176-4.224 32.768-54.528c9.984-16 14.208-38.016 1.152-51.072l-30.72-30.848c-7.68-7.68-17.664-9.344-24.704-9.344-9.6 0-19.84 3.2-27.392 8.448l-0.128 0.128L632.32 290.048l-4.352-2.304c-12.544-6.528-25.472-11.904-38.528-16.128L584.96 270.08l-13.568-61.44 0-0.128c-3.2-17.408-18.432-36.224-37.504-36.224l-43.52 0c-18.432 0-30.976 18.56-35.2 36.864l-15.104 60.672-4.48 1.408c-13.952 4.48-27.648 10.24-40.96 17.28l-4.352 2.304-54.528-34.688L335.36 256c-7.552-5.248-17.792-8.448-27.392-8.448-7.04 0-16.896 1.664-24.704 9.344l-30.72 30.72c-13.056 13.056-8.832 35.072 1.152 51.072l34.304 57.088-2.048 4.224c-6.4 12.8-11.136 24.576-14.848 36.224l-1.536 4.736L208.896 454.4l-0.128 0c-17.408 3.2-36.224 18.432-36.224 37.504l0 43.52c0 18.432 18.56 30.976 36.864 35.2l61.184 15.36 1.408 4.48c3.584 11.008 8.064 21.888 13.824 33.536l2.048 4.224-34.304 57.216c-9.984 16-14.208 37.888-1.152 51.072l30.72 30.72c7.68 7.68 17.664 9.344 24.704 9.344 9.6 0 19.84-3.2 27.392-8.448l0.128-0.128 54.528-34.816 4.352 2.304c13.44 7.04 27.264 12.928 41.216 17.28l4.48 1.408 15.104 60.416c4.224 18.432 16.768 36.864 35.2 36.864l43.52 0c19.2 0 34.432-18.816 37.504-36.224l0-0.128 13.696-61.568 4.608-1.536c12.8-4.096 25.6-9.472 38.016-16l4.352-2.304 53.376 34.048 0.128 0.128c7.552 5.248 17.792 8.448 27.392 8.448 7.04 0 17.024-1.664 24.704-9.344l30.72-30.72c13.056-13.056 8.832-35.072-1.152-51.072L734.72 630.784l2.176-4.224c6.016-11.904 11.136-24.064 15.104-36.096l1.408-4.48 61.184-15.36c18.432-4.224 36.864-16.768 36.864-35.2l0-43.52C851.456 472.832 832.768 457.6 815.36 454.4zM512 664.192c-84.096 0-152.192-68.096-152.192-152.192 0-84.096 68.096-152.192 152.192-152.192S664.192 427.904 664.192 512C664.192 596.096 596.096 664.192 512 664.192z" p-id="956"></path></svg>