<?xml version="1.0" standalone="no"?><!DOCTYPE svg PUBLIC "-//W3C//DTD SVG 1.1//EN" "http://www.w3.org/Graphics/SVG/1.1/DTD/svg11.dtd"><svg t="1554187826790" class="icon" style="" viewBox="0 0 1024 1024" version="1.1" xmlns="http://www.w3.org/2000/svg" p-id="932" xmlns:xlink="http://www.w3.org/1999/xlink" width="200" height="200"><defs><style type="text/css"></style></defs><path d="M954.368 1017.2416c-10.8544 0-19.0464-2.6624-27.0336-10.8544L851.3536 927.744h-2.6624c-27.0336 19.0464-59.5968 27.0336-92.16 27.0336-46.08 0-89.4976-19.0464-121.856-51.4048-67.7888-67.7888-67.7888-178.7904 0-246.5792 32.5632-32.5632 75.9808-48.7424 121.856-48.7424 46.08 0 89.4976 19.0464 121.856 48.7424 54.272 56.9344 65.1264 146.432 24.3712 214.016v2.6624l78.6432 78.6432c16.1792 16.1792 16.1792 37.888 0 54.272-7.9872 5.5296-18.8416 10.8544-27.0336 10.8544z m-197.8368-360.448c-32.5632 0-65.1264 13.5168-89.4976 37.888-48.7424 48.7424-48.7424 127.3856 0 176.128 24.3712 24.3712 56.9344 37.888 89.4976 37.888 32.5632 0 65.1264-13.5168 89.4976-37.888 24.3712-21.7088 37.888-51.4048 37.888-86.6304 0-35.2256-13.5168-67.7888-37.888-92.16-24.3712-21.7088-54.272-35.2256-89.4976-35.2256z m0 0" p-id="933"></path><path d="M146.8416 1022.7712c-65.1264 0-116.5312-51.4048-116.5312-116.5312V117.5552C30.3104 52.4288 81.7152 1.024 146.8416 1.024h653.1072c65.1264 0 116.5312 51.4048 116.5312 116.5312v428.2368c0 13.5168-10.8544 24.3712-24.3712 24.3712s-24.3712-6.7584-24.3712-20.2752V121.6512c0-37.888-26.4192-68.4032-64.3072-68.4032H150.3232c-37.888 0-68.1984 24.9856-68.1984 62.8736v788.6848c0 37.888 26.624 66.9696 64.7168 66.9696h376.6272c13.5168 0 24.3712 12.9024 24.3712 26.4192 0 13.5168-10.8544 24.3712-24.3712 24.3712H146.8416z" p-id="934"></path><path d="M463.872 713.728c-16.1792 0-29.9008-13.5168-29.9008-29.9008v-89.4976h-119.1936c-16.1792 0-29.9008-13.5168-29.9008-29.9008 0-16.1792 13.5168-29.9008 29.9008-29.9008h119.1936v-67.7888h-146.432c-16.1792 0-29.9008-13.5168-29.9008-29.9008 0-16.1792 13.5168-29.9008 29.9008-29.9008h146.432v-29.9008l-135.5776-138.24c-10.8544-10.8544-10.8544-32.5632 0-43.4176 5.3248-5.3248 13.5168-8.192 21.7088-8.192s16.1792 2.6624 21.7088 8.192l121.856 121.856L585.728 196.1984c5.3248-5.3248 13.5168-8.192 21.7088-8.192s16.1792 2.6624 21.7088 8.192c10.8544 10.8544 10.8544 32.5632 0 43.4176l-132.7104 135.5776V407.552h146.432c16.1792 0 29.9008 13.5168 29.9008 29.9008 0 16.1792-13.5168 29.9008-29.9008 29.9008h-146.432V532.48h119.1936c16.1792 0 29.9008 13.5168 29.9008 29.9008 0 16.1792-13.5168 29.9008-29.9008 29.9008h-119.1936v89.4976c-2.8672 18.432-16.384 31.9488-32.5632 31.9488z m0 0" p-id="935"></path></svg>