<?xml version="1.0" standalone="no"?><!DOCTYPE svg PUBLIC "-//W3C//DTD SVG 1.1//EN" "http://www.w3.org/Graphics/SVG/1.1/DTD/svg11.dtd"><svg t="1553572201009" class="icon" style="" viewBox="0 0 1280 1024" version="1.1" xmlns="http://www.w3.org/2000/svg" p-id="3044" xmlns:xlink="http://www.w3.org/1999/xlink" width="250" height="200"><defs><style type="text/css"></style></defs><path d="M1086.49957382 334.99119949V317.12127898a227.47925005 227.47925005 0 0 0-426.46322268-109.15140234h-241.48540366a26.08042373 26.08042373 0 0 0-23.66556921 27.04636588c0 91.76445373-22.6996279 152.61877469-67.61591263 180.63108106C250.47710682 462.49549258 128.76846326 405.02196582 127.31955088 404.05602451A26.08042373 26.08042373 0 0 0 90.13079914 428.20456479v179.66514056a26.08042373 26.08042373 0 0 0 26.08042373 26.08042374h998.30065814a26.08042373 26.08042373 0 0 0 25.59745267-22.6996279 430.80995984 430.80995984 0 0 0-53.60975986-276.2593017z m-392.17229489-75.34344644a174.83543234 174.83543234 0 1 1-9.65941644 57.47352594 174.83543234 174.83543234 0 0 1 9.65941644-57.47352594z m396.03606179 321.6585575H142.29164578V465.8762876a258.87235226 258.87235226 0 0 0 212.50715515-7.24456193c56.02461355-35.25686911 86.93474551-101.90684043 91.76445374-198.98397262h193.18832309a226.99627899 226.99627899 0 0 0 425.98025162 153.10174576 386.37664536 386.37664536 0 0 1 25.11448159 168.55681174zM796.7170896 288.14303131a31.3931022 31.3931022 0 1 0-30.42716089-31.39310302 31.3931022 31.3931022 0 0 0 30.42716089 31.39310302z m126.53835178 0a31.3931022 31.3931022 0 1 0-31.39310303-31.39310302 31.3931022 31.3931022 0 0 0 31.39310303 31.39310302z m-126.53835178 120.74270142A31.3931022 31.3931022 0 1 0 766.28992871 379.90748423a31.3931022 31.3931022 0 0 0 30.42716089 28.9782485z m126.53835178 0a31.3931022 31.3931022 0 1 0-31.39310303-28.9782485 31.3931022 31.3931022 0 0 0 31.39310303 28.9782485z m190.29049749 260.80423572H121.52390134a26.08042373 26.08042373 0 0 0-24.14854028 35.25686911l48.29708056 125.57240963a26.08042373 26.08042373 0 0 0 27.04636505 16.4210073 2173.36863208 2173.36863208 0 0 1 925.8550373 81.62206704 26.08042373 26.08042373 0 0 0 15.45506597 5.31267847h4.82970822a26.56339398 26.56339398 0 0 0 20.76774445-28.97824851v-209.12635931a26.08042373 26.08042373 0 0 0-26.08042374-26.08042373z m-26.08042291 199.46694369l-38.63766495-11.59129989a1898.55824277 1898.55824277 0 0 0-200.91585608-42.98440128A2463.1511163 2463.1511163 0 0 0 186.72496026 792.84752439l-27.04636505-71.47967954h927.78692075z" p-id="3045"></path></svg>