<?xml version="1.0" standalone="no"?><!DOCTYPE svg PUBLIC "-//W3C//DTD SVG 1.1//EN" "http://www.w3.org/Graphics/SVG/1.1/DTD/svg11.dtd"><svg t="1557133322712" class="icon" style="" viewBox="0 0 1024 1024" version="1.1" xmlns="http://www.w3.org/2000/svg" p-id="940" xmlns:xlink="http://www.w3.org/1999/xlink" width="200" height="200"><defs><style type="text/css"></style></defs><path d="M694.242 1024.003 329.763 1024.003C147.915 1024.003 0 876.092 0 694.242L0 329.763C0 147.916 147.915 0 329.763 0l364.479 0c181.85 0 329.761 147.916 329.761 329.763l0 364.479C1024.003 876.092 876.092 1024.003 694.242 1024.003zM329.763 52.083c-153.105 0-277.681 124.575-277.681 277.683l0 364.476c0 153.1 124.575 277.691 277.681 277.691l364.479 0c153.1 0 277.681-124.58 277.681-277.691L971.923 329.763c0-153.105-124.58-277.681-277.681-277.681L329.763 52.082 329.763 52.083z" p-id="941"></path><path d="M485.971 631.882l-60.153 0 0-35.44 60.153 0 0-19.08-60.153 0 0-35.44 42.383 0-50.585-102.235 49.218 0 32.807 68.155c4.105 8.18 6.835 16.36 8.205 23.17 1.365-6.81 5.47-14.99 8.205-23.17l32.81-68.155 49.215 0-50.58 102.235 42.38 0 0 35.44-61.52 0 0 19.08 61.52 0 0 35.44-61.52 0 0 43.62-45.115 0 0-43.62L485.971 631.882zM126.42 498.296l362.286 419.846c9.57 10.9 27.345 10.9 36.915 0l362.291-419.846c13.665-14.995 1.365-38.165-19.145-38.165l-153.12 0L715.647 188.868c0-35.443-30.075-64.068-66.98-64.068L365.663 124.8c-36.913 0-66.988 28.625-66.988 64.068l0 271.263L145.56 460.131C125.053 460.131 114.115 483.301 126.42 498.296zM246.726 509.201l110.735 0L357.461 232.486c0-25.895 21.875-46.345 47.85-46.345l205.071 0c27.345 0 47.845 20.45 47.845 46.345l0 276.718 110.745 0c15.035 0 23.24 16.358 13.665 27.268L521.516 839.082c-6.835 8.18-20.505 8.18-27.345 0L233.056 536.466C223.486 525.556 231.688 509.201 246.726 509.201z" p-id="942"></path></svg>