<?xml version="1.0" standalone="no"?><!DOCTYPE svg PUBLIC "-//W3C//DTD SVG 1.1//EN" "http://www.w3.org/Graphics/SVG/1.1/DTD/svg11.dtd"><svg t="1555307369467" class="icon" style="" viewBox="0 0 1024 1024" version="1.1" xmlns="http://www.w3.org/2000/svg" p-id="1083" xmlns:xlink="http://www.w3.org/1999/xlink" width="200" height="200"><defs><style type="text/css"></style></defs><path d="M694.242 1024.003 329.763 1024.003C147.915 1024.003 0 876.092 0 694.242L0 329.763C0 147.916 147.915 0 329.763 0l364.479 0c181.85 0 329.761 147.916 329.761 329.763l0 364.479C1024.003 876.092 876.092 1024.003 694.242 1024.003zM329.763 52.083c-153.105 0-277.681 124.575-277.681 277.683l0 364.476c0 153.1 124.575 277.691 277.681 277.691l364.479 0c153.1 0 277.681-124.58 277.681-277.691L971.923 329.763c0-153.105-124.58-277.681-277.681-277.681L329.763 52.082 329.763 52.083z" p-id="1084"></path><path d="M484.884 602.757l-61.92 0 0-35.95 61.92 0 0-19.335-61.92 0 0-35.943 43.663 0-52.133-103.645 50.703 0 33.763 69.093c4.178 8.315 7.038 16.63 8.463 23.543 1.44-6.912 5.615-15.228 8.475-23.543l33.76-69.093 50.71 0-52.135 103.645 43.66 0 0 35.943-63.35 0 0 19.335 63.35 0 0 35.95-63.35 0 0 44.265-46.41 0 0-44.265L484.884 602.757 484.884 602.757zM114.57 522.542c-12.648 15.225-1.43 38.65 19.688 38.65l157.715 0 0 274.981c0 35.95 31.015 65 68.958 65l291.451 0c38.055 0 68.965-29.05 68.965-65L721.347 561.292l157.715 0c21.115 0 33.76-23.525 19.685-38.645L525.681 96.948c-9.9-11.015-28.15-11.015-38.055 0L114.57 522.542 114.57 522.542zM238.518 511.529c-15.505 0-23.973-16.628-14.075-27.64l268.906-306.831c7.042-8.315 21.118-8.315 28.158 0l268.906 306.831c9.895 11.012 1.43 27.64-14.07 27.64l-114.06 0 0 280.483c0 26.24-21.11 46.97-49.265 46.97L401.846 838.982c-26.728 0-49.275-20.73-49.275-46.97L352.571 511.529 238.518 511.529 238.518 511.529z" p-id="1085"></path></svg>