<?xml version="1.0" standalone="no"?><!DOCTYPE svg PUBLIC "-//W3C//DTD SVG 1.1//EN" "http://www.w3.org/Graphics/SVG/1.1/DTD/svg11.dtd"><svg t="1545184619824" class="icon" style="" viewBox="0 0 1024 1024" version="1.1" xmlns="http://www.w3.org/2000/svg" p-id="2275" xmlns:xlink="http://www.w3.org/1999/xlink" width="200" height="200"><defs><style type="text/css"></style></defs><path d="M776.29 507.83h-41.53a9.3 9.3 0 0 0-6.83 3l-8.36 9a188.45 188.45 0 0 0-48.22-6.27h-47.43a10.5 10.5 0 0 0-7.83 3.54l-10.75 12-34.58 38.67-49.62 55.49a10.41 10.41 0 0 1-15.67 0l-32.85-36.93-33.38-37.53-28.18-31.68a10.5 10.5 0 0 0-7.84-3.57H355.5a188.47 188.47 0 0 0-50.4 6.87 201.46 201.46 0 0 0-73.56 38.48c-53 43.24-87.57 113.3-87.57 192v58a130 130 0 0 0 8.11 45.41c16 42.87 53.78 73.19 97.6 73.19h527.5c43.88 0 81.73-30.41 97.66-73.37 47.59-3.62 85.5-46.78 85.5-99v-48.58c0-109.3-82.82-198.72-184.05-198.72z m49.62 301.1c0 16.58-5.64 32-15.88 43.53-5.28 5.92-16.57 15.86-32.85 15.86h-527.5c-14.59 0-25.16-8-31-13.9-0.68-0.69-1.3-1.35-1.85-2C206.59 841 201 825.51 201 808.93v-58a198.26 198.26 0 0 1 12.73-70.47 181.83 181.83 0 0 1 34.23-56.91 155.75 155.75 0 0 1 49.61-37.62 135.41 135.41 0 0 1 56-13.09H383l16.63 18.69L433 629l30.66 34.46a65.94 65.94 0 0 0 99.25 0.14l54.92-61.42 26.29-29.4h27.26c40.22 0 78.42 18 107.59 50.74a181.83 181.83 0 0 1 34.23 56.91 198.26 198.26 0 0 1 12.73 70.47z m84.43-53.81a52.87 52.87 0 0 1-13.7 36.16 43.22 43.22 0 0 1-13.75 10v-50.36c0-78.38-34.33-148.19-86.94-191.48 27.53 4.55 53.16 18.61 73.65 40.73a150.83 150.83 0 0 1 29.7 47.52 160 160 0 0 1 11.05 58.85zM384 493.34a166.16 166.16 0 0 0 58.52-10.58A190.56 190.56 0 0 1 382 443.32a116.61 116.61 0 0 1-46.68-222.46 200 200 0 0 1 37.74-60.24 166.54 166.54 0 0 0 11 332.73z" p-id="2276"></path><path d="M143.85 802.39a42.32 42.32 0 0 1-16.49-11.11 52.87 52.87 0 0 1-13.7-36.16v-48.57a160 160 0 0 1 11.05-58.85 150.83 150.83 0 0 1 29.7-47.52c21.32-23 48.21-37.32 77-41.24A201.46 201.46 0 0 1 305 520.46l-8.91-9.64a9.3 9.3 0 0 0-6.83-3h-41.55c-101.23 0-184.05 89.42-184.05 198.72v48.57c0 53.29 39.4 97.12 88.3 99.22a130 130 0 0 1-8.11-45.41zM320.76 297.38c0 57.68 23.63 109.61 61.37 145.94a190.56 190.56 0 0 0 60.54 39.44 185.3 185.3 0 0 0 138.89 0 166.56 166.56 0 1 0 69.6-322.17c-34.89-38.28-84.25-62.17-139-62.17s-104.09 23.88-139 62.15a200 200 0 0 0-37.74 60.24 205 205 0 0 0-14.66 76.57z m401.61-53a116.54 116.54 0 0 1-80.16 198.93C679.95 407 703.58 355 703.58 297.38A205 205 0 0 0 688.94 221a116.58 116.58 0 0 1 33.44 23.38z m-210.2-86.71c35.91 0 69.67 14.53 95.06 40.92s39.37 61.47 39.37 98.78-14 72.4-39.37 98.78-59.15 40.92-95.06 40.92h-3.18a129.66 129.66 0 0 1-57.62-15 135.08 135.08 0 0 1-34.25-25.88c-25.39-26.39-39.37-61.47-39.37-98.78a142.19 142.19 0 0 1 27.85-85.17 140.36 140.36 0 0 1 11.52-13.62 135.29 135.29 0 0 1 32.55-25 129.74 129.74 0 0 1 62.5-15.94z" p-id="2277"></path></svg>