<?xml version="1.0" standalone="no"?><!DOCTYPE svg PUBLIC "-//W3C//DTD SVG 1.1//EN" "http://www.w3.org/Graphics/SVG/1.1/DTD/svg11.dtd"><svg t="1554637270446" class="icon" style="" viewBox="0 0 1434 1024" version="1.1" xmlns="http://www.w3.org/2000/svg" p-id="1927" xmlns:xlink="http://www.w3.org/1999/xlink" width="280.078125" height="200"><defs><style type="text/css"></style></defs><path d="M0 120.792305 0 902.500751C0 925.884092 23.908891 941.649569 45.401624 932.43842 51.204376 929.951475 62.564865 925.421651 78.719233 919.527537 105.873452 909.619886 136.311488 899.694474 169.261754 890.427176 274.49306 860.8309 380.254471 844.66732 478.053196 848.85872 577.976641 853.141174 663.080733 878.672371 729.594491 928.557703 795.445682 977.946045 872.044186 1006.670516 956.809957 1017.266224 1067.385515 1031.088169 1184.577024 1013.891608 1299.544671 976.937683 1330.052829 967.131476 1358.086735 956.618787 1383.062849 946.081991 1398.208803 939.692269 1409.094158 934.649794 1415.127183 931.633307 1426.161789 926.116004 1433.132082 914.837817 1433.132082 902.500751L1433.132082 120.792356C1433.132082 95.474952 1405.512659 79.837076 1383.803164 92.862762 1380.104711 95.081865 1372.226016 99.360788 1360.47894 105.024577 1340.470471 114.671501 1317.20178 124.366793 1290.986621 133.441283 1110.49249 195.920007 907.081604 195.920007 698.561142 91.659801 472.5881-21.326746 269.823403-21.326746 102.26979 47.217915 59.726598 64.621973 29.610863 82.298582 13.02845 94.735405 4.82684 100.886613 0 110.540293 0 120.792305L0 120.792305ZM94.414434 151.857849 82.008783 175.841212C84.547985 174.000354 90.330725 170.254044 99.201403 165.221038 114.477362 156.553916 132.546087 147.821023 153.252849 139.63272 296.958173 82.80586 471.461249 82.80586 669.812257 178.672057 884.781506 282.570141 1095.426689 282.570141 1281.94627 220.160054 1309.248818 211.024502 1333.61365 201.211284 1354.765144 191.353536 1367.701721 185.324349 1376.855442 180.518853 1381.948794 177.564809L1334.978094 151.857849 1334.978094 871.358842 1352.122244 844.544583C1347.5288 846.764709 1338.366377 850.867408 1325.220205 856.228397 1303.055538 865.267109 1278.059104 874.327985 1250.823913 882.790067 1149.227337 914.356439 1046.15873 928.975973 951.148778 917.496022 880.668571 908.979941 817.918575 886.233883 764.318821 847.375479 689.95027 793.460231 596.996812 766.504706 490.241626 762.082163 389.664774 757.915536 282.771035 773.707013 176.76246 802.527044 143.811938 811.485143 113.351228 821.086565 86.081334 830.704365 69.587776 836.521449 57.718934 841.096057 51.183289 843.803602L94.414434 871.358842 94.414434 151.857849 94.414434 151.857849ZM389.355934 381.492083 449.547482 381.492083 521.13893 521.483035 592.730378 381.492083 652.921925 381.492083 564.002631 541.546884 624.65017 541.546884 624.65017 569.81869 548.04276 569.81869 547.586717 570.274682 547.586717 609.490397 624.65017 609.490397 624.65017 637.762151 547.586717 637.762151 547.586717 707.07364 494.691143 707.07364 494.691143 637.762151 418.083732 637.762151 418.083732 609.490397 494.691143 609.490397 494.691143 570.274682 494.235151 569.81869 418.083732 569.81869 418.083732 541.546884 478.27528 541.546884 389.355934 381.492083ZM870.888314 338.17239 899.16012 338.17239 899.16012 375.564137C925.912039 377.388104 947.647636 384.988004 964.36763 398.363937 982.91154 412.651906 994.463353 436.5155 999.023323 469.955436L950.687719 469.955436C947.951716 450.195462 940.80786 436.211727 929.255894 428.003719 921.655892 421.923759 911.62407 418.275823 899.16012 417.059811L899.16012 521.483035C924.392048 530.907004 943.695672 538.35489 957.071657 543.826844 988.687574 561.762799 1004.495328 586.994369 1004.495328 619.522321 1004.495328 651.442216 992.487524 675.761802 968.471557 692.481745 950.231625 704.337739 927.128051 711.177618 899.16012 713.001586L899.16012 753.129284 870.888314 753.129284 870.888314 713.001586C840.184381 711.177618 816.472801 702.209743 799.752858 686.097807 780.904868 668.161852 770.113076 640.498308 767.377074 603.106407L816.624713 603.106407C818.448732 628.338336 824.680604 645.970057 835.320586 656.002033 843.528543 664.20999 855.384333 669.225901 870.888314 671.04992L870.888314 559.786766 819.360716 540.6349C787.440769 523.610929 771.481052 498.379359 771.481052 464.939474 771.481052 435.147524 782.88085 412.347928 805.680804 396.53997 822.704776 383.771991 844.440373 376.780149 870.888314 375.564137L870.888314 338.17239ZM899.16012 569.81869 899.16012 671.04992C913.448038 669.225901 925.607856 665.121974 935.639832 658.737984 948.711788 649.314015 955.247689 636.85027 955.247689 621.346289 955.247689 600.066325 939.287972 583.954644 907.368026 573.010634L899.16012 569.81869ZM870.888314 510.995118 870.888314 416.603819C858.424364 417.515803 848.088514 420.85976 839.880557 426.635743 827.416556 434.539723 821.184683 447.307497 821.184683 464.939474 821.184683 483.483435 837.1444 498.683132 869.064346 510.539127L870.888314 510.995118Z" p-id="1928"></path></svg>