<?xml version="1.0" standalone="no"?><!DOCTYPE svg PUBLIC "-//W3C//DTD SVG 1.1//EN" "http://www.w3.org/Graphics/SVG/1.1/DTD/svg11.dtd"><svg t="1552912405826" class="icon" style="" viewBox="0 0 1024 1024" version="1.1" xmlns="http://www.w3.org/2000/svg" p-id="1637" xmlns:xlink="http://www.w3.org/1999/xlink" width="200" height="200"><defs><style type="text/css"></style></defs><path d="M512 375.466667a238.933333 238.933333 0 0 0-238.933333 238.933333v204.8h477.866666v-204.8a238.933333 238.933333 0 0 0-238.933333-238.933333z m0-68.266667a307.2 307.2 0 0 1 307.2 307.2v273.066667H204.8v-273.066667a307.2 307.2 0 0 1 307.2-307.2z m0-273.066667a34.133333 34.133333 0 0 1 34.133333 34.133334v102.4a34.133333 34.133333 0 0 1-68.266666 0V68.266667a34.133333 34.133333 0 0 1 34.133333-34.133334z m452.027733 228.932267a34.133333 34.133333 0 0 1 0 48.264533l-72.430933 72.430934a34.133333 34.133333 0 1 1-48.264533-48.298667l72.3968-72.362667a34.133333 34.133333 0 0 1 48.298666 0z m-905.762133 0a34.133333 34.133333 0 0 1 48.264533 0l72.430934 72.3968a34.133333 34.133333 0 0 1-48.298667 48.298667L58.299733 311.296a34.133333 34.133333 0 0 1 0-48.264533zM763.426133 119.466667a34.133333 34.133333 0 0 1 12.4928 46.626133l-51.2 88.6784a34.133333 34.133333 0 0 1-59.118933-34.133333L716.8 131.959467a34.133333 34.133333 0 0 1 46.626133-12.4928z m-529.066666 0a34.133333 34.133333 0 0 1 46.626133 12.4928l51.2 88.6784a34.133333 34.133333 0 1 1-59.118933 34.133333L221.866667 166.0928A34.133333 34.133333 0 0 1 234.359467 119.466667zM170.666667 955.733333h682.666666a34.133333 34.133333 0 0 1 0 68.266667H170.666667a34.133333 34.133333 0 0 1 0-68.266667z" p-id="1638"></path></svg>