<?xml version="1.0" standalone="no"?><!DOCTYPE svg PUBLIC "-//W3C//DTD SVG 1.1//EN" "http://www.w3.org/Graphics/SVG/1.1/DTD/svg11.dtd"><svg t="1557206922255" class="icon" style="" viewBox="0 0 1024 1024" version="1.1" xmlns="http://www.w3.org/2000/svg" p-id="2174" xmlns:xlink="http://www.w3.org/1999/xlink" width="200" height="200"><defs><style type="text/css"></style></defs><path d="M511.968376 13.878108c-280.291554 0-498.036751 217.743981-498.036751 498.363938 0 279.965582 217.745197 498.036751 498.036751 498.036751 280.359667 0 498.098783-218.071168 498.098782-498.036751C1010.064726 231.622088 792.392507 13.878108 511.968376 13.878108z m0 927.42248c-229.274608 0-429.452627-200.113554-429.452627-429.119358 0-229.669909 200.178019-429.653318 429.452627-429.653318 229.202846 0 429.452627 200.050306 429.452627 429.653318 0.065681 229.069052-200.249781 429.119358-429.452627 429.119358z" p-id="2175"></path><path d="M458.962762 745.011115c93.364026 2.026374 211.697699 1.217527 354.997371-2.435054-4.46751 13.396448-10.152547 29.42621-17.050247 48.103881-148.170996 0.808847-262.443407 0-342.819665-2.436271-71.448536 0.808847-120.974284-22.732851-148.576028-70.633608-16.645215 15.422822-41.001841 42.6244-73.069878 81.595002l-24.965998-50.540152c38.158106-36.939363 65.154127-62.717856 80.98563-77.331831V469.172476H217.2234v-45.059454h113.867379v258.180237c24.760441 41.810688 67.384841 62.717856 127.871983 62.717856zM275.679303 215.863564c25.574153 30.445479 49.321408 60.691482 71.242979 90.728281l-43.232555 29.837323c-22.734067-36.125651-45.059454-67.589181-66.981026-94.382079l38.970602-26.183525z m350.735416-6.088852l-17.050246 17.050246c47.495725 52.775731 118.328808 92.150148 212.511411 118.129333-9.338835 14.613976-17.658402 28.82292-24.964782 42.6244-97.426505-33.285565-170.092568-77.333048-217.992108-132.135153-43.438112 45.873166-114.07172 91.136961-211.902039 135.787734-8.120092-12.177705-18.472114-25.773628-31.054851-40.796284 105.951628-39.779449 181.457777-86.667018 226.516015-140.660276h63.9366zM431.560494 711.521211h-40.188129V413.151628h182.675304v233.823611c0 42.219368-19.486517 63.531568-58.455903 63.935384-14.615192 0.409897-32.682274 0.409897-54.193949 0-2.031239-12.986552-4.871325-27.195496-8.525123-42.6244 20.294148 1.218744 37.95255 1.826899 52.975205 1.826899 18.672805 0 28.009208-10.350806 28.009208-31.053634v-24.356627h-102.296613v96.81835z m102.29783-261.834036h-102.296614v46.886354h102.296614v-46.886354z m-102.29783 129.698883H533.857107v-47.495726h-102.296613v47.495726z m43.841927-236.868038h198.506807v36.535548H475.402421v-36.535548z m276.448011 63.327228v237.476193c0 43.03308-17.458927 65.358467-52.367051 66.981026-21.920355 0.812496-48.714469 0.812496-80.377474 0-1.217527-12.987768-3.653798-26.792897-7.307596-41.406873 27.601744 1.627424 51.348998 2.436271 71.242979 2.436271 19.07662 0 28.61858-12.987768 28.61858-38.970602V405.845248h40.190562zM620.32465 427.76682h38.970602v199.724334h-38.970602V427.76682z" p-id="2176"></path></svg>