<?xml version="1.0" standalone="no"?><!DOCTYPE svg PUBLIC "-//W3C//DTD SVG 1.1//EN" "http://www.w3.org/Graphics/SVG/1.1/DTD/svg11.dtd"><svg t="1556011092755" class="icon" style="" viewBox="0 0 1024 1024" version="1.1" xmlns="http://www.w3.org/2000/svg" p-id="785" xmlns:xlink="http://www.w3.org/1999/xlink" width="200" height="200"><defs><style type="text/css"></style></defs><path d="M312.2 862.3c-16.5 0-29.2-1.2-41.1-3.8-55.9-12.4-89.3-53.8-89.3-110.9V255.7c0-27.9 8.4-51.9 24.4-69.5 16-17.5 39.2-28.2 67-30.7h0.6c67.2 0 134.4 0 201.6-0.1 66.8 0 133.5 0 200.3-0.1h0.7l0.7 0.1c21.4 4.6 37.2 12.8 48.4 24.9 11.3 12.2 18 28.6 20.6 50.1 1.6 13.8 2.5 27.1 2.5 39.7 0.2 117.4 0.1 236.5 0.1 351.6 0 1.3 0 2.7 0.1 4.1 0.1 4.2 0.2 8.5-0.5 12.9-3.3 18-14.9 28.3-31.9 28.3H715c-16.7-0.6-27.9-11.1-30.7-28.9-0.7-4.3-0.6-8.5-0.4-12.5 0-1.5 0.1-3 0.1-4.4V267.9c0-7.8 0-15.2-0.4-22.8-0.6-12.6-2.2-19-5.5-22.2-3.3-3.2-9.8-4.5-22.3-4.5h-366c-17.5 0-28.8 3.1-35.5 9.7-6.7 6.6-9.8 17.6-9.8 34.7v483c0 30.9 20.9 52.2 51.9 53 7.3 0.2 15.3 0.3 25 0.3 5.8 0 11.8 0 17.5-0.1 5.8 0 11.7-0.1 17.6-0.1h7.2c14.3 0.1 25.1 3.7 31.9 10.6 5.3 5.5 8 12.7 7.8 21.4-0.2 9.4-3.8 17.2-10.5 22.6-6.5 5.2-15.4 7.8-26.6 7.8h-2c-2.7-0.1-5.4-0.1-8.3-0.1-7.2 0-14.6 0.2-21.7 0.5-7.2 0.4-14.7 0.6-22.1 0.6z" p-id="786"></path><path d="M476.9 620.8c-16.5 0-27.7-10.3-30-27.7-1.6-11.8-1.1-23.7-0.6-34.9 0.1-2.5-0.1-3.5-0.3-3.9-0.3-0.1-1.2-0.4-3.6-0.4h-0.7c-11.5 0.3-22 0.4-32 0.4-10.1 0-19.5-0.1-28.7-0.4-12.4-0.4-21.9-4-28.1-10.6-5.2-5.5-7.7-13-7.4-21.7 0.4-10.8 5.6-29.1 35.6-29.9 10.1-0.3 20.3-0.4 30.3-0.4 10.1 0 20.3 0.1 30.3 0.4h0.6c2.7 0 3.9-0.4 4.2-0.6 0.2-1-0.1-3.6-0.4-5.2-0.4-2.8-0.9-6.1-0.3-9.2 0.8-4.4 0.5-5.6 0.4-5.9-0.2-0.1-1.1-0.6-3.5-0.6h-1.2c-7.9 0.4-16.3 0.6-26.4 0.6-7.3 0-14.7-0.1-21.9-0.2-4.1-0.1-8.3-0.1-12.4-0.2-21.7-0.3-34.9-11.6-35.4-30.1-0.2-8.5 2.5-16 7.8-21.5 6.3-6.6 16-10.1 28.1-10.3h0.2c7.5 0.1 14.8 0.1 23.1 0.2l-1.2-1.1c-15.5-15.3-28.9-28.6-42.4-42.1-24.5-24.5-18.2-41.7-8.5-51.7 5.9-6.2 12.8-9.3 20.4-9.3 10.2 0 21.2 5.8 32.8 17.4 5.9 5.9 12 11.9 17.9 17.6 15.4 15.1 31.3 30.7 46.1 46.9 4.4 4.8 6.4 5.3 7.1 5.3 2.2 0 6.6-4.5 8-6 17.3-18.2 35.5-36.1 53.1-53.5 4.9-4.9 9.8-9.7 14.8-14.6 8.8-8.7 18.3-13.3 27.4-13.3 7.5 0 14.5 3.1 20.3 8.9 6.5 6.4 9.8 13.5 9.8 20.9 0 8.7-4.5 17.7-13.4 26.7-13.7 13.8-27.5 27.3-42.1 41.6-2.2 2.1-4.4 4.3-6.5 6.4 2.1 0.2 4 0.2 5.8 0.2 2.6 0 5.2-0.1 7.8-0.2 2.6-0.1 5.3-0.2 8-0.2 1.1 0 2.1 0 3.1 0.1 31.3 1.2 35.6 20.5 35.4 31.8-0.4 18.8-13.2 29.8-35.3 30.1-2.5 0-5 0.1-7.5 0.1-8.5 0.1-17.2 0.2-25.9 0.2-10.4 0-19.1-0.2-27.3-0.5h-0.9c-1.9 0-2.8 0.3-3 0.4-0.3 1.1 0.1 4 0.3 5.7 0.1 0.7 0.2 1.3 0.3 1.9 0.3 2.6 0 5.2-0.4 7.7-0.2 1.6-0.6 4.2-0.3 5.2 0.3 0.2 1.4 0.5 3.8 0.5h0.5c7.8-0.1 16.2-0.2 25.8-0.2 9.8 0 19.8 0.1 29.4 0.1 13.1 0.1 22.7 2.4 29.4 7.1 7.2 5.1 10.9 12.9 11.2 23.3 0.2 9.1-2.3 16.4-7.4 21.7-6.7 6.9-17.4 10.2-33.7 10.3-3.7 0-7.4 0.1-11 0.1-5.7 0.1-11.7 0.2-17.6 0.2-8.2 0-15.1-0.1-21.5-0.5-0.7 0-1.5-0.1-2.1-0.1-4.5 0-5.6 0.8-5.8 1.1-0.1 0.1-1.1 1.4-0.6 6.5 1 9.6 0.5 19.2-0.1 28.6l-0.1 0.9c-1.1 18.2-11.9 29-29.5 29.8-0.9 0.1-1.5 0.1-2.1 0.1zM566.4 871.7c-8.1 0-16.6-4.1-24.4-11.7-24.6-24.2-51.5-50.8-82-81.3-6.9-6.9-10.3-14-10.1-21.3 0.1-7.3 3.7-14.2 10.8-21.3 23.6-23.6 49.6-49.5 79.3-79 8.9-8.8 17.3-13.1 25.5-13.1 6.7 0 13 2.9 18.8 8.7 5.8 5.8 8.7 12.2 8.6 19-0.1 8.2-4.7 16.7-13.6 25.2-9.5 9.1-19.6 17.8-29.3 26.3-2.5 2.2-5.1 4.5-7.7 6.7h113.2c64.6 0 131.5 0 197.2 0.1 5.7 0 12.3 0.1 18.8 1.3 12.5 2.5 20.1 11.5 20.9 24.8 0.8 12.8-5.2 22.5-16.9 27.3-7 2.9-14 3.1-20 3.1H547.2l3.9 3.9c10.7 10.5 20.7 20.4 30.5 30.2 7.8 7.9 11.8 16.4 11.8 24.7-0.1 6.8-2.9 13.2-8.2 18.4-5.5 5.2-12 8-18.8 8z" p-id="787"></path></svg>