<?xml version="1.0" standalone="no"?><!DOCTYPE svg PUBLIC "-//W3C//DTD SVG 1.1//EN" "http://www.w3.org/Graphics/SVG/1.1/DTD/svg11.dtd"><svg t="1554789811989" class="icon" style="" viewBox="0 0 1024 1024" version="1.1" xmlns="http://www.w3.org/2000/svg" p-id="3719" xmlns:xlink="http://www.w3.org/1999/xlink" width="200" height="200"><defs><style type="text/css"></style></defs><path d="M892.928 515.072c-15.872 0-28.7232-15.104-28.7232-33.6384V171.3664c0-29.3376-20.224-53.0944-45.056-53.0944H204.8c-24.832 0-45.056 23.9104-45.056 53.0944v681.0624c0 29.2864 20.224 53.0432 45.056 53.0432h278.528c15.872 0 28.7232 15.104 28.7232 33.6896 0 18.5344-12.9024 33.6384-28.672 33.6384H204.6464C148.3776 972.8 102.4 918.8352 102.4 852.48V171.52C102.4 105.1136 148.2752 51.2 204.6976 51.2h614.4c56.4736 0 102.4 53.9648 102.5024 120.32v309.9136c0 18.5344-12.9024 33.6384-28.672 33.6384z m-414.5664 2.7136H383.4368c-7.6288-0.6144-23.808-6.144-23.808-25.3952s16.1792-23.2448 23.808-23.8592h94.9248v-39.424l-94.9248-0.4096C375.808 428.032 358.4 424.0384 358.4 406.1696c0-23.4496 17.408-25.088 25.088-25.7536h89.7536L388.864 245.248c-9.8816-13.824-7.7824-25.3952 6.2976-34.6624 13.7216-8.0896 26.368-5.5808 38.0416 7.6288l71.7312 115.968 80.4864-113.7664c13.7216-16.7424 27.392-20.0192 41.0112-9.8304s15.616 21.7088 6.0416 34.6112l-97.792 135.168h92.16c7.3728 0.6656 24.6272 6.656 24.6272 25.7536 0 20.0704-17.664 22.8864-25.0368 23.5008l-91.7504 0.4608v38.4512h92.16c7.3728 0.6144 24.6272 2.56 24.6272 23.8592 0 21.3504-17.2544 24.32-24.576 24.9344l-92.16-0.4608v49.4592c0 19.5072-8.7552 29.2864-26.2144 29.2864-20.1216 0-30.208-9.7792-30.208-29.2864v-48.5376z m276.0704 450.7648a189.952 189.952 0 0 1-135.2192-55.9616A189.952 189.952 0 0 1 563.2 777.3696a189.952 189.952 0 0 1 56.0128-135.168 189.952 189.952 0 0 1 135.168-56.064 189.952 189.952 0 0 1 135.2192 56.0128 191.4368 191.4368 0 0 1 0 270.4384 189.952 189.952 0 0 1-135.168 55.9616z m-0.6656-327.68a135.68 135.68 0 0 0-96.5632 39.936 135.68 135.68 0 0 0-39.9872 96.5632c0 36.5056 14.1824 70.7584 39.936 96.5632a135.68 135.68 0 0 0 96.6144 39.9872 135.68 135.68 0 0 0 96.5632-39.936 136.704 136.704 0 0 0 0-193.1264 135.68 135.68 0 0 0-96.5632-39.9872z m28.3648 172.544c-5.0176 2.9184-25.9072 13.0048-62.6176 30.3104-14.336 4.1472-24.064 0.1536-29.184-12.032-5.12-12.1856-0.4096-21.8112 14.08-28.928 34.7136-17.92 52.1216-27.0848 52.1216-27.648v-9.216-68.5056c0-9.472 11.52-19.968 23.1424-19.968s23.552 10.496 23.552 19.968v76.544a52.736 52.736 0 0 1-3.7376 23.04c-2.56 5.5296-8.3968 11.008-17.3568 16.4352z" p-id="3720"></path></svg>