<?xml version="1.0" standalone="no"?><!DOCTYPE svg PUBLIC "-//W3C//DTD SVG 1.1//EN" "http://www.w3.org/Graphics/SVG/1.1/DTD/svg11.dtd"><svg t="1555921314416" class="icon" style="" viewBox="0 0 1024 1024" version="1.1" xmlns="http://www.w3.org/2000/svg" p-id="2510" xmlns:xlink="http://www.w3.org/1999/xlink" width="200" height="200"><defs><style type="text/css"></style></defs><path d="M682.66408 556m-85.336 0a85.336 85.336 0 1 0 170.672 0 85.336 85.336 0 1 0-170.672 0Z" p-id="2511"></path><path d="M981.33608 300h-61.168l-115.584-192.624a42.544 42.544 0 0 0-27.872-19.808 42.784 42.784 0 0 0-33.504 7.04L455.66408 300h146.832l152.712-109.064 65.456 109.064H640.00008v85.336h298.664v341.336h-512V641.336H341.33608v128A42.68 42.68 0 0 0 384.00008 812h293.624l-9.544 19.104a42.352 42.352 0 0 1-38.128 23.568H359.00008L256.00008 751.664V531.008L359.00008 428H512.00008v42.664a42.696 42.696 0 0 1-42.664 42.664H384.00008v85.336h85.336c70.584 0 128-57.416 128-128V385.336a42.656 42.656 0 0 0-42.664-42.664H341.33608c-11.288 0-22.168 4.48-30.168 12.52l-78.208 78.216c-5.96-3.168-12.424-5.4-19.624-5.4H42.66408A42.664 42.664 0 0 0 0.00008 470.672V812a42.68 42.68 0 0 0 42.664 42.664h170.664c7.208 0 13.664-2.232 19.624-5.4l78.208 78.248c8 7.96 18.872 12.48 30.168 12.48h288.624c48.792 0 92.664-27.104 114.464-70.768l28.624-57.232h208.288a42.656 42.656 0 0 0 42.664-42.664V342.672a42.64 42.64 0 0 0-42.656-42.672zM170.66408 769.336H85.33608v-256h85.336v256z" p-id="2512"></path></svg>