<?xml version="1.0" standalone="no"?><!DOCTYPE svg PUBLIC "-//W3C//DTD SVG 1.1//EN" "http://www.w3.org/Graphics/SVG/1.1/DTD/svg11.dtd"><svg t="1554711619584" class="icon" style="" viewBox="0 0 1024 1024" version="1.1" xmlns="http://www.w3.org/2000/svg" p-id="3541" xmlns:xlink="http://www.w3.org/1999/xlink" width="200" height="200"><defs><style type="text/css"></style></defs><path d="M948.589714 902.217143l-78.262857-98.669714a216.795429 216.795429 0 1 0-64.219428 48.493714l79.433142 100.205714c6.509714 8.192 25.819429 3.657143 43.227429-10.24 17.408-13.824 26.331429-31.597714 19.748571-39.789714zM554.569143 653.824a155.794286 155.794286 0 1 1 311.442286 0 155.794286 155.794286 0 0 1-311.442286 0z" p-id="3542"></path><path d="M477.257143 827.977143H230.4c-34.523429 0-72.704-23.405714-72.704-57.856V142.848c0-31.890286 20.041143-54.272 50.322286-57.417143h601.161143c30.281143 3.145143 50.249143 25.6 50.249142 57.417143V413.257143c33.426286 21.650286 61.952 50.029714 83.821715 83.236571V131.145143c0-66.486857-40.667429-129.901714-115.785143-129.901714h-18.285714V0.731429h-623.908572v0.512C107.154286 3.510857 73.874286 65.828571 73.874286 131.145143v658.724571c0 71.387429 43.154286 121.856 121.929143 121.856H580.754286a287.232 287.232 0 0 1-103.570286-83.748571z" p-id="3543"></path><path d="M715.995429 214.016H296.594286a38.838857 38.838857 0 1 0 0 77.677714h419.401143a38.838857 38.838857 0 1 0 0-77.677714zM257.755429 445.586286c0 21.430857 17.334857 38.838857 38.765714 38.838857h176.493714c23.04-31.378286 52.224-57.782857 85.869714-77.677714H296.594286a38.765714 38.765714 0 0 0-38.838857 38.838857zM257.755429 640.512c0 21.504 17.334857 38.838857 38.765714 38.838857H419.108571a289.792 289.792 0 0 1 3.437715-77.604571H296.594286a38.765714 38.765714 0 0 0-38.838857 38.765714z" p-id="3544"></path></svg>