<?xml version="1.0" standalone="no"?><!DOCTYPE svg PUBLIC "-//W3C//DTD SVG 1.1//EN" "http://www.w3.org/Graphics/SVG/1.1/DTD/svg11.dtd"><svg t="1554703796440" class="icon" style="" viewBox="0 0 1024 1024" version="1.1" xmlns="http://www.w3.org/2000/svg" p-id="3331" xmlns:xlink="http://www.w3.org/1999/xlink" width="200" height="200"><defs><style type="text/css"></style></defs><path d="M512.936325 960.958198l-9.676383-3.685949c-311.784002-120.56696-367.81411-266.833231-367.81411-374.806361V175.508269l27.800159 0.921999c216.71374 7.371898 329.1096-90.310865 329.87708-91.385336l19.96675-21.65623 19.812231 21.65623c0.76748 0.76748 108.249423 91.692329 306.839387 91.692328 7.526417 0 15.204283-0.153496 23.037693-0.461511l27.800159-0.920976v406.8031c0 107.97313-56.183604 254.239402-367.813086 374.806361l-9.82988 3.993964zM189.202153 230.647077v351.665315c0 58.056254 20.089547 200.176089 323.734172 320.896544 303.643602-120.56696 323.733149-262.686794 323.733149-320.896544V230.647077c-168.178327-0.615007-285.028639-60.514235-323.733149-91.385336-38.703487 30.872125-155.553799 90.77033-323.734172 91.385336z" p-id="3332"></path><path d="M321.094042 615.794971c-7.67889-13.362332-16.280802-25.803689-25.802666-36.707017 27.186176-34.251082 48.687886-78.636988 70.497611-156.354024-23.806195 0.460488-40.546461 1.843998-55.29128 3.840469v-40.547485c15.204283 2.457981 31.946596 3.37998 56.213279 3.840468 0-52.373835-1.843998-74.797543-5.221932-95.839789 12.900821 1.842974 30.103622 2.918469 44.38693 1.842975 9.521864-0.459464 11.978822 2.918469 2.917446 10.905374-4.299933 3.839445-5.221932 7.218402-5.221931 12.900821v70.0361c24.728194-0.460488 42.390459-1.381463 57.749262-3.839445v40.546461c-15.204283-1.842974-32.867572-3.378957-57.749262-3.378957v211.644281c0 25.342178 1.843998 58.671261 4.761443 89.695859h-46.229904c2.918469-31.024597 4.761444-64.35368 4.761444-89.695859V507.361353c-12.901845 41.315988-27.186176 74.644047-45.77044 108.433618z m112.887047-55.752792c-7.67889-21.502733-17.201777-41.007973-27.185153-55.752791l29.489638-14.744819c9.061376 17.663288 19.043728 34.865065 30.563087 54.371328l-32.867572 16.126282z m33.94409-63.892169c-9.522887-7.679913-22.424732-14.744819-33.789571-18.584264 35.325553-29.02915 72.494081-72.033593 95.838765-117.341498 13.823843-26.724665 21.041222-48.687886 24.728195-70.0361 13.362332 6.142907 37.168528 15.204283 50.991348 19.044752 7.219425 1.842974 6.604418 5.220908 0.921998 7.67889-3.37998 1.382487-6.14393 2.918469-9.062399 5.221931 29.489638 58.671261 76.794014 104.901165 139.611711 123.024941-10.44284 13.82282-17.201777 29.488615-21.962198 42.850947-53.909817-30.563086-103.518678-79.557964-135.464251-142.990668-32.716122 58.20975-69.424162 106.282628-111.813598 151.131069z m183.998641 3.839445c12.440333 5.683443 33.788547 13.82282 43.926442 16.280802 6.604418 1.381463 7.217379 4.299933 1.842974 6.604418-6.142907 2.918469-14.744819 18.123776-18.584264 28.567639-16.741289 47.15088-29.028127 81.554434-41.46846 113.040543 25.342178-0.460488 60.052724-1.843998 80.020498-4.300956v43.312458c-21.964244-3.37998-62.510706-4.761444-135.465275-4.761444-73.875544 0-116.26498 1.381463-137.767713 4.761444v-43.312458c22.884197 2.918469 62.510706 4.300956 87.698364 4.300956h71.572082c21.040199-52.987818 39.624463-116.881011 48.225352-164.493402zM496.031307 629.617791c-1.842974-34.865065-9.982352-82.937944-17.201777-108.74061l34.250058-7.219425c3.840468 25.802666 13.82282 82.477456 19.506263 110.123097l-36.554544 5.836938zM639.482463 434.253288v39.626509c-15.665795-2.918469-29.488615-3.839445-58.670238-3.839444s-40.548508 2.456958-57.135278 5.220908V434.253288c15.666818 2.918469 28.107151 4.299933 57.135278 4.299933 30.103622 0.001023 41.929971-1.534959 58.670238-4.299933z m-69.575612 175.397753c-3.839445-34.864042-11.364839-70.957075-19.043728-101.060697l33.788547-6.142907c4.761444 28.566616 13.362332 68.653613 21.042246 100.138698l-35.787065 7.064906z" p-id="3333"></path></svg>