<?xml version="1.0" standalone="no"?><!DOCTYPE svg PUBLIC "-//W3C//DTD SVG 1.1//EN" "http://www.w3.org/Graphics/SVG/1.1/DTD/svg11.dtd"><svg t="1556172320837" class="icon" style="" viewBox="0 0 1024 1024" version="1.1" xmlns="http://www.w3.org/2000/svg" p-id="1399" xmlns:xlink="http://www.w3.org/1999/xlink" width="200" height="200"><defs><style type="text/css"></style></defs><path d="M1008.309169 742.793846H160.484431V288.988554h847.824738V742.793846zM194.402462 707.883323h779.988676V323.899077H194.402462v383.984246z" p-id="1400"></path><path d="M177.435569 864.964923c-10.176985 0-16.951138-6.978954-16.951138-17.455261v-122.171077c0-10.476308 6.789908-17.455262 16.951138-17.455262 10.176985 0 16.951138 6.978954 16.951139 17.455262v122.171077c0.015754 10.476308-6.774154 17.455262-16.951139 17.455261z m0-541.065846c-10.176985 0-16.951138-6.978954-16.951138-17.455262v-139.626338H92.664123c-10.176985 0-16.951138-6.978954-16.951138-17.455262s6.789908-17.455262 16.951138-17.455261h84.7872c10.176985 0 16.951138 6.978954 16.951139 17.455261v157.065847c0 10.492062-6.789908 17.471015-16.966893 17.471015z" p-id="1401"></path><path d="M347.009969 1022.062277c-47.482092 0-84.7872-38.392123-84.7872-87.276308s37.305108-87.276308 84.7872-87.276307 84.7872 38.392123 84.7872 87.276307-37.305108 87.276308-84.7872 87.276308z m0-139.642092c-28.829538 0-50.869169 22.685538-50.869169 52.365784s22.039631 52.365785 50.869169 52.365785 50.869169-22.685538 50.869169-52.365785c0-29.664492-22.039631-52.365785-50.869169-52.365784z" p-id="1402"></path><path d="M753.963323 1022.062277c-47.482092 0-84.7872-38.392123-84.7872-87.276308s37.305108-87.276308 84.7872-87.276307 84.7872 38.392123 84.7872 87.276307c-0.015754 48.868431-37.305108 87.276308-84.7872 87.276308z m0-139.642092c-28.829538 0-50.869169 22.685538-50.869169 52.365784s22.039631 52.365785 50.869169 52.365785 50.869169-22.685538 50.869169-52.365785c0-29.664492-22.039631-52.365785-50.869169-52.365784z" p-id="1403"></path><path d="M906.570831 864.964923H177.435569c-10.176985 0-16.951138-6.978954-16.951138-17.455261s6.789908-17.455262 16.951138-17.455262h729.135262c10.176985 0 16.951138 6.978954 16.951138 17.455262s-6.774154 17.455262-16.951138 17.455261z m-50.869169-122.171077c-10.176985 0-16.951138-6.978954-16.951139-17.455261v-122.171077h-101.738338v122.171077c0 10.476308-6.789908 17.455262-16.951139 17.455261s-16.951138-6.978954-16.951138-17.455261v-122.171077h-101.738339v122.171077c0 10.476308-6.789908 17.455262-16.951138 17.455261s-16.951138-6.978954-16.951139-17.455261v-122.171077h-101.738338v122.171077c0 10.476308-6.789908 17.455262-16.951139 17.455261-10.176985 0-16.951138-6.978954-16.951138-17.455261v-122.171077H330.043077v122.171077c0 10.476308-6.789908 17.455262-16.951139 17.455261-10.176985 0-16.951138-6.978954-16.951138-17.455261v-122.171077h-118.689477c-10.176985 0-16.951138-6.978954-16.951138-17.455262s6.789908-17.455262 16.951138-17.455261h118.689477v-104.73157h-118.689477c-10.176985 0-16.951138-6.978954-16.951138-17.455261s6.789908-17.455262 16.951138-17.455262h118.689477v-122.171077c0-10.476308 6.789908-17.455262 16.951138-17.455261s16.951138 6.978954 16.951139 17.455261v122.171077h101.738338v-122.171077c0-10.476308 6.789908-17.455262 16.951139-17.455261 10.176985 0 16.951138 6.978954 16.951138 17.455261v122.171077h101.738339v-122.171077c0-10.476308 6.789908-17.455262 16.951138-17.455261s16.951138 6.978954 16.951139 17.455261v122.171077h101.738338v-122.171077c0-10.476308 6.789908-17.455262 16.951139-17.455261s16.951138 6.978954 16.951138 17.455261v122.171077h101.738339v-122.171077c0-10.476308 6.789908-17.455262 16.951138-17.455261s16.951138 6.978954 16.951138 17.455261v122.171077h118.689477c10.176985 0 16.951138 6.978954 16.951139 17.455262s-6.789908 17.455262-16.951139 17.455261H872.605538v104.73157h118.689477c10.176985 0 16.951138 6.978954 16.951139 17.455261s-6.789908 17.455262-16.951139 17.455262H872.605538v122.171077c0.047262 10.476308-6.726892 17.455262-16.903876 17.455261z m-118.689477-174.552615h101.738338v-104.715816h-101.738338v104.73157z m-135.65637 0h101.738339v-104.715816h-101.738339v104.73157z m-135.656369 0h101.738339v-104.715816h-101.738339v104.73157z m-135.656369 0h101.738338v-104.715816H330.043077v104.73157z" p-id="1404"></path><path d="M991.358031 742.793846c-10.176985 0-16.951138-6.978954-16.951139-17.455261v-418.89477c0-10.476308 6.789908-17.455262 16.951139-17.455261 10.176985 0 16.951138 6.978954 16.951138 17.455261v418.89477c0 10.476308-6.789908 17.455262-16.951138 17.455261z" p-id="1405"></path><path d="M75.697231 219.167508C38.392123 219.167508 7.876923 187.754338 7.876923 149.346462s30.5152-69.821046 67.820308-69.821047S143.517538 110.954338 143.517538 149.346462s-30.5152 69.789538-67.820307 69.789538z m0-104.715816c-18.652554 0-33.918031 15.706585-33.918031 34.910523s15.265477 34.910523 33.918031 34.910523S109.615262 168.566154 109.615262 149.346462s-15.265477-34.910523-33.918031-34.910524z" p-id="1406"></path><path d="M516.568615 323.899077H245.271631V149.346462H516.568615v174.552615z m-237.394707-34.910523h203.476677v-104.715816H279.173908v104.715816z" p-id="1407"></path><path d="M787.8656 323.899077H482.650585V9.720123h305.215015V323.899077zM516.568615 288.988554h237.394708V44.630646H516.568615v244.342154z" p-id="1408"></path><path d="M957.44 323.899077H753.963323V62.070154h203.476677v261.828923z m-169.5744-34.910523h135.656369V96.996431h-135.656369v191.992123z" p-id="1409"></path></svg>