<?xml version="1.0" standalone="no"?><!DOCTYPE svg PUBLIC "-//W3C//DTD SVG 1.1//EN" "http://www.w3.org/Graphics/SVG/1.1/DTD/svg11.dtd"><svg t="1555924327002" class="icon" style="" viewBox="0 0 1024 1024" version="1.1" xmlns="http://www.w3.org/2000/svg" p-id="3243" xmlns:xlink="http://www.w3.org/1999/xlink" width="200" height="200"><defs><style type="text/css"></style></defs><path d="M354.816 569.088c-15.2576 0-25.4464 10.1888-25.4464 25.4464s10.1888 25.4464 25.4464 25.4464h150.016v127.1296c0 15.2576 10.1888 25.4464 25.4464 25.4464s25.4464-10.1888 25.4464-25.4464v-127.1296h150.016c12.6976 0 22.8864-10.1888 22.8864-25.4464s-10.1888-25.4464-25.4464-25.4464h-147.456V467.4048h150.016c12.6976 0 22.8864-10.1888 22.8864-25.4464s-10.1888-25.4464-25.4464-25.4464h-122.7264L695.5008 307.2a24.576 24.576 0 0 0 0-35.584 24.576 24.576 0 0 0-35.584 0l-134.7584 129.6896-127.1296-122.0608a24.576 24.576 0 0 0-35.584 0c-10.1888 10.1888-7.6288 25.4464 2.56 35.584l107.3664 101.6832H354.816c-15.2576 0-25.4464 10.1888-25.4464 25.4464s10.1888 25.4464 25.4464 25.4464h150.016v101.6832H354.816z" p-id="3244"></path><path d="M1018.9312 537.4464c-10.1888-7.6288-27.9552-5.0688-35.584 5.0688l-35.6352 45.7728V194.2016c0-40.704-17.8176-78.7968-45.7728-106.8032a160.512 160.512 0 0 0-109.312-43.2128l-350.8736 2.56a25.4976 25.4976 0 0 0-25.4464 25.4464c0 15.2576 10.1888 25.4464 25.4464 25.4464l350.8736-2.56c25.4464 0 50.8416 10.1888 68.6592 27.9552 20.3264 17.8176 30.5152 43.2128 30.5152 71.168v465.3056c0 10.1888 7.6288 20.3264 17.8176 22.8864 10.1888 5.0688 20.3264 0 27.9552-7.6288l81.3568-101.6832c2.5088-5.12 5.0688-10.24 5.0688-15.3088a48.2816 48.2816 0 0 0-5.0688-20.3264zM584.1408 926.4128l-350.8736 2.56a100.352 100.352 0 0 1-71.168-30.5152 101.888 101.888 0 0 1-30.5152-71.168V361.984c0-10.1888-7.6288-15.2576-17.8176-20.3264-10.1888-5.0688-20.3264 0-27.9552 7.6288L4.4544 450.9696c-7.6288 10.1888-5.0688 27.9552 5.0688 35.584 10.1888 7.6288 27.9552 5.0688 35.584-5.0688l35.584-45.7728v391.5776c0 40.704 17.8176 78.7968 45.7728 109.312a160.512 160.512 0 0 0 109.312 43.2128l350.8736-5.0688a25.4976 25.4976 0 0 0 25.4464-25.4464 24.2688 24.2688 0 0 0-27.9552-22.8864zM956.5696 767.1808h-142.6432v-143.2576a16.2304 16.2304 0 0 0-16.2304-16.2304h-20.6848a16.2304 16.2304 0 0 0-16.2304 16.2304v143.2576h-143.872a16.2304 16.2304 0 0 0-16.2304 16.2304v20.6848c0 8.96 7.2704 16.2304 16.2304 16.2304h143.872v143.2576c0 8.96 7.2704 16.2304 16.2304 16.2304h20.6848a16.2304 16.2304 0 0 0 16.2304-16.2304v-143.2576h142.6432a16.2304 16.2304 0 0 0 16.2304-16.2304v-20.6848a16.2304 16.2304 0 0 0-16.2304-16.2304z" p-id="3245"></path></svg>