<?xml version="1.0" standalone="no"?><!DOCTYPE svg PUBLIC "-//W3C//DTD SVG 1.1//EN" "http://www.w3.org/Graphics/SVG/1.1/DTD/svg11.dtd"><svg t="1545357671667" class="icon" style="" viewBox="0 0 1024 1024" version="1.1" xmlns="http://www.w3.org/2000/svg" p-id="933" xmlns:xlink="http://www.w3.org/1999/xlink" width="200" height="200"><defs><style type="text/css"></style></defs><path d="M512 55.296C260.096 55.296 55.296 260.096 55.296 512s204.8 456.704 456.704 456.704 456.704-204.8 456.704-456.704S763.904 55.296 512 55.296zM925.696 490.496 559.104 490.496 819.2 230.4C883.712 303.104 921.6 392.192 925.696 490.496zM512 929.792C281.6 929.792 94.208 742.4 94.208 512S281.6 94.208 512 94.208c106.496 0 204.8 43.008 277.504 106.496L494.592 494.592c-4.096 4.096-4.096 8.192-4.096 13.312 0 13.312 8.192 21.504 21.504 21.504l413.696 0C917.504 750.592 734.208 929.792 512 929.792z" p-id="934"></path></svg>