<?xml version="1.0" standalone="no"?><!DOCTYPE svg PUBLIC "-//W3C//DTD SVG 1.1//EN" "http://www.w3.org/Graphics/SVG/1.1/DTD/svg11.dtd"><svg t="1558419719526" class="icon" style="" viewBox="0 0 1024 1024" version="1.1" xmlns="http://www.w3.org/2000/svg" p-id="1536" xmlns:xlink="http://www.w3.org/1999/xlink" width="200" height="200"><defs><style type="text/css"></style></defs><path d="M752.4 842h-57.2c-13 0-23.6-10.6-23.6-23.6s10.6-23.6 23.6-23.6h57.2v-57.2c0-13 10.6-23.6 23.6-23.6 13 0 23.6 10.6 23.6 23.6v57.2h57.2c13 0 23.6 10.6 23.6 23.6S869.8 842 856.8 842h-57.2v57.2c0 13-10.6 23.6-23.6 23.6-13 0-23.6-10.6-23.6-23.6V842zM776 959.8c78.1 0 141.4-63.3 141.4-141.4S854.1 677 776 677s-141.4 63.3-141.4 141.4S697.9 959.8 776 959.8z" p-id="1537"></path><path d="M559.1 865.6H190.3c-30.6 0-55.5-24.9-55.5-55.5V166.8c0-30.6 24.9-55.5 55.5-55.5h643.3c30.8 0 55.5 24.6 55.5 55.2v463.3c0 13 10.6 23.6 23.6 23.6 13 0 23.6-10.6 23.6-23.6V166.5c0-56.8-45.9-102.4-102.6-102.4H190.3c-56.6 0-102.6 46-102.6 102.6V810c0 56.6 46 102.6 102.6 102.6h368.8c13 0 23.6-10.6 23.6-23.6s-10.5-23.4-23.6-23.4z" p-id="1538"></path><path d="M396.6 566.1h-49.3c-12.9 0-23.4-10.5-23.4-23.8V400.1c0-13.2 10.5-23.8 23.8-23.8h142.2c13.2 0 23.8 10.6 23.8 23.9v50.4c0 13 10.6 23.6 23.6 23.6 13 0 23.6-10.6 23.6-23.6v-50.4c0-39.4-31.7-71-70.9-71H347.7c-39.3 0-70.9 31.7-70.9 70.9v142.2c0 39.3 31.5 70.9 70.5 70.9h49.3c13 0 23.6-10.6 23.6-23.6 0-12.9-10.6-23.5-23.6-23.5z" p-id="1539"></path><path d="M591.8 414.4h119.7c20.2 0 34.7 11.8 34.7 23.8v142.2c0 12-14.7 23.8-35.2 23.8H534.5c-20.5 0-35.2-11.8-35.2-23.9v-95.1c0-13-10.6-23.6-23.6-23.6-13 0-23.6 10.6-23.6 23.6v95.1c0 40.6 37.8 71 82.4 71H711c44.7 0 82.4-30.5 82.4-70.9V438.2c0-40.5-37.5-70.9-81.9-70.9H591.8c-13 0-23.6 10.6-23.6 23.6s10.6 23.5 23.6 23.5z" p-id="1540"></path></svg>