<?xml version="1.0" standalone="no"?><!DOCTYPE svg PUBLIC "-//W3C//DTD SVG 1.1//EN" "http://www.w3.org/Graphics/SVG/1.1/DTD/svg11.dtd"><svg t="1552962469243" class="icon" style="" viewBox="0 0 1024 1024" version="1.1" xmlns="http://www.w3.org/2000/svg" p-id="4977" xmlns:xlink="http://www.w3.org/1999/xlink" width="200" height="200"><defs><style type="text/css"></style></defs><path d="M947.2 524.8h-268.8l-268.8 268.8s-6.4 6.4-6.4 12.8 0 6.4 6.4 12.8l6.4 6.4c6.4 6.4 12.8 6.4 19.2 0l172.8-134.4c6.4-6.4 6.4-6.4 12.8-6.4s12.8 0 19.2 6.4 6.4 6.4 6.4 12.8-6.4 12.8-6.4 12.8l-172.8 134.4c-12.8 12.8-25.6 12.8-38.4 12.8s-32-6.4-38.4-19.2l-6.4-6.4c-6.4-6.4-12.8-19.2-12.8-25.6H204.8c-32 0-57.6 25.6-57.6 57.6v19.2c0 32 25.6 57.6 57.6 57.6H512l204.8-121.6h230.4c12.8 0 19.2 6.4 19.2 19.2s-6.4 19.2-19.2 19.2h-211.2l-204.8 121.6H204.8c-51.2 0-96-44.8-96-96v-19.2c0-57.6 44.8-96 96-96h160l6.4-6.4 275.2-275.2 6.4-6.4h172.8v-6.4-44.8c0-198.4-166.4-364.8-364.8-364.8S108.8 243.2 108.8 441.6c0 70.4 25.6 179.2 76.8 236.8 6.4 6.4 6.4 19.2 0 32-6.4 6.4-6.4 6.4-12.8 6.4s-12.8 0-12.8-6.4c-57.6-64-89.6-185.6-89.6-268.8C70.4 217.6 249.6 38.4 467.2 38.4s396.8 179.2 396.8 403.2v51.2h89.6c12.8 0 19.2 6.4 19.2 19.2 0 12.8-19.2 12.8-25.6 12.8z" p-id="4978"></path><path d="M582.4 320h-12.8v-57.6c0-25.6-19.2-44.8-44.8-44.8h-57.6v-12.8c0-44.8-25.6-57.6-57.6-57.6s-51.2 25.6-51.2 57.6v12.8h-57.6c-25.6 0-44.8 19.2-44.8 44.8v64s0 6.4 6.4 12.8h32c19.2 0 32 12.8 32 32s-19.2 38.4-38.4 38.4h-25.6c-6.4 0-12.8 6.4-12.8 12.8v64c0 25.6 19.2 44.8 44.8 44.8h64c6.4 0 12.8-6.4 12.8-12.8v-25.6c0-19.2 19.2-32 38.4-32s32 12.8 32 32v25.6c0 6.4 6.4 12.8 12.8 12.8H512c25.6 0 44.8-19.2 44.8-44.8v-57.6h12.8c32 0 57.6-25.6 57.6-57.6 0-38.4-19.2-44.8-44.8-51.2z m0 83.2h-19.2c-6.4 0-25.6 0-25.6 12.8v70.4c0 12.8-6.4 19.2-12.8 19.2h-57.6v-12.8c0-32-25.6-57.6-57.6-57.6s-57.6 25.6-57.6 57.6V512h-51.2c-12.8 0-25.6-12.8-25.6-19.2v-57.6h19.2c32 0 57.6-32 57.6-64s-25.6-57.6-57.6-57.6h-12.8v-51.2c0-12.8 6.4-19.2 12.8-19.2h70.4c6.4 0 12.8-6.4 12.8-12.8v-25.6c0-19.2 12.8-32 32-32s38.4 12.8 38.4 32v25.6c0 6.4 0 12.8 6.4 12.8h70.4c12.8 0 19.2 12.8 19.2 19.2v70.4c0 6.4 6.4 12.8 12.8 12.8h25.6c19.2 0 25.6 6.4 25.6 19.2 0 19.2-6.4 38.4-25.6 38.4z" p-id="4979"></path></svg>