<?xml version="1.0" standalone="no"?><!DOCTYPE svg PUBLIC "-//W3C//DTD SVG 1.1//EN" "http://www.w3.org/Graphics/SVG/1.1/DTD/svg11.dtd"><svg t="1565753096408" class="icon" viewBox="0 0 1024 1024" version="1.1" xmlns="http://www.w3.org/2000/svg" p-id="3611" xmlns:xlink="http://www.w3.org/1999/xlink" width="200" height="200"><defs><style type="text/css"></style></defs><path d="M313.984 704.96l546.944 1.28c25.6-1.472 46.848-17.728 53.12-40.96l106.24-433.856a49.6 49.6 0 0 0-9.344-44.16 60.672 60.672 0 0 0-47.552-22.144h-218.048a26.368 26.368 0 0 0-26.688 26.048c0 14.336 11.968 25.984 26.688 25.984h218.048c3.52 0 5.12 1.6 5.056 1.6l-106.176 433.728a5.44 5.44 0 0 1-2.944 1.92l-523.456-1.408-109.76-435.84h228.16c14.72 0 26.688-11.648 26.688-25.984a26.368 26.368 0 0 0-26.688-26.048h-241.28L183.296 47.168H26.88a26.368 26.368 0 0 0-26.752 26.048c0 14.336 11.968 25.984 26.752 25.984h114.496l140.736 558.72c-43.52 13.504-75.2 53.312-75.2 100.096 0 31.488 14.336 59.776 36.928 79.04a103.68 103.68 0 0 0-36.928 79.104c0 57.92 48.448 105.088 107.968 105.088s108.032-47.168 108.032-105.088c0-19.392-5.44-37.504-14.912-53.12h385.92a102.272 102.272 0 0 0-14.848 53.12c0 57.92 48.448 105.088 108.032 105.088 59.52 0 107.968-47.168 107.968-105.088 0-57.984-48.448-105.088-107.968-105.088H313.216a53.824 53.824 0 0 1-52.864-53.056c0-28.992 24-52.608 53.632-53.12z m573.056 158.08c30.08 0 54.592 23.808 54.592 53.12 0 29.248-24.448 53.12-54.592 53.12a53.888 53.888 0 0 1-54.528-53.12c0-29.312 24.448-53.12 54.528-53.12z m-573.696 0l1.536 0.064h1.024a53.824 53.824 0 0 1 53.568 53.056c0 29.248-24.512 53.12-54.592 53.12a53.888 53.888 0 0 1-54.528-53.12c0-28.8 23.616-52.288 52.992-53.12z m156.16-748.8a25.536 25.536 0 0 0-0.64 36.8c10.24 10.304 27.136 10.624 37.76 0.64l68.352-64.32V354.56c0 14.336 11.968 25.984 26.752 25.984 14.72 0 26.688-11.648 26.688-25.984V87.424l68.352 64.192a27.008 27.008 0 0 0 37.76-0.64 25.472 25.472 0 0 0-0.64-36.736L620.288 7.424l-0.832-0.64-0.96-0.896-1.024-0.704L616.32 4.416l-1.024-0.64-1.28-0.64L613.12 2.56 611.776 2.048 610.816 1.728a35.712 35.712 0 0 0-1.472-0.512L608.448 1.024C608 0.832 607.36 0.64 606.784 0.64L606.08 0.512 604.16 0.256h-0.64L601.6 0.064l-1.856 0.064h-0.64l-1.792 0.32c-0.256 0-0.512 0-0.768 0.128a31.04 31.04 0 0 0-1.664 0.384l-0.832 0.192-1.536 0.512-0.896 0.32-1.408 0.64-0.96 0.448-1.28 0.64a34.56 34.56 0 0 0-1.024 0.64L585.92 5.12 584.96 5.888l-1.024 0.896-0.832 0.64-113.6 106.816z" fill="#B6B6B6" p-id="3612"></path></svg>