<?xml version="1.0" standalone="no"?><!DOCTYPE svg PUBLIC "-//W3C//DTD SVG 1.1//EN" "http://www.w3.org/Graphics/SVG/1.1/DTD/svg11.dtd"><svg t="1565753118881" class="icon" viewBox="0 0 1024 1024" version="1.1" xmlns="http://www.w3.org/2000/svg" p-id="4357" xmlns:xlink="http://www.w3.org/1999/xlink" width="200" height="200"><defs><style type="text/css"></style></defs><path d="M313.984 695.424l546.944 1.408a57.6 57.6 0 0 0 53.12-42.368l106.24-447.808a52.48 52.48 0 0 0-9.344-45.568 59.904 59.904 0 0 0-47.552-22.848h-218.048a26.752 26.752 0 0 0 0 53.632h218.048c3.52 0 5.12 1.664 5.056 1.664l-106.176 447.744a5.44 5.44 0 0 1-2.944 1.92l-523.456-1.344-109.76-449.92h228.16a26.752 26.752 0 0 0 0-53.76h-241.28L183.296 16.512H26.88a26.752 26.752 0 1 0 0 53.696h114.496l140.736 576.704a108.608 108.608 0 0 0-38.272 184.96 108.48 108.48 0 0 0-36.928 81.6c0 59.84 48.448 108.544 107.968 108.544a108.352 108.352 0 0 0 93.12-163.328h385.92a108.352 108.352 0 0 0 93.12 163.328c59.584 0 108.032-48.64 108.032-108.544 0-59.776-48.448-108.48-107.968-108.48H314.88l-1.728 0.064a54.72 54.72 0 0 1 0.768-109.568z m573.056 163.2a54.784 54.784 0 1 1 0 109.632 54.72 54.72 0 0 1-54.528-54.848c0-30.208 24.448-54.784 54.528-54.784z m-573.696 0l1.536 0.064h1.024a54.784 54.784 0 1 1-1.024 109.632 54.784 54.784 0 0 1-1.536-109.632z m156.16-582.912l113.664 110.272 0.768 0.704 1.024 0.896 0.96 0.768a26.368 26.368 0 0 0 1.152 0.768l1.024 0.64 1.216 0.64c0.32 0.256 0.64 0.384 0.96 0.512l1.408 0.64a61.824 61.824 0 0 0 2.432 0.896l0.832 0.192c0.576 0.128 1.088 0.32 1.664 0.384l0.768 0.128 1.792 0.256h0.64l1.92 0.128 1.856-0.064h0.64l1.792-0.32c0.256 0 0.512 0 0.768-0.128 0.64-0.064 1.152-0.256 1.664-0.384l0.896-0.192 1.472-0.512 0.96-0.384 1.344-0.64 1.024-0.448 1.216-0.704 1.024-0.64 1.088-0.768 1.024-0.768 0.96-0.896 0.832-0.64 113.6-110.336a26.88 26.88 0 0 0-18.56-46.08 26.56 26.56 0 0 0-18.56 7.488L628.416 303.488V27.712a26.752 26.752 0 0 0-53.44 0v275.776L506.624 237.12a26.624 26.624 0 0 0-37.76 0.64 26.88 26.88 0 0 0 0.64 37.952z" fill="#B6B6B6" p-id="4358"></path></svg>