<?xml version="1.0" standalone="no"?><!DOCTYPE svg PUBLIC "-//W3C//DTD SVG 1.1//EN" "http://www.w3.org/Graphics/SVG/1.1/DTD/svg11.dtd"><svg t="1567825500941" class="icon" viewBox="0 0 1024 1024" version="1.1" xmlns="http://www.w3.org/2000/svg" p-id="1739" xmlns:xlink="http://www.w3.org/1999/xlink" width="200" height="200"><defs><style type="text/css"></style></defs><path d="M512 76.8c240.128 0 435.2 195.072 435.2 435.2S752.128 947.2 512 947.2 76.8 752.128 76.8 512 271.872 76.8 512 76.8M512 0C229.376 0 0 229.376 0 512s229.376 512 512 512 512-229.376 512-512S794.624 0 512 0z m0 0" p-id="1740" fill="#8a8a8a"></path><path d="M320 307.2c-35.328 0-64 28.672-64 64s28.672 64 64 64 64-28.672 64-64-28.672-64-64-64z m384 0c-35.328 0-64 28.672-64 64s28.672 64 64 64 64-28.672 64-64-28.672-64-64-64zM512 793.6c127.488 0 230.4-102.912 230.4-230.4H281.6c0 127.488 102.912 230.4 230.4 230.4z m0 0" p-id="1741" fill="#8a8a8a"></path></svg>